<svg width="35" height="35" xmlns="http://www.w3.org/2000/svg"><path d="M21.626 9.19c-1.077-.05-1.4-.058-4.126-.058-2.726 0-3.048.01-4.124.058-2.77.127-4.059 1.438-4.186 4.186-.048 1.076-.06 1.398-.06 4.124s.012 3.048.06 4.126c.127 2.74 1.41 4.058 4.186 4.185 1.075.048 1.398.06 4.124.06 2.727 0 3.05-.01 4.126-.06 2.769-.125 4.057-1.44 4.185-4.185.048-1.077.058-1.4.058-4.126 0-2.726-.01-3.048-.058-4.124-.128-2.746-1.419-4.059-4.185-4.186zM17.5 22.743a5.243 5.243 0 1 1 0-10.486 5.243 5.243 0 0 1 0 10.486zm5.45-9.466a1.225 1.225 0 1 1 0-2.45 1.225 1.225 0 0 1 0 2.45zM20.902 17.5a3.402 3.402 0 1 1-6.804 0 3.402 3.402 0 0 1 6.804 0zM17.5 0C7.836 0 0 7.836 0 17.5S7.836 35 17.5 35 35 27.164 35 17.5 27.164 0 17.5 0zm10.147 21.709c-.168 3.711-2.234 5.767-5.937 5.938-1.09.05-1.438.061-4.21.061-2.772 0-3.12-.011-4.209-.06-3.71-.172-5.767-2.23-5.938-5.94-.05-1.087-.061-1.436-.061-4.208 0-2.772.011-3.12.06-4.209.172-3.71 2.23-5.767 5.94-5.937 1.089-.05 1.436-.062 4.208-.062 2.772 0 3.12.011 4.21.062 3.712.171 5.77 2.235 5.937 5.937.05 1.09.061 1.437.061 4.209 0 2.772-.011 3.12-.06 4.209z" fill="#FFF" fill-rule="nonzero"/></svg>