<svg width="35" height="35" xmlns="http://www.w3.org/2000/svg" xmlns:xlink="http://www.w3.org/1999/xlink"><defs><path id="a" d="M0 0h35v35H0z"/></defs><g fill="none" fill-rule="evenodd"><mask id="b" fill="#fff"><use xlink:href="#a"/></mask><path d="M26.346 14.066c.267 5.891-4.127 12.46-11.907 12.46-2.365 0-4.565-.695-6.418-1.883a8.427 8.427 0 0 0 6.2-1.734 4.201 4.201 0 0 1-3.915-2.91c.66.126 1.305.09 1.894-.07-2.015-.406-3.406-2.22-3.36-4.161.566.313 1.21.501 1.896.523a4.196 4.196 0 0 1-1.295-5.593 11.887 11.887 0 0 0 8.634 4.377c-.611-2.62 1.375-5.144 4.081-5.144a4.19 4.19 0 0 1 3.057 1.323 8.368 8.368 0 0 0 2.66-1.016 4.202 4.202 0 0 1-1.843 2.317 8.366 8.366 0 0 0 2.406-.66 8.431 8.431 0 0 1-2.09 2.17M17.5 0C7.836 0 0 7.836 0 17.5S7.836 35 17.5 35 35 27.164 35 17.5 27.164 0 17.5 0" fill="#FFF" mask="url(#b)"/></g></svg>