<svg xmlns="http://www.w3.org/2000/svg" viewBox="0 0 499.98 373.11"><defs><style>.cls-1{fill:#231f20;}.cls-2{fill:#fa2a62;}</style></defs><title>camera</title><g id="Layer_2" data-name="Layer 2"><g id="Layer_1-2" data-name="Layer 1"><path class="cls-1" d="M101.35,104.32a30.43,30.43,0,1,0,25.87,46.44,30.35,30.35,0,0,0,4.56-16A30.46,30.46,0,0,0,101.35,104.32Zm18.51,35.1a19.15,19.15,0,0,1-18.51,14.42,18.81,18.81,0,0,1-7.09-1.37,19.15,19.15,0,0,1-9.8-8.84,18.86,18.86,0,0,1-2.2-8.88,19.09,19.09,0,1,1,37.6,4.67Z"/><path class="cls-1" d="M284.77,67.84a42.38,42.38,0,0,0-12.28,82.92,42.26,42.26,0,0,0,38-6.93,42.35,42.35,0,0,0-25.75-76Zm9.17,72a31,31,0,0,1-19.64-.43,31,31,0,1,1,19.64.43Z"/><path class="cls-1" d="M499.93,233.78a30.24,30.24,0,0,0-14.82-24.43,31.33,31.33,0,0,0-29.55-1.42l-75.38,35.84H355.25V208.43a68.94,68.94,0,0,0-1.16-12.61A110.19,110.19,0,1,0,176,92.69,85.64,85.64,0,1,0,40.52,195a69,69,0,0,0-1.31,13.42V241H19.94A20,20,0,0,0,0,261v22.82a20,20,0,0,0,19.94,19.94H39.21v.37a69.09,69.09,0,0,0,69,69h178a69.08,69.08,0,0,0,69-69v-1.38H380l77.49,27.64a32.31,32.31,0,0,0,28.63-3.56,30.69,30.69,0,0,0,13.81-24.14c0-.55.05-1.11.05-1.66V235.45C500,234.89,500,234.34,499.93,233.78ZM284.77,11.34a98.82,98.82,0,0,1,65.94,172.47,96.45,96.45,0,0,1-9.4,7.46A98.85,98.85,0,1,1,284.77,11.34Zm-240.45,171a74.32,74.32,0,1,1,131.36-47.63c0,1.57-.05,3.13-.15,4.67a72.86,72.86,0,0,1-1.59,11.34A74.3,74.3,0,0,1,53.15,191.3,75.9,75.9,0,0,1,44.32,182.38Zm6.23,70H212.77a20,20,0,1,1,0,40H50.55ZM343.92,304.1a57.74,57.74,0,0,1-57.67,57.67h-178A57.73,57.73,0,0,1,50.55,304.1v-.37H212.77a31.35,31.35,0,1,0,0-62.7H50.55v-32.6c0-1.55.06-3.08.19-4.6a85.63,85.63,0,0,0,133.68-48.09,110.13,110.13,0,0,0,159.27,47.57c.15,1.69.23,3.39.23,5.12v35.35a17.1,17.1,0,0,0-16.45,17.07v24.79a17.1,17.1,0,0,0,16.45,17.07Zm33.72-12.34H344.55l-.63,0a6.13,6.13,0,0,1-5.49-6.09V260.85a6.13,6.13,0,0,1,5.49-6.09l.63,0h33.09Zm111,9.24q0,.54,0,1.08a19.48,19.48,0,0,1-8.79,15.29,20.62,20.62,0,0,1-18.52,2.31l-71.51-25.51V251.76l70.64-33.59a20,20,0,0,1,18.87.92,18.69,18.69,0,0,1,9.31,15.27c0,.36,0,.73,0,1.09Z"/><path class="cls-2" d="M315.8,110.21a31.06,31.06,0,0,1-21.86,29.64,31,31,0,0,1-19.64-.43,31,31,0,1,1,41.5-29.21Z"/><path class="cls-2" d="M120.44,134.75a19.09,19.09,0,1,1-19.09-19.09A19,19,0,0,1,120.44,134.75Z"/></g></g></svg>