<svg xmlns="http://www.w3.org/2000/svg" viewBox="0 0 317.62 310.5"><defs><style>.cls-1{fill:#231f20;}.cls-2{fill:#fa2a62;}</style></defs><title>fancyfootprint</title><g id="Layer_2" data-name="Layer 2"><g id="Layer_4" data-name="Layer 4"><path class="cls-1" d="M317.6,5.2a5.42,5.42,0,0,0-.11-.72c0-.11-.05-.21-.07-.32s-.09-.3-.15-.44A5.83,5.83,0,0,0,317,3a4.92,4.92,0,0,0-.5-.78l-.25-.3c-.09-.1-.19-.21-.3-.31a3.87,3.87,0,0,0-.54-.46,1.24,1.24,0,0,0-.23-.17l-.25-.16a3.59,3.59,0,0,0-.38-.21l-.32-.15L314,.41a1.75,1.75,0,0,0-.32-.12,2.54,2.54,0,0,0-.45-.13l-.24,0a2.76,2.76,0,0,0-.4-.06.09.09,0,0,0-.07,0A3.77,3.77,0,0,0,312,0H38.16a5.68,5.68,0,0,0-3.49,1.2L2.18,26.58l0,0a4.19,4.19,0,0,0-.45.39L1.66,27c-.14.15-.28.3-.41.46a5.27,5.27,0,0,0-.43.62,4.23,4.23,0,0,0-.25.47,5,5,0,0,0-.23.53l0,.09a4.19,4.19,0,0,0-.14.47.57.57,0,0,1,0,.14c0,.2-.07.39-.09.59a4.58,4.58,0,0,0,0,.64V304.83a5.67,5.67,0,0,0,5.67,5.67H279.44a5.84,5.84,0,0,0,.93-.08,3.29,3.29,0,0,0,.43-.09h.05a2.64,2.64,0,0,0,.4-.12,5.57,5.57,0,0,0,1.68-.9l.15-.11,32.36-25.27a5.68,5.68,0,0,0,2.18-4.47V5.65C317.62,5.5,317.61,5.35,317.6,5.2Zm-43.83,294H11.34V36.72H273.77Zm3.72-273.78H22.14l18-14H295.47Zm28.79,251.31-21.17,16.52V33.81l21.17-16.52Z"/><path d="M196.22,118.52a5.94,5.94,0,0,0-1.71-.53,5.88,5.88,0,0,0,1.26-1.73,6,6,0,0,0-5.51-8.66,6.35,6.35,0,0,0,1.22-1.73,6.66,6.66,0,0,0-7.13-9.46,7.18,7.18,0,0,0,.86-1.37,7.62,7.62,0,0,0-12.77-8.12,11.55,11.55,0,1,0-5.38,8.18,11.23,11.23,0,0,0,3.68-3.61,7.58,7.58,0,0,0,9.31,7.65,6.15,6.15,0,0,0-.55.93,6.65,6.65,0,0,0,6,9.55,2.17,2.17,0,0,0,.36,0,6.2,6.2,0,0,0-.93,1.4,6,6,0,0,0,2.8,8.06,5.74,5.74,0,0,0,1.74.53,5.88,5.88,0,0,0-1.26,1.72,6,6,0,0,0,5.41,8.63,5.83,5.83,0,0,0,2-.34,6,6,0,0,0,.65-11.08Zm-28-29.76a8,8,0,1,1,.36-6.08,7.83,7.83,0,0,1,.45,2.61A8,8,0,0,1,168.19,88.76ZM182,93.49a4.06,4.06,0,1,1-3.64-5.83,4,4,0,0,1,1.76.41A4.06,4.06,0,0,1,182,93.49Zm2.14,12.26a3.1,3.1,0,0,1,1.36-5.88,3.05,3.05,0,0,1,1.34.31,3.09,3.09,0,1,1-2.7,5.57Zm5.12,10.1a2.39,2.39,0,0,1-1.25-1.41,2.44,2.44,0,0,1,.11-1.89,2.5,2.5,0,0,1,1.41-1.26,2.57,2.57,0,0,1,1.89.11,2.49,2.49,0,0,1,1.26,1.42,2.45,2.45,0,0,1,.13.81,2.57,2.57,0,0,1-.24,1.08,2.49,2.49,0,0,1-3.31,1.14ZM195.8,125a2.46,2.46,0,0,1-3.26,1.14,2.45,2.45,0,0,1,1.07-4.65,2.46,2.46,0,0,1,2.3,1.64,2.51,2.51,0,0,1,.14.81A2.36,2.36,0,0,1,195.8,125Z"/><path class="cls-2" d="M169,85.29a8,8,0,1,1-8-8,7.93,7.93,0,0,1,7.51,5.35A7.83,7.83,0,0,1,169,85.29Z"/><path class="cls-2" d="M182,93.49a4.06,4.06,0,1,1-3.64-5.83,4,4,0,0,1,1.76.41A4.06,4.06,0,0,1,182,93.49Z"/><path class="cls-2" d="M196.05,123.93a2.36,2.36,0,0,1-.25,1.06,2.46,2.46,0,0,1-3.26,1.14,2.45,2.45,0,0,1,1.07-4.65,2.46,2.46,0,0,1,2.3,1.64A2.51,2.51,0,0,1,196.05,123.93Z"/><path class="cls-2" d="M192.81,113.63a2.57,2.57,0,0,1-.24,1.08,2.49,2.49,0,0,1-3.31,1.14,2.39,2.39,0,0,1-1.25-1.41,2.44,2.44,0,0,1,.11-1.89,2.5,2.5,0,0,1,1.41-1.26,2.57,2.57,0,0,1,1.89.11,2.49,2.49,0,0,1,1.26,1.42A2.45,2.45,0,0,1,192.81,113.63Z"/><path class="cls-2" d="M188.28,104.32a3.09,3.09,0,1,1-2.78-4.45,3.05,3.05,0,0,1,1.34.31A3.11,3.11,0,0,1,188.28,104.32Z"/><path d="M176.81,108.22c-9.3-8.33-21.55-9.19-28.35-5.78-7.52,3.77-12.52,10.86-14.46,20.48a34.29,34.29,0,0,0,.14,14.12,42.14,42.14,0,0,0,2.4,7.12c.51,1.26,1,2.56,1.48,3.89,2.06,6.19.95,14.08-3,21.11-3.37,6-8.21,10.82-13.33,15.88-5.31,5.24-10.79,10.67-14.42,17.55-3.34,6.34-4.19,12.84-2.4,18.3a17.52,17.52,0,0,0,9.4,10.31,25.74,25.74,0,0,0,11.24,2.86,18.47,18.47,0,0,0,6.73-1.24c5-1.93,8.89-6.3,11.18-12.64,7-19.36,17.44-36.58,25.76-49.41,1.57-2.44,3.39-4.87,5.31-7.45A119.73,119.73,0,0,0,182,152.41a38.31,38.31,0,0,0,4.25-10C189.32,130,185.42,115.94,176.81,108.22Zm4.85,33a33.61,33.61,0,0,1-3.74,8.77h0a115.92,115.92,0,0,1-7.21,10.46c-1.88,2.53-3.83,5.14-5.49,7.7-8.46,13-19.08,30.57-26.24,50.38-1.26,3.49-3.74,8-8.41,9.83-4.14,1.59-8.92,1.1-14.2-1.46a12.69,12.69,0,0,1-7-7.52c-1.37-4.17-.61-9.49,2.09-14.6,3.28-6.24,8.27-11.17,13.55-16.39,5.13-5.07,10.44-10.32,14.14-16.94,4.64-8.3,5.85-17.39,3.34-24.93-.5-1.48-1.05-2.85-1.59-4.18a37.59,37.59,0,0,1-2.16-6.34,29.59,29.59,0,0,1-.12-12.18c1.14-5.67,4.14-13.25,11.93-17.16a14.62,14.62,0,0,1,6.59-1.45,26.24,26.24,0,0,1,16.46,6.52C180.89,118.25,184.26,130.65,181.66,141.25Z"/><path class="cls-2" d="M181.66,141.25a33.61,33.61,0,0,1-3.74,8.77h0a115.92,115.92,0,0,1-7.21,10.46c-1.88,2.53-3.83,5.14-5.49,7.7-8.46,13-19.08,30.57-26.24,50.38-1.26,3.49-3.74,8-8.41,9.83-4.14,1.59-8.92,1.1-14.2-1.46a12.69,12.69,0,0,1-7-7.52c-1.37-4.17-.61-9.49,2.09-14.6,3.28-6.24,8.27-11.17,13.55-16.39,5.13-5.07,10.44-10.32,14.14-16.94,4.64-8.3,5.85-17.39,3.34-24.93-.5-1.48-1.05-2.85-1.59-4.18a37.59,37.59,0,0,1-2.16-6.34,29.59,29.59,0,0,1-.12-12.18c1.14-5.67,4.14-13.25,11.93-17.16a14.62,14.62,0,0,1,6.59-1.45,26.24,26.24,0,0,1,16.46,6.52C180.89,118.25,184.26,130.65,181.66,141.25Z"/><path class="cls-1" d="M43.92,115.21v17.51H60.37a4.25,4.25,0,1,1,0,8.5H43.92v17.52H60.37a4.25,4.25,0,1,1,0,8.5H43.92v17.51H60.37a4.26,4.26,0,1,1,0,8.51H43.92v17.51H60.37a4.25,4.25,0,1,1,0,8.5H43.92v17.52H60.37a4.25,4.25,0,1,1,0,8.5H43.92v6.57a4.25,4.25,0,1,1-8.5,0V69.54a4.25,4.25,0,0,1,8.5,0V82.27H60.37a4.26,4.26,0,1,1,0,8.51H43.92V106.7H60.37a4.26,4.26,0,1,1,0,8.51Z"/><path class="cls-1" d="M254.22,272.18a4.25,4.25,0,0,1-4.25,4.25H67.65a4.25,4.25,0,0,1,0-8.5H80.38V251.47a4.25,4.25,0,0,1,8.5,0v16.46h15.93V251.47a4.25,4.25,0,1,1,8.5,0v16.46h17.52V251.47a4.25,4.25,0,0,1,8.5,0v16.46h17.51V251.47a4.26,4.26,0,0,1,8.51,0v16.46h17.51V251.47a4.25,4.25,0,0,1,8.5,0v16.46h17.52V251.47a4.25,4.25,0,0,1,8.5,0v16.46h17.51V251.47a4.26,4.26,0,0,1,8.51,0v16.46H250A4.25,4.25,0,0,1,254.22,272.18Z"/></g></g></svg>