<svg xmlns="http://www.w3.org/2000/svg" viewBox="0 0 65.93 174.42"><defs><style>.cls-1{fill:#fff}</style></defs><g id="Layer_2" data-name="Layer 2"><g id="Layer_4" data-name="Layer 4"><circle class="cls-1" cx="10.68" cy="10.68" r="10.68"/><circle class="cls-1" cx="30.85" cy="8.75" r="6.4"/><circle class="cls-1" cx="43.27" cy="16.44" r="5.35"/><circle class="cls-1" cx="53.16" cy="24.64" r="4.66"/><circle class="cls-1" cx="61.29" cy="33.25" r="4.63"/><path class="cls-1" d="M60.88 66.69C60.26 74.81 58 83.2 57 90.81c-2.57 20.65-4 40.93-1.81 61.67.6 5.73-.35 11.56-4.29 15.77-3.18 3.39-8.32 6.17-16.62 6.17-12.69 0-18.36-10.67-18-22.2.54-16 10.46-30 11.4-46.19.5-8.54-1.77-18-7.88-24.23-3-3.09-6.19-5.33-8.91-8.8a34.91 34.91 0 0 1-6.37-12.92C2.26 51.34 3 42.48 8.54 35.2c6.06-7.89 18.89-9.52 28-6.92 11.94 3.42 21.3 15.31 23.84 27.23a39.23 39.23 0 0 1 .5 11.18z"/></g></g></svg>