<svg xmlns="http://www.w3.org/2000/svg" viewBox="0 0 513.2 553.96"><defs><style>.cls-1{fill:#fa2a62;stroke:#fa2a62;stroke-miterlimit:10;stroke-width:5.67px;}.cls-2{fill:#231f20;}</style></defs><title>hammer</title><g id="Layer_2" data-name="Layer 2"><g id="Layer_1-2" data-name="Layer 1"><path class="cls-1" d="M256.49,18.48,133.23,165.38a26.7,26.7,0,0,1,2.82-30.2L227.23,26.52A26.73,26.73,0,0,1,256.49,18.48Z"/><rect class="cls-1" x="215.41" y="53.83" width="195.22" height="274.49" transform="translate(-34.56 308.04) rotate(-50)"/><path class="cls-1" d="M490,247,398.8,355.66a26.71,26.71,0,0,1-29.25,8l123.26-146.9A26.7,26.7,0,0,1,490,247Z"/><path class="cls-2" d="M497.62,196.37l-77.18-64.76,7.63-9.09a22.3,22.3,0,0,0-2.75-31.37l-33.39-28a22.29,22.29,0,0,0-31.37,2.73L352.93,75,275.75,10.21a43.74,43.74,0,0,0-61.55,5.38L123,124.25a43.75,43.75,0,0,0,5.39,61.56l77.18,64.76L5.2,489.38a22.31,22.31,0,0,0,2.74,31.38l33.39,28A22.29,22.29,0,0,0,72.7,546L273.09,307.21,350.27,372a43.74,43.74,0,0,0,61.55-5.38L503,257.92A43.74,43.74,0,0,0,497.62,196.37Zm-124-119.56a5.33,5.33,0,0,1,7.41-.65l33.39,28a5.34,5.34,0,0,1,.65,7.41l-7.63,9.1L366,85.9ZM136.05,135.18,227.23,26.52a26.73,26.73,0,0,1,29.26-8L133.23,165.38A26.7,26.7,0,0,1,136.05,135.18ZM59.67,535.09a5.33,5.33,0,0,1-7.41.66l-33.39-28a5.33,5.33,0,0,1-.64-7.41L218.62,261.5l41.44,34.78Zm85.47-357.45L270.62,28.09,480.9,204.53,355.41,354.08ZM490,247,398.8,355.66a26.71,26.71,0,0,1-29.25,8l123.26-146.9A26.7,26.7,0,0,1,490,247Z"/></g></g></svg>