<svg xmlns="http://www.w3.org/2000/svg" viewBox="0 0 162.07 378.74"><defs><style>.cls-1{fill:#231f20;}</style></defs><title>paris</title><g id="Layer_2" data-name="Layer 2"><g id="Layer_2-2" data-name="Layer 2"><path class="cls-1" d="M161.77,374.63,131.64,315l-.08-14.39a2.83,2.83,0,0,0-2.83-2.82h-5.27l-14.8-55.33H109a1.89,1.89,0,0,0,1.31-.54,1.87,1.87,0,0,0,.54-1.32l0-11a1.85,1.85,0,0,0-1.85-1.84h-4L92.28,38a2.84,2.84,0,0,0-2.83-2.65H84.84V2.3A2.3,2.3,0,0,0,82.55,0h-3a2.3,2.3,0,0,0-2.29,2.3v33H72.62A2.84,2.84,0,0,0,69.79,38L57.17,227.78H53.09a1.85,1.85,0,0,0-1.85,1.85v11a1.85,1.85,0,0,0,1.85,1.85h.32l-14.8,55.33H33.26a2.84,2.84,0,0,0-2.84,2.84V315L.3,374.63a2.84,2.84,0,0,0,2.53,4.11H27.67a2.84,2.84,0,0,0,2.8-2.39c.27-1.65,7-40.45,50.56-40.45s50.3,38.8,50.57,40.45a2.85,2.85,0,0,0,2.8,2.39h24.84a2.84,2.84,0,0,0,2.53-4.11ZM75.27,41H86.8L99.22,227.78H62.85Zm-16,201.44h43.51l14.8,55.33H99l-5.94-44a2.84,2.84,0,0,0-2.7-2.46l-9.25-.36h-.22l-9.26.36a2.84,2.84,0,0,0-2.7,2.46l-5.94,44H44.48Zm34,55.33H68.75l5.52-40.91L81,256.6l6.76.27Zm43.38,75.29a61.31,61.31,0,0,0-9.19-20.21c-7.24-10.32-21.18-22.63-46.48-22.63S41.8,342.54,34.55,352.86a61.45,61.45,0,0,0-9.18,20.21H7.44L35,318.51h92.07l27.56,54.56Z"/></g></g></svg>