<svg xmlns="http://www.w3.org/2000/svg" viewBox="0 0 77.42 195.49"><defs><style>.cls-1{fill:#fa2a62;stroke:#231f20;stroke-miterlimit:10;stroke-width:5.67px;}</style></defs><title>pinkshoe</title><g id="Layer_2" data-name="Layer 2"><g id="Layer_4" data-name="Layer 4"><circle class="cls-1" cx="14.46" cy="14.46" r="11.63"/><circle class="cls-1" cx="36.41" cy="12.35" r="6.97"/><circle class="cls-1" cx="49.93" cy="20.72" r="5.82"/><circle class="cls-1" cx="60.68" cy="29.65" r="5.08"/><circle class="cls-1" cx="69.54" cy="39.02" r="5.04"/><path class="cls-1" d="M69.09,75.42c-.68,8.83-3.18,18-4.21,26.25-2.8,22.46-4.33,44.54-2,67.11.65,6.23-.39,12.58-4.67,17.16-3.46,3.69-9.05,6.72-18.09,6.72-13.81,0-20-11.62-19.56-24.17C21.18,151.11,32,135.79,33,118.23c.54-9.29-1.92-19.55-8.58-26.37-3.28-3.37-6.73-5.81-9.69-9.58a38,38,0,0,1-7-14.06c-2.45-9.51-1.7-19.16,4.38-27.08,6.59-8.59,20.55-10.36,30.42-7.53,13,3.72,23.18,16.67,25.94,29.63A42.89,42.89,0,0,1,69.09,75.42Z"/></g></g></svg>