<svg xmlns="http://www.w3.org/2000/svg" viewBox="0 0 403.68 468.29"><defs><style>.cls-1{fill:#231f20;}.cls-2{fill:#fa2a62;}</style></defs><title>potlood</title><g id="Layer_2" data-name="Layer 2"><g id="Layer_1-2" data-name="Layer 1"><path class="cls-1" d="M389.39,26,369.6,9.35a40.08,40.08,0,0,0-56.4,4.93L34.61,346.3a21.25,21.25,0,0,0-1.38,1.82h0a27.09,27.09,0,0,0-3,5.53s0,0,0,0l-1.46,5.07s0,0,0,0L.34,457.43a8.5,8.5,0,0,0,11.9,10l92.21-45.09h0l4.74-2.32h0a26.87,26.87,0,0,0,4.92-3.93h0a20.7,20.7,0,0,0,1.55-1.68l278.6-332A40.07,40.07,0,0,0,389.39,26Zm-27.82,69-55.06-46.2,19.72-23.51a23.05,23.05,0,0,1,32.44-2.85L378.47,39a23.06,23.06,0,0,1,2.83,32.44ZM76.67,417,22,443.74l16.85-58.51,4.54-15.77,48.06,40.32Zm29.18-17.3L50.79,353.48l15.35-18.3,55.07,46.21Zm26.4-31.47L77.19,322,295.57,61.76,350.64,108Z"/><polygon class="cls-2" points="91.42 409.78 76.67 416.99 21.97 443.74 38.82 385.23 43.36 369.46 91.42 409.78"/><path class="cls-2" d="M381.3,71.42,361.57,94.93l-55.06-46.2,19.72-23.51a23.05,23.05,0,0,1,32.44-2.85L378.47,39A23.06,23.06,0,0,1,381.3,71.42Z"/></g></g></svg>