<svg xmlns="http://www.w3.org/2000/svg" viewBox="0 0 451.68 233.75"><defs><style>.cls-1,.cls-3{fill:#fa2a62;}.cls-2,.cls-5{fill:none;}.cls-2,.cls-3,.cls-4,.cls-5{stroke:#000;stroke-width:4.56px;}.cls-2{stroke-miterlimit:10;}.cls-3,.cls-4,.cls-5{stroke-linecap:round;stroke-linejoin:round;}</style></defs><title>schoen</title><g id="Layer_2" data-name="Layer 2"><g id="shoe"><path class="cls-1" d="M272.43,216.88a175.89,175.89,0,0,1-65.37,6.5c-3.76-.33-3.73,5.53,0,5.86A180.45,180.45,0,0,0,274,222.53c3.61-1.07,2.07-6.72-1.56-5.65Z"/><path class="cls-1" d="M238.42,221.82c-13.3,8.73-31.8,6.09-46.9,5.64C174,227,156.44,225.91,139,224c-34.61-3.76-69.87-10.76-102-24.66-16-6.91-34.86-20.46-30.51-40.49.8-3.68-4.84-5.25-5.65-1.56-8.15,37.5,42.09,52,68.73,59.55,37.21,10.57,76,14.74,114.53,16.21,10.6.41,21.3.92,31.91.56,8.91-.3,17.75-1.78,25.32-6.75,3.14-2.06.21-7.13-3-5.06Z"/><path class="cls-2" d="M341.93,49.84a10.12,10.12,0,0,0,8.6.33c11.34-4.83,43.49-16.94,74.24-13.58a23.93,23.93,0,0,1,20.14,16c2.29,6.71,4.12,16.5,4.35,30.77.7,44.51-1.11,62.07-8.54,72.62s-158.26,26.7-186.16,29.49S119.3,201.26,35.08,153.6c0,0-18.5-11.71-11.75-22.13,0,0,7.21-11.56,56.24-14.27,0,0,1.48,0,5.16-.5a38.35,38.35,0,0,0,15.62-5.54c4-2.5,9.27-5.45,13.61-6.75,8.27-2.46,22.93-12.1,22.93-12.1s16.91-7.24,37.27-13.55a100.48,100.48,0,0,0,17.66-7.31l7-3.72A85.94,85.94,0,0,0,213,58.2c9-7.45,25.25-20.52,33.51-25A39.88,39.88,0,0,0,253,28.77c8.64-7.14,26.79-21,33-24.53,4.33-2.48,14.25-5,23.26,8.42s28.38,34.94,32.73,37.18Z"/><path class="cls-3" d="M341.88,51.69S359.06,57.18,372,68.32s44.86,6.18,49.31-7.17,21.22-13.56,21.22-13.56-10.4-21.54-64-6.82C378.52,40.77,356,48.34,341.88,51.69Z"/><path class="cls-3" d="M23.33,131.47S7.19,158.3,114.21,182c106.9,14.34,175.25-.28,175.25-.28S423.7,167.45,440.72,156c0,0,8.1,30.29-10,40.24,0,0-27.36,7-82.64,11.75,0,0-46.21,3.29-72.11,11.62,0,0-49.95,13.28-86.1,11.22-5.27-.3-10.52-.5-15.79-.33-18.62.58-68.73-.43-125.71-23C-23.82,178.91,8.1,147.12,23.33,131.47Z"/><path class="cls-3" d="M40.3,122.89s13.77,35.87,105.84,37.58c0,0-6.9-44.14,22.44-54.27a65,65,0,0,0,12.13-5.34L284.05,39.32c9.15-5.45,20-7.8,30.46-5.66.92.18,1.85.41,2.79.67,10.13,2.79,13.28,6.4,25.95,15.89l1,1.58s-105.74,59-144.91,76.64c-10.45,4.69-18.46,13.9-20.72,25.13a34.6,34.6,0,0,0,0,14.05s11.54,3.29,18.61,20.61c0,0-156-.3-174.66-54.34C22.58,133.89,25.65,126.06,40.3,122.89Z"/><path class="cls-4" d="M177.12,105c12.65,21.15-3.66,25.29-8.73,24.44s-29.6-27.74-29.6-27.74S122,86.14,133.47,80.88,155.88,86,155.88,86s-3.25-5.42,5.12-15.54C172.51,56.52,177.75,74,177.75,74c4.1.21,6.59-3.78,6.59-3.78s-2.29-6.61,10-15.46S208.55,61,208.55,61c3.14-8.22,9.26-17.17,9.26-17.17C228.2,30,242.05,32.59,242.05,32.59c-4.22-14.94,9.73-19.72,17-22.31s1.75,21.39,1.75,21.39c23.68-1.57,50.92,20.09,50.92,20.09,11.07,17.92-28.66,2.41-37-.55s-11.23,5.65-11.23,5.65,20.71,11.72,12.39,18.53-27.59-7.89-36.08-9.49-12.73,8.34-12.73,8.34S246.35,86,242.24,93.08s-31.92-9-31.92-9-20.06,3.83-9.48,9.36,8.1,8.05,8.1,8.05S201.14,114.83,186,108a50.08,50.08,0,0,0-8.87-3.08Z"/><path class="cls-5" d="M270.09,50.73l-33.34-2.85s-4.54-18.81,24.08-16.21"/><path class="cls-5" d="M236.75,47.88S207,52,208.55,61s18.56,13.27,18.56,13.27-31.36-6.43-48.39,0,19.11,15.54,19.11,15.54-23.68-5.74-41.29-6a1.15,1.15,0,0,0-.66,2.12c4,2.54,19.79,15.38,21.24,19"/></g></g></svg>