<svg xmlns="http://www.w3.org/2000/svg" viewBox="0 0 321.61 314.5"><defs><style>.cls-1,.cls-2{fill:#fa2a62;}.cls-1{stroke:#fa2a62;stroke-miterlimit:10;stroke-width:2.83px;}</style></defs><title>shoenleest</title><g id="Layer_2" data-name="Layer 2"><g id="Layer_5" data-name="Layer 5"><path d="M321.58,7c0-.15,0-.3-.05-.45s0-.25-.06-.37-.06-.29-.1-.43a3.68,3.68,0,0,0-.16-.54A7.46,7.46,0,0,0,320,3l-.24-.3-.29-.31a3.51,3.51,0,0,0-.34-.33c-.1-.1-.21-.19-.32-.28l-.29-.23-.4-.28a3.79,3.79,0,0,0-.34-.2,5.42,5.42,0,0,0-.48-.26,6.45,6.45,0,0,0-.82-.34l-.37-.13A8.32,8.32,0,0,0,314.72,0l-.28,0-.5,0H40.16a7.63,7.63,0,0,0-4.72,1.63L3,27l-.2.17-.24.21-.26.25a6,6,0,0,0-.42.46A7.32,7.32,0,0,0,.72,29.81c-.09.2-.18.4-.25.6a2.53,2.53,0,0,0-.12.36A7.59,7.59,0,0,0,0,33.05V306.83a7.67,7.67,0,0,0,7.67,7.67H281.44l.63,0a4.6,4.6,0,0,0,.52-.06h0l.35-.06a8.45,8.45,0,0,0,1.12-.32l.43-.17a8,8,0,0,0,1.66-1l.15-.12,32.35-25.26a7.66,7.66,0,0,0,2.95-6V7.67Q321.61,7.36,321.58,7ZM273.77,299.16H15.33V40.71H273.77Zm5-273.78H29.93l12.87-10H291.67Zm27.48,252.33L289.1,291.12V36.79l17.18-13.41Z"/><path class="cls-1" d="M198,125.92a2.49,2.49,0,0,1-.24,1.07,2.45,2.45,0,0,1-3.27,1.13,2.44,2.44,0,0,1-1.13-3.26,2.44,2.44,0,0,1,2.2-1.38,2.44,2.44,0,0,1,2.31,1.64A2.44,2.44,0,0,1,198,125.92Z"/><path class="cls-1" d="M190.58,105a3.11,3.11,0,0,1-2.08,2.93,3.09,3.09,0,0,1-3.93-1.91,3,3,0,0,1,.13-2.36,3.06,3.06,0,0,1,1.77-1.58,3.26,3.26,0,0,1,1-.17,3.21,3.21,0,0,1,1.35.31,3.08,3.08,0,0,1,1.57,1.77A3.2,3.2,0,0,1,190.58,105Z"/><path class="cls-1" d="M194.56,116.7h0a2.47,2.47,0,0,1-3.3,1.14,2.5,2.5,0,0,1-1.26-1.41,2.52,2.52,0,0,1,.11-1.89,2.46,2.46,0,0,1,3.3-1.15,2.47,2.47,0,0,1,1.15,3.3Z"/><path class="cls-1" d="M170.19,90.76a8,8,0,1,1-3.7-10.64A7.93,7.93,0,0,1,170.19,90.76Z"/><path class="cls-1" d="M184,95.48a4.05,4.05,0,1,1-3.64-5.82,4,4,0,0,1,1.76.41A4.06,4.06,0,0,1,184,95.48Z"/><path d="M201.27,124a6,6,0,0,0-3.05-3.43,6.1,6.1,0,0,0-1.72-.53,5.78,5.78,0,0,0,1.27-1.73,6,6,0,0,0-5.51-8.67,6.3,6.3,0,0,0,1.22-1.72,6.66,6.66,0,0,0-3.09-8.9,6.57,6.57,0,0,0-4-.56,7.6,7.6,0,0,0-2.68-11.55,7.63,7.63,0,0,0-9.24,2.06,11.49,11.49,0,1,0-1.69,4.57,7.61,7.61,0,0,0,4.29,7.08,7.47,7.47,0,0,0,5,.57,6.65,6.65,0,0,0,2.54,9.82,6.65,6.65,0,0,0,2.89.67h.35a5.63,5.63,0,0,0-.92,1.38,6,6,0,0,0,2.8,8.06,5.68,5.68,0,0,0,1.73.53,6,6,0,0,0,1.54,9.74,5.93,5.93,0,0,0,2.61.6,6,6,0,0,0,5.68-8ZM170.19,90.76a8,8,0,1,1-3.7-10.64A7.93,7.93,0,0,1,170.19,90.76Zm8.39,6.61a4.06,4.06,0,0,1,1.78-7.71,4,4,0,0,1,1.76.41,4.06,4.06,0,0,1-3.54,7.3Zm9.92,10.52a3.09,3.09,0,0,1-3.93-1.91,3,3,0,0,1,.13-2.36,3.06,3.06,0,0,1,1.77-1.58,3.26,3.26,0,0,1,1-.17,3.21,3.21,0,0,1,1.35.31,3.08,3.08,0,0,1,1.57,1.77,3.2,3.2,0,0,1,.17,1,3.11,3.11,0,0,1-2.08,2.93Zm2.76,10a2.5,2.5,0,0,1-1.26-1.41,2.52,2.52,0,0,1,.11-1.89,2.46,2.46,0,0,1,3.3-1.15,2.47,2.47,0,0,1,1.15,3.3h0a2.47,2.47,0,0,1-3.3,1.14ZM197.8,127a2.45,2.45,0,0,1-3.27,1.13,2.44,2.44,0,0,1-1.13-3.26,2.44,2.44,0,0,1,2.2-1.38,2.44,2.44,0,0,1,2.31,1.64,2.44,2.44,0,0,1,.13.8A2.49,2.49,0,0,1,197.8,127Z"/><path class="cls-2" d="M186.4,143.93a36.2,36.2,0,0,1-4,9.51,115.49,115.49,0,0,1-7.4,10.74c-1.88,2.53-3.78,5.08-5.37,7.54-8.37,12.91-18.88,30.24-26,49.8-1.47,4-4.4,9.33-10.06,11.52a16.87,16.87,0,0,1-6,1.09,24,24,0,0,1-10.42-2.65,15.39,15.39,0,0,1-8.41-9.2c-1.6-4.88-.77-11,2.27-16.8,3.5-6.63,8.64-11.71,14.07-17.08,5-5,10.17-10.05,13.65-16.3,4.26-7.62,5.4-15.87,3.13-22.65-.45-1.37-1-2.67-1.49-3.93l-.09-.22a41.09,41.09,0,0,1-2.24-6.67,32.25,32.25,0,0,1-.13-13.34c1.27-6.29,4.62-14.72,13.44-19.14a17.38,17.38,0,0,1,7.85-1.74,29.15,29.15,0,0,1,18.35,7.24C185.51,118.8,189.25,132.37,186.4,143.93Z"/><path d="M178.8,110.22c-9.3-8.33-21.54-9.19-28.34-5.78-7.52,3.77-12.52,10.85-14.46,20.47a34.16,34.16,0,0,0,.14,14.13,42.14,42.14,0,0,0,2.39,7.12c.51,1.25,1,2.55,1.49,3.89,2.06,6.18.94,14.08-3,21.11-3.36,6-8.2,10.82-13.33,15.88-5.3,5.24-10.78,10.66-14.41,17.55-3.34,6.34-4.19,12.84-2.4,18.3a17.5,17.5,0,0,0,9.39,10.31,25.91,25.91,0,0,0,11.24,2.86,18.56,18.56,0,0,0,6.74-1.24c5-1.93,8.89-6.3,11.18-12.65,7-19.35,17.43-36.57,25.75-49.41,1.58-2.43,3.39-4.86,5.31-7.44A119.2,119.2,0,0,0,184,154.41a38.06,38.06,0,0,0,4.24-10C191.31,132,187.42,117.93,178.8,110.22Zm4.85,33a33.55,33.55,0,0,1-3.74,8.77,114,114,0,0,1-7.22,10.46c-1.88,2.53-3.82,5.14-5.48,7.7-8.46,13-19.08,30.57-26.24,50.38-1.26,3.49-3.74,8-8.41,9.83-4.14,1.58-8.92,1.09-14.21-1.46a12.71,12.71,0,0,1-6.95-7.53c-1.36-4.16-.6-9.48,2.09-14.6,3.29-6.23,8.27-11.16,13.55-16.38s10.45-10.32,14.14-16.94c4.64-8.31,5.86-17.39,3.34-24.93-.49-1.48-1.05-2.85-1.59-4.18a39.11,39.11,0,0,1-2.15-6.34,29.42,29.42,0,0,1-.12-12.18c1.14-5.67,4.14-13.26,11.93-17.17a14.71,14.71,0,0,1,6.58-1.44,26.2,26.2,0,0,1,16.46,6.52C182.88,120.25,186.26,132.65,183.65,143.25Z"/><path d="M47.33,118.62V133.3h15a5.67,5.67,0,1,1,0,11.34h-15v14.68h15a5.67,5.67,0,1,1,0,11.34h-15v14.67h15a5.67,5.67,0,1,1,0,11.34h-15v14.68h15a5.67,5.67,0,1,1,0,11.34h-15v14.68h15a5.67,5.67,0,1,1,0,11.34h-15v5.15a5.67,5.67,0,0,1-11.34,0V71.54a5.67,5.67,0,0,1,11.34,0V82.85h15a5.67,5.67,0,1,1,0,11.34h-15v13.09h15a5.67,5.67,0,1,1,0,11.34Z"/><path d="M257.63,274.18a5.67,5.67,0,0,1-5.67,5.67H69.65a5.67,5.67,0,1,1,0-11.34H81v-15a5.67,5.67,0,1,1,11.33,0v15h13.1v-15a5.67,5.67,0,0,1,11.34,0v15h14.68v-15a5.67,5.67,0,1,1,11.33,0v15h14.68v-15a5.67,5.67,0,1,1,11.34,0v15h14.68v-15a5.67,5.67,0,1,1,11.34,0v15h14.67v-15a5.67,5.67,0,0,1,11.34,0v15h14.68v-15a5.67,5.67,0,0,1,11.34,0v15H252A5.67,5.67,0,0,1,257.63,274.18Z"/></g></g></svg>