<svg xmlns="http://www.w3.org/2000/svg" viewBox="0 0 263.62 408.51"><defs><style>.cls-1{fill:#231f20;}.cls-2{fill:#fa2a62;}</style></defs><title>sneakerparijs</title><g id="Layer_2" data-name="Layer 2"><g id="Layer_2-2" data-name="Layer 2"><path class="cls-1" d="M38.73,401.75h0Z"/><path class="cls-2" d="M38.7,401.75Zm0,0Zm0,0Zm0,0Zm0,0Zm0,0Zm0,0Zm0,0Zm0,0Zm0,0Zm0,0Zm0,0Zm0,0Zm0,0Zm0,0Zm0,0Zm0,0Z"/><path class="cls-2" d="M84,393.74C70.54,396,55.1,397.9,41.14,397.9c-14.87,0-28.06-2.14-35.41-8.28l-.06-.06c-2.83,3.21-2.55,4.51-2.38,5.32.46,2.15,3.07,4.18,7.78,6a60.54,60.54,0,0,0,23.34,4.27h.78c.86,0,1.67,0,2.32.07.46,0,.94,0,1.42,0a68.94,68.94,0,0,0,14.5-2.12c4.75-1.52,13-2.17,13.88-2.24a114.57,114.57,0,0,0,15.32-2.16C84.27,397.74,84.22,395.2,84,393.74Z"/><path class="cls-2" d="M84.42,390.8l-.86.14c-49,8.25-68.26,2.79-75.82-3.34a14,14,0,0,1,3.58-.93l.22,0,.28-.05c.79-.14,1.56-.25,2.3-.35l.12,0a26.64,26.64,0,0,0,6.9-1.66l1.33-.56c4.37-1.83,8.89-3.72,13.25-5.91a94.87,94.87,0,0,0,11.39-6.74c1.32-.92,2.63-2,3.78-2.92a42.21,42.21,0,0,1,5.19-3.82l.14-.08c.94-.53,1.94-.1,2.84,1.23.41.62,1,1.4,1.67,2.23a33.14,33.14,0,0,0,4.75,5.08,1.79,1.79,0,0,0,.22.13,3.15,3.15,0,0,0,2.63.1l.55-.23A33.15,33.15,0,0,1,76.66,371h0a20.5,20.5,0,0,1,5.14-.13,2.59,2.59,0,0,1,.74.18,3.32,3.32,0,0,1,2.09,2.06,12.72,12.72,0,0,1,.55,2.4,27.43,27.43,0,0,1,.21,3.06C85.51,385.58,85.25,388.94,84.42,390.8Z"/><path class="cls-1" d="M224.89,401.75h0Z"/><path class="cls-1" d="M259.29,386.29c-1.46-2-4.46-2.47-6.47-2.79l-.22,0-.26,0c-.84-.15-1.63-.26-2.39-.37l-.12,0a23.35,23.35,0,0,1-6.11-1.44l-1.33-.56c-4.32-1.81-8.79-3.68-13-5.82a91,91,0,0,1-11-6.51c-1.22-.85-2.42-1.82-3.58-2.77a42.38,42.38,0,0,0-5.77-4.19,4.69,4.69,0,0,0-3.29-.55L182.36,315l-.08-14.39a2.83,2.83,0,0,0-2.83-2.82h-5.27l-14.8-55.33h.32a1.89,1.89,0,0,0,1.31-.54,1.87,1.87,0,0,0,.54-1.32l-.05-11a1.85,1.85,0,0,0-1.85-1.84h-4L143,38a2.84,2.84,0,0,0-2.83-2.65h-4.61V2.3A2.3,2.3,0,0,0,133.27,0h-3A2.3,2.3,0,0,0,128,2.3v33h-4.61A2.84,2.84,0,0,0,120.51,38L107.89,227.78h-4.08a1.85,1.85,0,0,0-1.85,1.85v11a1.85,1.85,0,0,0,1.85,1.85h.32l-14.8,55.33H84a2.84,2.84,0,0,0-2.84,2.84V315L57.82,361.17a4.67,4.67,0,0,0-3.2.57,42.38,42.38,0,0,0-5.77,4.19c-1.16.95-2.36,1.92-3.58,2.77a91,91,0,0,1-11,6.51c-4.26,2.14-8.73,4-13.05,5.82l-1.33.56A23.35,23.35,0,0,1,13.78,383l-.12,0c-.76.11-1.55.22-2.39.37l-.26,0-.22,0c-2,.32-5,.82-6.47,2.79-1.78,1.82-5.05,5.2-4.18,9.27.71,3.31,3.89,6,9.74,8.36a64,64,0,0,0,24.63,4.49c1,0,2,0,2.82.06.52,0,1.06,0,1.6,0a70.47,70.47,0,0,0,15.33-2.23l.12,0c4.39-1.41,12.29-2,13.18-2.11h0a109,109,0,0,0,16-2.29,2.2,2.2,0,0,0,.45-.17l0,0a6.59,6.59,0,0,0,3.24-5.51,13.39,13.39,0,0,0-.18-3.53c1.27-2.37,1.62-5.95,1.49-14.16a21.41,21.41,0,0,0-.93-6.46,6.61,6.61,0,0,0-4.09-4.07c4.5-11.87,16.77-32,48.16-32s43.69,20.2,48.18,32.07a6.58,6.58,0,0,0-4,4,21.41,21.41,0,0,0-.93,6.46c-.13,8.21.22,11.79,1.49,14.16a13.39,13.39,0,0,0-.18,3.53,6.59,6.59,0,0,0,3.24,5.51l0,0a2.2,2.2,0,0,0,.45.17,109,109,0,0,0,16,2.29h0c.89.07,8.79.7,13.18,2.11l.12,0a70.47,70.47,0,0,0,15.33,2.23c.54,0,1.08,0,1.6,0,.78-.05,1.8-.09,2.82-.06a64,64,0,0,0,24.63-4.49c5.85-2.32,9-5.05,9.74-8.36C264.34,391.49,261.07,388.11,259.29,386.29ZM126,41h11.53l12.42,186.77H113.57ZM110,242.45h43.51l14.8,55.33H149.76l-5.94-44a2.84,2.84,0,0,0-2.7-2.46l-9.25-.36h-.22l-9.26.36a2.84,2.84,0,0,0-2.7,2.46l-5.94,44H95.2Zm34,55.33H119.47L125,256.87l6.77-.27,6.76.27Zm-61.41,101a114.57,114.57,0,0,1-15.32,2.16c-.92.07-9.13.72-13.88,2.24a68.94,68.94,0,0,1-14.5,2.12c-.48,0-1,0-1.42,0-.65,0-1.46-.07-2.32-.07h-.78a60.54,60.54,0,0,1-23.34-4.27c-4.71-1.86-7.32-3.89-7.78-6-.17-.81-.45-2.11,2.38-5.32l.06.06c7.35,6.14,20.54,8.28,35.41,8.28,14,0,29.4-1.89,42.89-4.16C84.22,395.2,84.27,397.74,82.63,398.77Zm2-25.72a12.72,12.72,0,0,1,.55,2.4,27.43,27.43,0,0,1,.21,3.06c.12,7.07-.14,10.43-1,12.29l-.86.14c-49,8.25-68.26,2.79-75.82-3.34a14,14,0,0,1,3.58-.93l.22,0,.28-.05c.79-.14,1.56-.25,2.3-.35l.12,0a26.64,26.64,0,0,0,6.9-1.66l1.33-.56c4.37-1.83,8.89-3.72,13.25-5.91a94.87,94.87,0,0,0,11.39-6.74c1.32-.92,2.63-2,3.78-2.92a42.21,42.21,0,0,1,5.19-3.82l.14-.08c.94-.53,1.94-.1,2.84,1.23.41.62,1,1.4,1.67,2.23a33.14,33.14,0,0,0,4.75,5.08,1.79,1.79,0,0,0,.22.13,3.15,3.15,0,0,0,2.63.1l.55-.23A33.15,33.15,0,0,1,76.66,371h0a20.5,20.5,0,0,1,5.14-.13,2.59,2.59,0,0,1,.74.18A3.32,3.32,0,0,1,84.63,373.05Zm93.6-20.19c-7.24-10.32-21.18-22.63-46.48-22.63s-39.23,12.31-46.48,22.63a61.34,61.34,0,0,0-7.53,14.72,36.07,36.07,0,0,0-10.59,2.72,42.85,42.85,0,0,1-4.81-5.5l23.38-46.29h92.07l23.43,46.38a44.21,44.21,0,0,1-4.76,5.41,36,36,0,0,0-10.69-2.73A60.83,60.83,0,0,0,178.23,352.86Zm0,25.65a27.43,27.43,0,0,1,.21-3.06,12.72,12.72,0,0,1,.55-2.4,3.36,3.36,0,0,1,2-2,3.18,3.18,0,0,1,.82-.2,20.67,20.67,0,0,1,5,.12,33.29,33.29,0,0,1,7.88,2.14l.55.23a3.15,3.15,0,0,0,2.63-.1,1.79,1.79,0,0,0,.22-.13,33,33,0,0,0,4.69-5c.69-.86,1.3-1.67,1.73-2.31.9-1.33,1.9-1.76,2.84-1.23a41.54,41.54,0,0,1,5.33,3.9c1.15.94,2.46,2,3.78,2.92a94.87,94.87,0,0,0,11.39,6.74c4.36,2.19,8.88,4.08,13.25,5.91l1.33.56a26.64,26.64,0,0,0,6.9,1.66l.12,0c.74.1,1.51.21,2.3.35l.28.05.22,0a14,14,0,0,1,3.58.93c-7.56,6.13-26.85,11.59-75.82,3.34l-.86-.14C178.36,388.94,178.1,385.58,178.22,378.51Zm82.1,16.37c-.46,2.15-3.07,4.18-7.78,6a60.54,60.54,0,0,1-23.34,4.27h-.78c-.86,0-1.67,0-2.32.07-.46,0-.94,0-1.42,0a68.94,68.94,0,0,1-14.5-2.12c-4.75-1.52-13-2.17-13.88-2.24A114.57,114.57,0,0,1,181,398.77c-1.64-1-1.59-3.57-1.4-5,13.49,2.27,28.93,4.16,42.89,4.16,14.87,0,28.06-2.14,35.41-8.28l.06-.06C260.77,392.77,260.49,394.07,260.32,394.88Z"/><path class="cls-2" d="M224.89,401.75h0Zm0,0h0Zm0,0h0Zm0,0h0Zm0,0h0Zm0,0h0Zm0,0h0Zm0,0h0Zm0,0h0Zm0,0h0Zm0,0h0Zm0,0h0Zm0,0h0Zm0,0h0Zm0,0h0Zm0,0h0Zm0,0h0Z"/><path class="cls-2" d="M260.32,394.88c-.46,2.15-3.07,4.18-7.78,6a60.54,60.54,0,0,1-23.34,4.27h-.78c-.86,0-1.67,0-2.32.07-.46,0-.94,0-1.42,0a68.94,68.94,0,0,1-14.5-2.12c-4.75-1.52-13-2.17-13.88-2.24A114.57,114.57,0,0,1,181,398.77c-1.64-1-1.59-3.57-1.4-5,13.49,2.27,28.93,4.16,42.89,4.16,14.87,0,28.06-2.14,35.41-8.28l.06-.06C260.77,392.77,260.49,394.07,260.32,394.88Z"/><path class="cls-2" d="M255.87,387.6c-7.56,6.13-26.85,11.59-75.82,3.34l-.86-.14c-.83-1.86-1.09-5.22-1-12.29a27.43,27.43,0,0,1,.21-3.06,12.72,12.72,0,0,1,.55-2.4,3.36,3.36,0,0,1,2-2,3.18,3.18,0,0,1,.82-.2,20.67,20.67,0,0,1,5,.12,33.29,33.29,0,0,1,7.88,2.14l.55.23a3.15,3.15,0,0,0,2.63-.1,1.79,1.79,0,0,0,.22-.13,33,33,0,0,0,4.69-5c.69-.86,1.3-1.67,1.73-2.31.9-1.33,1.9-1.76,2.84-1.23a41.54,41.54,0,0,1,5.33,3.9c1.15.94,2.46,2,3.78,2.92a94.87,94.87,0,0,0,11.39,6.74c4.36,2.19,8.88,4.08,13.25,5.91l1.33.56a26.64,26.64,0,0,0,6.9,1.66l.12,0c.74.1,1.51.21,2.3.35l.28.05.22,0A14,14,0,0,1,255.87,387.6Z"/></g></g></svg>