<svg xmlns="http://www.w3.org/2000/svg" viewBox="0 0 271.2 168.61"><defs><style>.cls-1{fill:#fa2a62;stroke:#fa2a62;stroke-miterlimit:10;stroke-width:5.67px;}.cls-2{fill:#231f20;}</style></defs><title>spa</title><g id="Layer_2" data-name="Layer 2"><g id="Layer_2-2" data-name="Layer 2"><path class="cls-1" d="M208.17,70.62A88.25,88.25,0,0,1,205,86.1a89.43,89.43,0,0,1-46.08,54.47,103.06,103.06,0,0,0,18.64-57.73c0-.53,0-1,0-1.55a103.29,103.29,0,0,0-4.76-31.08,89.07,89.07,0,0,1,32.26-15A89.1,89.1,0,0,1,208.17,70.62Z"/><path class="cls-1" d="M112.33,140.6A89.49,89.49,0,0,1,66.22,86.1,87.53,87.53,0,0,1,63,70.62a88.91,88.91,0,0,1,3.1-35.45,89,89,0,0,1,32.26,15,103.27,103.27,0,0,0-4.76,31.07c0,.51,0,1,0,1.55a103,103,0,0,0,18.67,57.76Z"/><path class="cls-2" d="M266.58,74.63a103.71,103.71,0,0,0-36-6.46c-2.65,0-5.31.09-7.95.31a103.39,103.39,0,0,0-6.16-44A7.07,7.07,0,0,0,208.61,20a103.36,103.36,0,0,0-41.16,16.63,103.45,103.45,0,0,0-27.32-35,7.1,7.1,0,0,0-9,0,103.7,103.7,0,0,0-27.32,35A103.48,103.48,0,0,0,62.6,20a7.07,7.07,0,0,0-7.84,4.51,103.94,103.94,0,0,0-6.48,36.05c0,2.64.1,5.3.31,7.93a103.31,103.31,0,0,0-44,6.15A7.11,7.11,0,0,0,.1,82.48,103.37,103.37,0,0,0,135.61,163,103.43,103.43,0,0,0,271.1,82.48,7.09,7.09,0,0,0,266.58,74.63ZM57.45,142.44A89,89,0,0,1,15.29,86a88.89,88.89,0,0,1,35.45-3.09A103.64,103.64,0,0,0,108,154.23,88.87,88.87,0,0,1,57.45,142.44Zm17-37.32a89.08,89.08,0,0,1-8.22-19A87.53,87.53,0,0,1,63,70.62a88.91,88.91,0,0,1,3.1-35.45,89,89,0,0,1,32.26,15,103.27,103.27,0,0,0-4.76,31.07c0,.51,0,1,0,1.55a103,103,0,0,0,18.67,57.76A89,89,0,0,1,74.44,105.12Zm65.23,36.76a1.29,1.29,0,0,1-.19.21l-.4.44q-1.68,1.78-3.48,3.48c-1.19-1.13-2.35-2.28-3.47-3.47l-.41-.45a1.29,1.29,0,0,1-.19-.21,88.05,88.05,0,0,1-8.66-10.95,89.41,89.41,0,0,1-12.66-70.24c.62-2.64,1.37-5.26,2.23-7.82s1.72-4.82,2.75-7.16A89.15,89.15,0,0,1,135.6,16.55,89.17,89.17,0,0,1,156,45.71c1,2.34,1.94,4.72,2.74,7.16s1.62,5.18,2.24,7.82a89.48,89.48,0,0,1,2.39,20.6,88.86,88.86,0,0,1-23.72,60.59Zm36-40.59a103,103,0,0,0,1.92-18.45c0-.53,0-1,0-1.55a103.29,103.29,0,0,0-4.76-31.08,89.07,89.07,0,0,1,32.26-15,89.29,89.29,0,0,1-46.16,105.4A103.11,103.11,0,0,0,175.63,101.29Zm38.13,41.15a88.92,88.92,0,0,1-50.54,11.79,103.64,103.64,0,0,0,57.24-71.31A88.94,88.94,0,0,1,255.92,86,89,89,0,0,1,213.76,142.44Z"/></g></g></svg>