<svg xmlns="http://www.w3.org/2000/svg" viewBox="0 0 296.02 670.63"><defs><style>.cls-1,.cls-3{fill:#231f20;}.cls-2{fill:#fa2a62;}.cls-2,.cls-3{stroke:#fa2a62;stroke-linejoin:round;stroke-width:5.67px;}</style></defs><title>verfborstel</title><g id="Layer_2" data-name="Layer 2"><g id="Layer_2-2" data-name="Layer 2"><path class="cls-1" d="M210.08,216.6V57.28A57.34,57.34,0,0,0,152.8,0h-9.58A57.34,57.34,0,0,0,85.94,57.28V216.6A136.61,136.61,0,0,0,0,343.33v307a20.3,20.3,0,0,0,20.28,20.28H43.34a20.16,20.16,0,0,0,11.71-3.73,20.16,20.16,0,0,0,11.71,3.73H89.82a20.16,20.16,0,0,0,11.71-3.73,20.16,20.16,0,0,0,11.71,3.73H136.3A20.16,20.16,0,0,0,148,666.9a20.16,20.16,0,0,0,11.71,3.73h23.06a20.16,20.16,0,0,0,11.71-3.73,20.16,20.16,0,0,0,11.71,3.73h23.06A20.16,20.16,0,0,0,241,666.9a20.16,20.16,0,0,0,11.71,3.73h23.06A20.3,20.3,0,0,0,296,650.35v-307A136.61,136.61,0,0,0,210.08,216.6ZM102.94,57.28A40.32,40.32,0,0,1,143.22,17h9.58a40.32,40.32,0,0,1,40.28,40.27v153.8a135.79,135.79,0,0,0-33.47-4.16h-23.2a135.79,135.79,0,0,0-33.47,4.16ZM46.61,650.35a3,3,0,0,1-.11.79,3.32,3.32,0,0,1-3.16,2.49H20.28A3.32,3.32,0,0,1,17,650.35V481.54q.91.09,1.86.09H46.61Zm46.48,0a3,3,0,0,1-.11.79,3.32,3.32,0,0,1-3.16,2.49H66.76a3.32,3.32,0,0,1-3.16-2.49,3,3,0,0,1-.11-.79V481.63h29.6Zm46.48,0a3,3,0,0,1-.11.79,3.32,3.32,0,0,1-3.16,2.49H113.24a3.32,3.32,0,0,1-3.16-2.49,3,3,0,0,1-.11-.79V481.63h29.6Zm46.48,0a3,3,0,0,1-.11.79,3.32,3.32,0,0,1-3.16,2.49H159.72a3.32,3.32,0,0,1-3.16-2.49,3,3,0,0,1-.11-.79V481.63h29.6Zm46.48,0a3,3,0,0,1-.11.79,3.32,3.32,0,0,1-3.16,2.49H206.2a3.32,3.32,0,0,1-3.16-2.49,3,3,0,0,1-.11-.79V481.63h29.6Zm46.48,0a3.32,3.32,0,0,1-3.27,3.28H252.68a3.32,3.32,0,0,1-3.16-2.49,3,3,0,0,1-.11-.79V481.63h27.74q.94,0,1.86-.09Zm0-187.58a1.88,1.88,0,0,1-1.86,1.85H18.87A1.88,1.88,0,0,1,17,462.77v-43H279Zm0-60H17V343.33a119.55,119.55,0,0,1,68.93-108.2,115.73,115.73,0,0,1,17-6.43,118.91,118.91,0,0,1,33.47-4.78h23.2a118.91,118.91,0,0,1,33.47,4.78,115.73,115.73,0,0,1,17,6.43A119.55,119.55,0,0,1,279,343.33Z"/><path class="cls-1" d="M148,41.49a24,24,0,1,0,24,24A24,24,0,0,0,148,41.49Zm0,33.86a9.85,9.85,0,1,1,9.85-9.85A9.85,9.85,0,0,1,148,75.35Z"/><path class="cls-2" d="M46.61,481.63V650.35a3,3,0,0,1-.11.79,3.32,3.32,0,0,1-3.16,2.49H20.28A3.32,3.32,0,0,1,17,650.35V481.54q.91.09,1.86.09Z"/><path class="cls-3" d="M63.49,481.63V650.35a3,3,0,0,0,.11.79c0-.26,0-.52,0-.79V481.63Z"/><path class="cls-2" d="M93.09,481.63V650.35a3,3,0,0,1-.11.79,3.32,3.32,0,0,1-3.16,2.49H66.76a3.32,3.32,0,0,1-3.16-2.49,3,3,0,0,1-.11-.79V481.63Z"/><path class="cls-3" d="M110,481.63V650.35a3,3,0,0,0,.11.79c0-.26,0-.52,0-.79V481.63Zm-63.49,0V650.35c0,.27,0,.53,0,.79a3,3,0,0,0,.11-.79V481.63Z"/><path class="cls-2" d="M139.57,481.63V650.35a3,3,0,0,1-.11.79,3.32,3.32,0,0,1-3.16,2.49H113.24a3.32,3.32,0,0,1-3.16-2.49,3,3,0,0,1-.11-.79V481.63Z"/><path class="cls-3" d="M93,481.63V650.35c0,.27,0,.53,0,.79a3,3,0,0,0,.11-.79V481.63Zm63.49,0V650.35a3,3,0,0,0,.11.79c0-.26,0-.52,0-.79V481.63Z"/><path class="cls-2" d="M186.05,481.63V650.35a3,3,0,0,1-.11.79,3.32,3.32,0,0,1-3.16,2.49H159.72a3.32,3.32,0,0,1-3.16-2.49,3,3,0,0,1-.11-.79V481.63Z"/><path class="cls-3" d="M202.93,481.63V650.35a3,3,0,0,0,.11.79c0-.26,0-.52,0-.79V481.63Zm-63.49,0V650.35c0,.27,0,.53,0,.79a3,3,0,0,0,.11-.79V481.63Z"/><path class="cls-2" d="M232.53,481.63V650.35a3,3,0,0,1-.11.79,3.32,3.32,0,0,1-3.16,2.49H206.2a3.32,3.32,0,0,1-3.16-2.49,3,3,0,0,1-.11-.79V481.63Z"/><path class="cls-3" d="M185.92,481.63V650.35c0,.27,0,.53,0,.79a3,3,0,0,0,.11-.79V481.63Zm63.49,0V650.35a3,3,0,0,0,.11.79c0-.26,0-.52,0-.79V481.63Z"/><path class="cls-2" d="M279,481.54V650.35a3.32,3.32,0,0,1-3.27,3.28H252.68a3.32,3.32,0,0,1-3.16-2.49,3,3,0,0,1-.11-.79V481.63h27.74Q278.09,481.63,279,481.54Z"/><path class="cls-3" d="M232.4,481.63V650.35c0,.27,0,.53,0,.79a3,3,0,0,0,.11-.79V481.63Z"/></g></g></svg>