<svg xmlns="http://www.w3.org/2000/svg" viewBox="0 0 114.12 191.28"><defs><style>.cls-1,.cls-2{fill:none;stroke:#231f20;stroke-miterlimit:10;}.cls-1{stroke-width:4.25px;}.cls-2{stroke-width:5.67px;}</style></defs><title>voetafdruk</title><g id="Layer_2" data-name="Layer 2"><g id="Layer_4" data-name="Layer 4"><circle class="cls-1" cx="68.07" cy="13.75" r="11.63"/><circle class="cls-1" cx="88.75" cy="21.43" r="6.97"/><circle class="cls-1" cx="97.27" cy="34.85" r="5.82"/><circle class="cls-1" cx="103.05" cy="47.57" r="5.08"/><circle class="cls-1" cx="106.94" cy="59.86" r="5.04"/><path class="cls-2" d="M90.67,92.43c-4.46,7.65-10.69,14.78-15.23,21.79-12.31,19-23.31,38.2-31,59.54-2.13,5.9-5.83,11.16-11.69,13.41-4.72,1.81-11.07,2.1-19.2-1.84-12.44-6-12.93-19.16-7.08-30.27,8.11-15.39,24.5-24.47,33.08-39.83,4.54-8.13,6.79-18.44,3.77-27.47-1.48-4.46-3.52-8.16-4.54-12.85a37.88,37.88,0,0,1-.16-15.69c1.94-9.64,6.82-18,15.75-22.47,9.67-4.85,23-.37,30.66,6.48,10.07,9,13.59,25.11,10.43,38A42.78,42.78,0,0,1,90.67,92.43Z"/></g></g></svg>