<svg xmlns="http://www.w3.org/2000/svg" viewBox="0 0 393.31 364.19"><defs><style>.cls-1{fill:#231f20;}.cls-2{fill:#fa2a62;}</style></defs><title>vulkaanverhalen</title><g id="Layer_2" data-name="Layer 2"><g id="Layer_1-2" data-name="Layer 1"><path class="cls-1" d="M146.13,245h-.23l1,.07Z"/><path class="cls-2" d="M232.5,226.43c0,6.81-2.31,13.53-6.69,18.09a51.85,51.85,0,0,1-23.58,14.08,17.18,17.18,0,0,1-11.39-.83A165.38,165.38,0,0,0,173,251.39c-.86-.25-1.71-.5-2.56-.72A128.65,128.65,0,0,0,152.19,247c-2.07-.25-4.06-.45-6-.58l-1.05-.07-.33,0-1.44-.07c-1.58-.08-3.09-.11-4.55-.11-2.15,0-4.15.06-6,.19l-1.35.09q-1.53.14-2.91.3l-.92.11c-2,.24-3.69.55-5.2.86-10.94,2.25-18-1.1-22.34-10.54a33.43,33.43,0,0,1-1-23.65c3.16-9.63,10.52-15.86,18.75-15.86H205.8a24.1,24.1,0,0,1,12.91,3.89,31.76,31.76,0,0,1,10.34,11.21A28.19,28.19,0,0,1,232.5,226.43Z"/><path class="cls-1" d="M316.75,342.85,232.71,193a11.15,11.15,0,0,0-9.7-5.67H104.94a10.77,10.77,0,0,0-9.16,5.08L2.13,342.71A14.11,14.11,0,0,0,1.75,357a13.81,13.81,0,0,0,12.15,7.23H304.45a14.1,14.1,0,0,0,12.18-7.09A14.28,14.28,0,0,0,316.75,342.85ZM102.08,213.73c3-9.17,10-15.1,17.86-15.1h83.71a23,23,0,0,1,12.29,3.7A30.19,30.19,0,0,1,225.79,213a26.83,26.83,0,0,1,3.29,13.05c0,6.48-2.2,12.88-6.38,17.23a49.43,49.43,0,0,1-22.45,13.41,16.4,16.4,0,0,1-10.85-.79,156,156,0,0,0-17-6.08c-.82-.24-1.63-.48-2.44-.69a123.63,123.63,0,0,0-17.41-3.51c-2-.24-3.87-.43-5.69-.55l-1-.07-.31,0-1.37-.07c-1.51-.07-2.95-.1-4.34-.1q-3.06,0-5.73.18l-1.29.09c-1,.08-1.89.18-2.77.28l-.87.11c-1.87.23-3.52.52-5,.82-10.42,2.14-17.18-1.05-21.27-10A31.84,31.84,0,0,1,102.08,213.73ZM49.87,287.51l2.31-3.71,10.63-17.06,26.29-42.2c0,.09,0,.17,0,.26s0,.42,0,.63,0,.52,0,.77,0,.74.07,1.11,0,.61.08.92a2.45,2.45,0,0,0,0,.27c0,.3.07.6.11.91s.11.83.17,1.23l.12.7c0,.21.07.42.11.62s.14.7.21,1l.18.8c0,.19.09.37.14.56s.11.46.18.69A39.21,39.21,0,0,0,92.67,241C99,254.76,111,260.6,126.54,257.4c22.61-4.65,48.4,4.71,58.44,9a28.13,28.13,0,0,0,11,2.27,27.11,27.11,0,0,0,7.3-1,61.05,61.05,0,0,0,13-5.27,60.41,60.41,0,0,0,14.63-11.2,30.53,30.53,0,0,0,2-2.36c.18-.22.34-.44.49-.66a5.79,5.79,0,0,0,.43-.58c.19-.25.36-.51.52-.77s.38-.56.55-.85a1,1,0,0,0,.12-.19c.23-.37.45-.74.65-1.12.11-.18.21-.36.31-.55a4.37,4.37,0,0,0,.22-.43c.18-.33.35-.67.51-1,.27-.55.52-1.11.75-1.67.17-.41.34-.83.49-1.25s.33-.89.47-1.34.25-.75.36-1.14a1.81,1.81,0,0,0,.09-.31c.11-.38.22-.76.31-1.15.05-.18.09-.35.13-.52s.13-.53.18-.8c.1-.44.19-.88.26-1.33a1.16,1.16,0,0,0,0-.18c.07-.41.14-.83.19-1.25.11-.7.19-1.4.26-2.1l66.6,118.8a3,3,0,0,1,0,3,2.79,2.79,0,0,1-2.44,1.44H13.94a2.52,2.52,0,0,1-2.25-1.36,2.71,2.71,0,0,1,.06-2.79L39.63,304Z"/><path class="cls-1" d="M328,0H210.25A65.42,65.42,0,0,0,144.9,65.34V68.8a65.47,65.47,0,0,0,42.56,61.25l-18,37A7.08,7.08,0,0,0,179,176.5l84.69-42.35H328A65.43,65.43,0,0,0,393.31,68.8V65.34A65.42,65.42,0,0,0,328,0Zm51.17,68.8A51.22,51.22,0,0,1,328,120H260.38l-14.18,7.09L232,134.15l-40.67,20.34,10.17-20.93,3.29-6.76,3.34-6.88A51.1,51.1,0,0,1,159.08,68.8V65.34a51.22,51.22,0,0,1,51.17-51.17H328a51.22,51.22,0,0,1,51.17,51.17Z"/></g></g></svg>