<svg xmlns="http://www.w3.org/2000/svg" viewBox="0 0 318.59 331.51"><defs><style>.cls-1{fill:#231f20;}.cls-2{fill:#fa2a62;}</style></defs><title>vulkaan_1</title><g id="Layer_2" data-name="Layer 2"><g id="Layer_1-2" data-name="Layer 1"><path class="cls-1" d="M146.13,212.34h-.23l1,.07Z"/><path class="cls-2" d="M232.5,193.75c0,6.8-2.31,13.52-6.69,18.09a51.94,51.94,0,0,1-23.58,14.08,17.24,17.24,0,0,1-11.39-.83A161.17,161.17,0,0,0,173,218.71c-.86-.26-1.71-.51-2.56-.73a128.52,128.52,0,0,0-18.28-3.68c-2.07-.26-4.06-.46-6-.58l-1.05-.07a1.84,1.84,0,0,0-.33,0l-1.44-.07c-1.58-.07-3.09-.1-4.55-.1-2.15,0-4.15.06-6,.18l-1.35.1c-1,.08-2,.19-2.91.29l-.92.12c-2,.24-3.69.54-5.2.86-10.94,2.25-18-1.1-22.34-10.54a33.46,33.46,0,0,1-1-23.66c3.16-9.63,10.52-15.85,18.75-15.85H205.8a24.09,24.09,0,0,1,12.91,3.88,31.79,31.79,0,0,1,10.34,11.22A28.13,28.13,0,0,1,232.5,193.75Z"/><path class="cls-1" d="M164.29,112.66a12.64,12.64,0,1,1-12.64,12.64,12.63,12.63,0,0,1,12.64-12.64Zm0-9.92a22.56,22.56,0,1,0,22.55,22.56,22.59,22.59,0,0,0-22.55-22.56Z"/><path class="cls-1" d="M213.81,68.24A19.75,19.75,0,1,1,194.06,88a19.75,19.75,0,0,1,19.75-19.75Zm0-9.92A29.67,29.67,0,1,0,243.48,88a29.7,29.7,0,0,0-29.67-29.67Z"/><path class="cls-1" d="M275.69,9.92A28.66,28.66,0,1,1,247,38.58,28.66,28.66,0,0,1,275.69,9.92Zm0-9.92a38.58,38.58,0,1,0,38.58,38.58A38.63,38.63,0,0,0,275.69,0Z"/><path class="cls-1" d="M316.75,310.17l-84-149.89a11.15,11.15,0,0,0-9.7-5.67H104.94a10.77,10.77,0,0,0-9.16,5.08L2.13,310a14.11,14.11,0,0,0-.38,14.25,13.81,13.81,0,0,0,12.15,7.23H304.45a14.1,14.1,0,0,0,12.18-7.09A14.28,14.28,0,0,0,316.75,310.17ZM102.08,181.05c3-9.17,10-15.1,17.86-15.1h83.71a23,23,0,0,1,12.29,3.7,30.19,30.19,0,0,1,9.85,10.68,26.83,26.83,0,0,1,3.29,13c0,6.48-2.2,12.88-6.38,17.23A49.43,49.43,0,0,1,200.25,224a16.4,16.4,0,0,1-10.85-.79,156,156,0,0,0-17-6.08c-.82-.24-1.63-.48-2.44-.69A123.63,123.63,0,0,0,152.59,213c-2-.24-3.87-.43-5.69-.55l-1-.07-.31,0-1.37-.07c-1.51-.07-2.95-.1-4.34-.1q-3.06,0-5.73.18l-1.29.09c-1,.08-1.89.18-2.77.28l-.87.11c-1.87.23-3.52.52-5,.82-10.42,2.14-17.18-1.05-21.27-10A31.84,31.84,0,0,1,102.08,181.05ZM49.87,254.83l2.31-3.71,10.63-17.06,26.29-42.2c0,.09,0,.17,0,.26s0,.42,0,.63,0,.52,0,.77,0,.74.07,1.11,0,.61.08.92a2.45,2.45,0,0,0,0,.27c0,.3.07.6.11.91s.11.83.17,1.23l.12.7c0,.21.07.42.11.62.06.35.14.7.21,1l.18.8c0,.19.09.37.14.56s.11.46.18.69a39.21,39.21,0,0,0,2.12,5.91c6.29,13.8,18.32,19.64,33.87,16.44,22.61-4.65,48.4,4.71,58.44,8.95a28.13,28.13,0,0,0,11,2.27,27.11,27.11,0,0,0,7.3-1,61.05,61.05,0,0,0,13-5.27,60.41,60.41,0,0,0,14.63-11.2,30.53,30.53,0,0,0,2-2.36c.18-.22.34-.44.49-.66a5.79,5.79,0,0,0,.43-.58c.19-.25.36-.51.52-.77s.38-.56.55-.85a1,1,0,0,0,.12-.19c.23-.37.45-.74.65-1.12.11-.18.21-.36.31-.55a4.37,4.37,0,0,0,.22-.43c.18-.33.35-.67.51-1,.27-.55.52-1.11.75-1.67.17-.41.34-.83.49-1.25s.33-.89.47-1.34.25-.75.36-1.14a1.81,1.81,0,0,0,.09-.31c.11-.38.22-.76.31-1.15.05-.18.09-.35.13-.52s.13-.53.18-.8c.1-.44.19-.88.26-1.33a1.16,1.16,0,0,0,0-.18c.07-.41.14-.83.19-1.25.11-.7.19-1.4.26-2.1l66.6,118.8a3,3,0,0,1,0,3,2.79,2.79,0,0,1-2.44,1.44H13.94a2.52,2.52,0,0,1-2.25-1.36,2.71,2.71,0,0,1,.06-2.79l27.88-44.75Z"/></g></g></svg>