<svg xmlns="http://www.w3.org/2000/svg" viewBox="0 0 171.77 472.17"><defs><style>.cls-1{fill:#fa2a62;stroke:#fa2a62;stroke-miterlimit:10;stroke-width:5.67px;}.cls-2{fill:#231f20;}</style></defs><title>waterfles</title><g id="Layer_2" data-name="Layer 2"><g id="Layer_2-2" data-name="Layer 2"><rect class="cls-1" x="50.65" y="14.17" width="70.48" height="27.8"/><path class="cls-2" d="M171.57,116.29v0a17.44,17.44,0,0,0-.66-2.9,5,5,0,0,0-.31-.61l-4.08-6.92L134.3,51.17a16.51,16.51,0,0,0-1-1.54,13.53,13.53,0,0,0,2-7.16V13.68A13.69,13.69,0,0,0,121.62,0H50.15A13.69,13.69,0,0,0,36.47,13.68V42.47a13.54,13.54,0,0,0,2,7.16,14.83,14.83,0,0,0-1,1.54L5.28,105.79l-4.11,7a5.71,5.71,0,0,0-.31.6,17.44,17.44,0,0,0-.66,2.9v0A19.14,19.14,0,0,0,0,119V417.76a19.26,19.26,0,0,0,3.27,10.75l0,0a3.24,3.24,0,0,0,.21.35L14.05,445a60,60,0,0,0,50.34,27.2h43A60,60,0,0,0,157.73,445l10.54-16.08c.14-.21.27-.42.39-.64l0,0a19.08,19.08,0,0,0,3.09-10.45V119A19.14,19.14,0,0,0,171.57,116.29ZM50.65,14.17h70.48V42H50.65ZM49.46,58.24a3.29,3.29,0,0,1,2.81-1.61H119.5a3.27,3.27,0,0,1,2.81,1.61l24.47,41.5H25ZM146,437.05l-.1.15A45.9,45.9,0,0,1,107.38,458h-43A45.87,45.87,0,0,1,25.9,437.2l-.1-.15-7-10.64H153Zm11.47-24.81H14.33V119a5,5,0,0,1,5-5H152.48a5,5,0,0,1,5,5Z"/></g></g></svg>