<?xml version="1.0" encoding="utf-8"?>
<!-- Generator: Adobe Illustrator 23.0.4, SVG Export Plug-In . SVG Version: 6.00 Build 0)  -->
<svg version="1.1" id="Layer_1" xmlns="http://www.w3.org/2000/svg" xmlns:xlink="http://www.w3.org/1999/xlink" x="0px" y="0px"
	 viewBox="0 0 63.7 57" style="enable-background:new 0 0 63.7 57;" xml:space="preserve">
<style type="text/css">
	.st0{fill-rule:evenodd;clip-rule:evenodd;fill:#FFFFFF;}
	.st1{fill:#FB2A63;}
	.st2{fill:#19B1E3;}
	.st3{enable-background:new    ;}
</style>
<ellipse id="circle" class="st0" cx="34.5" cy="29" rx="25.5" ry="25"/>
<g id="shadows" transform="translate(-2 -18)">
	<path id="G" class="st1" d="M28.6,45.5h-6.1v-7h14v19.9c-4.1,3.1-8.8,4.7-14,4.7c-5.5,0-9.7-1.9-12.5-5.7
		c-2.8-3.8-4.2-9.3-4.2-16.7c0-7.4,1.4-13,4.2-16.9c2.8-3.8,6.9-5.8,12.2-5.8c4,0,7.2,1.1,9.6,3.3c2.3,2.2,3.8,5.1,4.5,9.5l-8.8,1.1
		c-0.4-2.3-0.7-3.6-1.6-4.7s-2.3-1.6-3.9-1.6c-2.6,0-4.4,1.2-5.6,3.5c-1.2,2.4-1.7,6.1-1.7,11.3c0,5.2,0.7,9.1,2,11.4
		c1.3,2.4,3.4,3.6,6.4,3.6c2.1,0,4-0.5,5.7-1.4V45.5z"/>
	<path id="g" class="st2" d="M57.8,56.7c-0.9,1.4-1.9,2.4-3.1,3.1c-1.2,0.7-2.5,1.1-3.8,1.1c-3,0-5.4-1.3-7.1-4
		c-1.7-2.7-2.5-6.4-2.5-11.3c0-5,0.9-8.9,2.6-11.7c1.8-2.8,4.2-4.2,7.3-4.2c1.3,0,2.5,0.4,3.7,1.1s2.2,1.7,3.1,3v-3.1h7.7v29.8
		c0,4.5-1,7.9-3.1,10.3c-2.1,2.4-5.1,3.5-9.1,3.5c-3.7,0-6.5-0.8-8.4-2.5c-1.9-1.7-3-4.3-3.2-7.9h7.7c0.2,1.5,0.7,2.6,1.3,3.2
		c0.6,0.6,1.6,1,2.9,1c1.4,0,2.4-0.5,3.1-1.6c0.6-1,1-2.7,1-5V56.7z M57.9,44.3c0-2.9-0.4-5-1-6.4c-0.7-1.4-1.8-2.1-3.2-2.1
		c-1.5,0-2.6,0.8-3.3,2.3c-0.7,1.5-1,3.9-1,7.2c0,3.3,0.3,5.7,1,7.2c0.7,1.5,1.8,2.3,3.3,2.3c1.4,0,2.5-0.7,3.2-2.1
		c0.7-1.4,1-3.5,1-6.4V44.3z"/>
</g>
<g id="letters">
	<path id="G_1_" class="st2" d="M23.3,27.5h-6.1v-7h14v19.9c-4.1,3.1-8.8,4.7-14,4.7c-5.5,0-9.7-1.9-12.5-5.7
		c-2.8-3.8-4.2-9.3-4.2-16.7c0-7.4,1.4-13,4.2-16.9C7.4,2,11.5,0.1,16.8,0.1c4,0,7.2,1.1,9.6,3.3c2.3,2.2,3.9,5.5,4.5,9.9l-8.4,1
		c-0.4-2.3-1.1-4-2.1-5s-2.3-1.6-3.9-1.6c-2.6,0-4.4,1.2-5.6,3.5c-1.2,2.4-1.7,6.1-1.7,11.3c0,5.2,0.7,9.1,2,11.4
		c1.3,2.4,3.4,3.6,6.4,3.6c2.1,0,4-0.5,5.7-1.4V27.5z"/>
	<g class="st3">
		<path class="st1" d="M52.2,38.7c-0.9,1.4-1.9,2.4-3.1,3.1c-1.2,0.7-2.5,1.1-3.8,1.1c-3,0-5.4-1.3-7.1-4c-1.7-2.7-2.5-6.4-2.5-11.3
			c0-5,0.9-8.9,2.6-11.7c1.8-2.8,4.2-4.2,7.3-4.2c1.3,0,2.5,0.4,3.7,1.1s2.2,1.7,3.1,3v-3.1h7.7v29.8c0,4.5-1,7.9-3.1,10.3
			s-5.1,3.5-9.1,3.5c-3.7,0-6.5-0.8-8.4-2.5c-1.9-1.7-3-4.3-3.2-7.9H44c0.2,1.5,0.7,2.6,1.3,3.2c0.6,0.6,1.6,1,2.9,1
			c1.4,0,2.4-0.5,3.1-1.6c0.6-1,1-2.7,1-5V38.7z M52.3,26.3c0-2.9-0.4-5-1-6.4c-0.7-1.4-1.8-2.1-3.2-2.1c-1.5,0-2.6,0.8-3.3,2.3
			c-0.7,1.5-1,3.9-1,7.2c0,3.3,0.3,5.7,1,7.2c0.7,1.5,1.8,2.3,3.3,2.3c1.4,0,2.5-0.7,3.2-2.1c0.7-1.4,1-3.5,1-6.4V26.3z"/>
	</g>
</g>
</svg>
