<svg xmlns="http://www.w3.org/2000/svg" viewBox="0 0 20.33 26.21"><defs><style>.cls-1{fill:#FFFFFF;}</style></defs><title>ticketsicon</title><g id="Layer_2" data-name="Layer 2"><g id="Layer_1-2" data-name="Layer 1"><path class="cls-1" d="M20.28,5.28,11.43,25.83a.63.63,0,0,1-.83.33l-2.15-.93a.62.62,0,0,1-.37-.71A2.65,2.65,0,0,0,3.3,22.47a.65.65,0,0,1-.77.22L.38,21.76a.63.63,0,0,1-.33-.83L8.91.38A.63.63,0,0,1,9.74.05L11.89,1a.65.65,0,0,1,.37.71A2.65,2.65,0,0,0,17,3.75a.63.63,0,0,1,.77-.22L20,4.45A.63.63,0,0,1,20.28,5.28Z"/></g></g></svg>