<svg xmlns="http://www.w3.org/2000/svg" viewBox="0 0 216.25 191.72"><defs><style>.cls-1{fill:#faee43}.cls-2{fill:#fff}</style></defs><g id="Layer_2" data-name="Layer 2"><g id="Layer_1-2" data-name="Layer 1"><path class="cls-1" d="M86 109.56v-5.5q0-12.54 2.86-20.24t10.6-16.28q7-7.47 9.35-11.55a17.72 17.72 0 0 0 2.31-8.91q0-11.22-9-11.22a9.43 9.43 0 0 0-8.14 4q-2.86 4-3.52 12.32l-37-3.3q1.78-23.58 15.2-36.23T105.18 0a57.61 57.61 0 0 1 24.2 4.84 38.42 38.42 0 0 1 16.5 13.86 37.52 37.52 0 0 1 5.94 21.12 43.83 43.83 0 0 1-4 18.81q-4 8.48-13.42 18.37-7.26 7.71-10.12 14.3a38.4 38.4 0 0 0-2.86 15.4v2.86zm-1.1 50.16v-38.94h37.4v38.94z"/><path class="cls-2" d="M78 109.56v-5.5q0-12.54 2.86-20.24t10.6-16.28q7-7.47 9.35-11.55a17.72 17.72 0 0 0 2.31-8.91q0-11.22-9-11.22a9.43 9.43 0 0 0-8.14 4q-2.86 4-3.52 12.32l-37-3.3q1.78-23.58 15.2-36.23T97.18 0a57.61 57.61 0 0 1 24.2 4.84 38.42 38.42 0 0 1 16.5 13.86 37.52 37.52 0 0 1 5.94 21.12 43.83 43.83 0 0 1-4 18.81q-4 8.48-13.42 18.37-7.26 7.71-10.12 14.3a38.4 38.4 0 0 0-2.86 15.4v2.86zm-1.1 50.16v-38.94h37.4v38.94z"/><path class="cls-1" d="M171.4 157.52v-3.75q0-8.55 1.95-13.8a35.88 35.88 0 0 1 7.2-11.1 47.67 47.67 0 0 0 6.38-7.87 12.11 12.11 0 0 0 1.57-6.08q0-7.65-6.15-7.65a6.44 6.44 0 0 0-5.55 2.7q-2 2.7-2.4 8.4l-25.2-2.25q1.2-16.05 10.35-24.68t24.9-8.62a39.2 39.2 0 0 1 16.5 3.3 26.16 26.16 0 0 1 11.25 9.45 25.58 25.58 0 0 1 4.05 14.4 29.86 29.86 0 0 1-2.7 12.82 48.74 48.74 0 0 1-9.15 12.53 35.31 35.31 0 0 0-6.9 9.75 26.23 26.23 0 0 0-1.95 10.5v2zm-.75 34.2v-26.55h25.5v26.55z"/><path class="cls-2" d="M163.4 157.52v-3.75q0-8.55 1.95-13.8a35.88 35.88 0 0 1 7.2-11.1 47.67 47.67 0 0 0 6.38-7.87 12.21 12.21 0 0 0 1.57-6.08q0-7.65-6.15-7.65a6.44 6.44 0 0 0-5.55 2.7q-2 2.7-2.4 8.4l-25.2-2.25q1.2-16.05 10.35-24.68t24.9-8.62a39.2 39.2 0 0 1 16.5 3.3 26.16 26.16 0 0 1 11.25 9.45 25.58 25.58 0 0 1 4.05 14.4 29.86 29.86 0 0 1-2.7 12.82 48.74 48.74 0 0 1-9.15 12.53 35.31 35.31 0 0 0-6.9 9.75 26.23 26.23 0 0 0-1.95 10.5v2zm-.75 34.2v-26.55h25.5v26.55z"/><path class="cls-1" d="M22.8 136.92v-2.5a26.86 26.86 0 0 1 1.3-9.2 24.08 24.08 0 0 1 4.8-7.4 32.17 32.17 0 0 0 4.25-5.25 8 8 0 0 0 1.05-4q0-5.1-4.1-5.1a4.3 4.3 0 0 0-3.7 1.8 11.17 11.17 0 0 0-1.6 5.6L8 109.32q.79-10.69 6.9-16.45t16.6-5.75a26.09 26.09 0 0 1 11 2.2 17.49 17.49 0 0 1 7.5 6.3 17 17 0 0 1 2.7 9.6 20 20 0 0 1-1.8 8.55 32.46 32.46 0 0 1-6.1 8.35 23.56 23.56 0 0 0-4.6 6.5 17.42 17.42 0 0 0-1.3 7v1.3zm-.5 22.8V142h17v17.7z"/><path class="cls-2" d="M14.8 136.92v-2.5a26.86 26.86 0 0 1 1.3-9.2 24.08 24.08 0 0 1 4.8-7.4 32.17 32.17 0 0 0 4.25-5.25 8 8 0 0 0 1.05-4q0-5.1-4.1-5.1a4.3 4.3 0 0 0-3.7 1.8 11.17 11.17 0 0 0-1.6 5.6L0 109.32q.8-10.69 6.9-16.45t16.6-5.75a26.09 26.09 0 0 1 11 2.2 17.49 17.49 0 0 1 7.5 6.3 17 17 0 0 1 2.7 9.6 20 20 0 0 1-1.8 8.55 32.46 32.46 0 0 1-6.1 8.35 23.56 23.56 0 0 0-4.6 6.5 17.42 17.42 0 0 0-1.3 7v1.3zm-.5 22.8V142h17v17.7z"/></g></g></svg>