<?xml version="1.0" standalone="no"?>
<!DOCTYPE svg PUBLIC "-//W3C//DTD SVG 20010904//EN"
 "http://www.w3.org/TR/2001/REC-SVG-20010904/DTD/svg10.dtd">
<svg version="1.0" xmlns="http://www.w3.org/2000/svg"
 width="500.000000pt" height="500.000000pt" viewBox="0 0 500.000000 500.000000"
 preserveAspectRatio="xMidYMid meet">
<metadata>
Created by potrace 1.11, written by Peter Selinger 2001-2013
</metadata>
<g transform="translate(0.000000,500.000000) scale(0.100000,-0.100000)"
fill="#000000" stroke="none">
<path d="M2427 4737 c-65 -89 -126 -173 -136 -186 l-18 -23 -59 20 c-148 52
-238 67 -394 67 -132 -1 -223 -23 -327 -81 -108 -60 -210 -171 -273 -297 -12
-24 -17 -27 -49 -21 -78 15 -204 7 -296 -17 -198 -54 -376 -247 -442 -482 -11
-42 -23 -63 -42 -74 -226 -137 -313 -229 -367 -389 -24 -70 -26 -89 -21 -174
6 -104 38 -212 85 -283 23 -35 25 -42 13 -70 -51 -128 -61 -167 -66 -277 -10
-198 75 -395 233 -542 86 -79 205 -141 311 -164 77 -16 209 -19 276 -6 l40 8
43 -79 c107 -200 271 -345 484 -432 89 -36 213 -71 287 -81 25 -3 55 -8 66
-10 72 -16 313 -15 453 0 l154 18 81 -47 c284 -164 569 -424 806 -735 119
-156 163 -203 221 -234 151 -82 298 -67 546 56 136 67 176 101 176 148 0 22
-60 178 -165 426 l-164 392 41 12 c78 23 210 91 281 144 149 112 260 285 309
479 23 91 26 113 33 254 l6 121 51 38 c83 62 228 213 280 291 154 234 155 486
1 718 -45 68 -150 183 -206 227 -13 10 -19 36 -23 101 -23 346 -204 591 -510
692 -102 33 -194 47 -330 49 -125 2 -139 4 -149 22 -26 47 -130 174 -188 230
-162 154 -317 217 -514 210 -131 -5 -268 -50 -373 -121 -19 -13 -39 -22 -42
-20 -4 3 -3 26 2 52 23 123 36 218 31 226 -15 25 -48 -8 -156 -156z m719 -194
c117 -45 233 -147 331 -290 82 -119 113 -153 143 -153 14 -1 77 1 140 4 171 6
304 -19 421 -80 107 -56 190 -146 233 -254 32 -80 34 -87 42 -135 5 -39 4 -47
-7 -42 -208 87 -325 122 -470 141 -135 18 -194 14 -224 -14 -32 -30 -40 -71
-21 -109 22 -42 44 -51 135 -56 163 -9 344 -61 515 -146 212 -107 351 -248
407 -416 18 -54 21 -81 16 -149 -7 -124 -58 -222 -180 -348 -51 -51 -129 -122
-175 -156 -46 -34 -86 -69 -89 -77 -6 -15 -6 -24 -4 -159 4 -196 -43 -358
-143 -497 -24 -34 -57 -74 -74 -89 -92 -81 -238 -154 -357 -178 -97 -20 -124
-41 -125 -97 0 -19 66 -190 166 -430 92 -219 168 -403 171 -409 2 -6 -31 -27
-74 -46 -243 -111 -327 -100 -443 61 -123 170 -324 394 -491 547 -60 55 -235
192 -277 217 -18 11 -30 23 -25 27 4 4 37 17 73 30 166 59 250 123 413 313 91
107 223 183 371 213 61 13 114 15 275 11 36 -1 47 3 67 26 47 54 20 136 -51
156 -17 5 -75 9 -130 10 -266 4 -510 -99 -671 -285 -119 -138 -150 -166 -215
-205 -71 -42 -140 -71 -229 -94 -55 -14 -89 -19 -209 -30 -36 -3 -67 -8 -70
-10 -19 -11 -169 -20 -326 -19 -294 2 -472 50 -655 174 -101 69 -199 189 -250
307 l-22 52 32 78 c26 66 55 166 111 386 33 131 130 318 204 393 56 57 99 77
172 80 73 3 97 14 118 54 20 38 13 77 -20 109 -21 22 -34 25 -97 27 -160 3
-289 -81 -408 -265 -44 -67 -49 -71 -55 -50 -10 33 -86 138 -123 171 -71 63
-115 88 -153 88 -51 0 -90 -34 -94 -80 -4 -49 10 -72 61 -104 166 -105 223
-315 159 -581 -8 -33 -29 -97 -46 -142 -33 -85 -33 -85 -109 -100 -210 -40
-428 76 -531 282 -80 163 -76 316 14 475 18 32 30 66 29 83 -1 15 -23 58 -47
95 -114 170 -113 335 3 464 46 51 122 107 192 143 89 45 109 62 120 108 47
192 122 320 229 391 115 77 227 87 442 42 34 -7 90 29 99 65 20 71 77 167 134
224 96 96 194 133 348 133 91 0 280 -36 302 -58 5 -5 -52 -92 -141 -213 -170
-230 -175 -238 -163 -257 8 -13 104 -16 160 -5 50 10 230 16 230 8 0 -5 -36
-173 -80 -373 -44 -201 -81 -369 -81 -375 -3 -25 2 -45 10 -45 6 0 159 208
342 463 183 254 336 468 342 474 13 17 1 59 -19 67 -8 3 -75 9 -147 12 -73 3
-133 7 -134 7 -1 1 2 22 7 47 4 25 11 63 14 85 8 46 48 92 146 165 81 59 173
106 248 125 75 19 201 13 268 -12z"/>
<path d="M3390 3050 c-270 -367 -270 -367 -252 -378 6 -5 70 -6 141 -4 l129 4
-49 -214 c-26 -117 -50 -224 -53 -238 -2 -14 -8 -40 -12 -59 -11 -53 13 -36
82 60 312 432 404 562 404 573 0 30 -39 38 -198 45 -13 1 -13 24 1 96 7 31 16
86 23 130 3 22 16 97 29 167 22 126 22 138 1 138 -6 0 -117 -144 -246 -320z"/>
<path d="M2603 2899 c-108 -63 -213 -187 -261 -309 -58 -148 -46 -373 22 -410
33 -17 71 -16 101 4 37 24 49 62 37 116 -39 171 46 345 221 449 44 27 57 48
57 94 0 24 -8 42 -26 61 -36 36 -84 34 -151 -5z"/>
</g>
</svg>
