<?xml version="1.0" standalone="no"?>
<!DOCTYPE svg PUBLIC "-//W3C//DTD SVG 20010904//EN"
 "http://www.w3.org/TR/2001/REC-SVG-20010904/DTD/svg10.dtd">
<svg version="1.0" xmlns="http://www.w3.org/2000/svg"
 width="2800.000000pt" height="2800.000000pt" viewBox="0 0 2800.000000 2800.000000"
 preserveAspectRatio="xMidYMid meet">
<metadata>
Created by potrace 1.14, written by Peter Selinger 2001-2017
</metadata>
<g transform="translate(0.000000,2800.000000) scale(0.100000,-0.100000)"
fill="#000000" stroke="none">
<path d="M6147 22598 c-19 -57 -110 -326 -201 -598 -92 -272 -216 -641 -276
-820 -293 -871 -635 -1888 -671 -2000 -23 -69 -52 -154 -64 -190 -24 -65 -220
-650 -544 -1620 -95 -283 -175 -522 -178 -530 -7 -20 -527 -1564 -695 -2065
-72 -214 -197 -588 -279 -830 -81 -242 -285 -849 -454 -1350 -168 -500 -329
-980 -356 -1065 -28 -85 -55 -164 -59 -175 -12 -27 -318 -938 -335 -995 -7
-25 -64 -193 -125 -375 -122 -358 -608 -1804 -906 -2695 -102 -305 -188 -562
-191 -570 -8 -22 -464 -1372 -469 -1390 -5 -13 236 -15 2128 -14 1173 1 2138
2 2145 3 10 1 65 161 129 371 7 25 29 95 48 155 90 286 149 473 158 505 6 19
17 53 24 75 8 22 61 193 119 380 58 187 116 374 130 415 13 41 74 235 135 430
60 195 115 365 120 378 l10 22 3180 0 3180 0 10 -22 c5 -13 37 -111 70 -218
33 -107 65 -208 71 -225 6 -16 17 -50 24 -75 12 -41 90 -293 151 -485 14 -44
61 -192 104 -330 43 -137 85 -270 93 -295 8 -25 24 -74 35 -110 21 -70 75
-242 170 -545 33 -104 77 -243 97 -307 20 -65 42 -118 48 -119 35 -3 4254 -4
4263 -1 8 2 -40 159 -133 435 -79 238 -145 437 -147 442 -1 6 -4 15 -7 20 -3
6 -11 30 -18 55 -7 25 -17 54 -22 65 -4 11 -53 157 -109 325 -55 168 -105 314
-110 325 -4 11 -38 110 -74 220 -55 169 -492 1476 -1025 3065 -73 217 -134
400 -135 405 -2 6 -6 17 -9 25 -38 93 -354 1066 -348 1070 5 3 1466 5 3247 4
l3237 0 49 -150 c27 -82 50 -156 51 -164 2 -8 29 -94 59 -190 31 -96 109 -341
173 -545 63 -203 122 -388 129 -410 8 -22 33 -101 56 -175 23 -74 61 -196 85
-270 23 -74 65 -207 93 -295 28 -88 76 -241 108 -340 31 -99 57 -184 59 -190
1 -5 5 -17 8 -25 8 -22 108 -341 113 -359 2 -9 29 -95 60 -191 64 -201 206
-649 239 -760 13 -41 28 -88 34 -105 14 -41 124 -388 127 -400 4 -16 49 -159
89 -285 21 -63 41 -128 45 -145 5 -16 15 -50 23 -75 15 -43 27 -81 132 -415
26 -82 54 -170 62 -195 8 -25 50 -157 93 -295 43 -137 83 -261 88 -275 5 -14
10 -28 10 -33 0 -4 12 -45 27 -90 l27 -82 2139 0 c1792 0 2139 2 2139 14 0 11
-87 280 -107 331 -4 8 -7 17 -7 20 -3 9 -188 562 -303 900 -62 184 -115 342
-117 350 -2 8 -77 231 -166 495 -89 264 -188 563 -221 665 -33 102 -65 194
-69 205 -5 11 -47 135 -94 275 -80 240 -753 2246 -921 2745 -42 127 -79 238
-80 248 -2 9 -7 23 -12 30 -4 6 -8 17 -9 22 -1 6 -38 118 -83 250 -361 1077
-827 2468 -1002 2990 -116 347 -213 637 -216 645 -3 8 -75 222 -160 475 -84
253 -157 467 -160 475 -3 8 -7 20 -9 25 -1 6 -72 217 -157 470 -377 1123 -480
1432 -649 1935 -98 294 -181 542 -185 550 -3 8 -7 20 -8 26 -3 12 -42 128 -52
154 -4 8 -7 17 -7 20 -4 15 -229 688 -236 705 -5 11 -101 297 -214 635 -449
1343 -557 1666 -563 1680 -8 18 -10 27 -12 40 -1 14 -3941 14 -3941 0 0 -5 9
-36 19 -67 11 -32 43 -132 71 -223 28 -91 63 -199 77 -240 13 -41 26 -82 28
-90 2 -8 19 -64 38 -125 51 -159 214 -675 247 -780 15 -49 35 -110 43 -135 8
-25 34 -106 57 -180 23 -74 45 -146 50 -160 8 -24 121 -381 142 -450 6 -19 17
-53 25 -75 8 -22 16 -47 18 -55 2 -8 28 -94 58 -190 92 -290 116 -367 173
-550 31 -96 58 -182 61 -190 3 -8 7 -19 9 -25 1 -5 41 -131 88 -280 48 -148
88 -278 91 -288 4 -18 77 -248 150 -477 24 -74 80 -250 124 -390 44 -140 84
-266 89 -280 5 -14 10 -28 11 -33 0 -4 17 -60 38 -125 20 -64 38 -119 38 -122
0 -3 8 -27 17 -55 21 -65 74 -232 133 -420 25 -82 52 -163 58 -180 6 -16 12
-35 13 -41 1 -7 18 -61 37 -120 19 -60 54 -170 77 -244 53 -169 111 -354 156
-489 18 -58 32 -107 29 -109 -4 -4 -6485 -6 -6556 -3 -11 1 -23 22 -37 64 -11
34 -199 593 -417 1242 -217 649 -445 1329 -506 1510 -60 182 -114 339 -118
350 -5 11 -50 144 -100 295 -50 151 -255 766 -456 1365 -202 600 -373 1113
-382 1140 -8 28 -19 59 -24 70 -4 11 -81 238 -169 505 -89 267 -175 524 -192
573 l-31 87 -2492 0 -2493 0 -35 -102z m2593 -4648 c54 -172 81 -257 111 -350
9 -30 42 -134 73 -230 100 -320 197 -624 224 -705 14 -44 27 -84 28 -90 1 -5
73 -233 159 -505 86 -272 167 -529 180 -570 13 -41 28 -88 34 -105 14 -44 104
-328 107 -340 1 -5 18 -61 38 -122 76 -238 110 -344 166 -523 32 -102 77 -243
100 -315 23 -71 64 -202 91 -290 28 -88 53 -167 56 -175 3 -8 7 -19 8 -25 2
-5 76 -242 165 -525 89 -283 182 -580 206 -660 25 -80 50 -158 55 -175 6 -16
39 -124 75 -240 36 -115 66 -215 68 -221 3 -7 -606 -10 -2005 -10 -1579 0
-2009 2 -2009 12 0 7 39 135 86 286 47 150 95 302 105 338 11 36 33 106 49
155 38 118 93 297 96 310 1 6 20 66 42 135 41 127 113 357 118 375 3 10 55
174 119 375 20 63 49 156 65 205 33 106 184 582 276 875 162 508 188 591 219
690 18 58 61 193 95 300 34 107 69 218 77 245 9 28 24 75 33 105 10 30 41 129
70 220 29 91 59 185 67 210 8 25 25 79 38 120 13 41 80 255 150 475 118 373
211 665 273 864 19 62 28 79 33 65 4 -11 31 -93 59 -184z"/>
</g>
</svg>
