<svg width="0" height="0" class="hidden">
  <symbol fill="none" xmlns="http://www.w3.org/2000/svg" viewBox="0 0 55 35" id="ah-logo">
    <path d="M21.8 0H11.76L0 35h8.63l1.73-5.5h12.82l1.73 5.5h8.63L29.2 22h13.08l4.1 13H55L43.26 0h-7.94l4.24 13.4.34 1.1H26.66L21.8 0Zm-9.07 22 .96-3.07 3.1-9.78 3.09 9.78.96 3.07h-8.11Z" fill="currentColor"></path>
  </symbol>
  <symbol fill="currentColor" xmlns="http://www.w3.org/2000/svg" viewBox="0 0 20 20" id="arrow-down">
    <path fill-rule="evenodd" d="M16.707 10.293a1 1 0 010 1.414l-6 6a1 1 0 01-1.414 0l-6-6a1 1 0 111.414-1.414L9 14.586V3a1 1 0 012 0v11.586l4.293-4.293a1 1 0 011.414 0z" clip-rule="evenodd"></path>
  </symbol>
  <symbol fill="currentColor" xmlns="http://www.w3.org/2000/svg" viewBox="0 0 20 20" id="arrow-left">
    <path fill-rule="evenodd" d="M9.707 16.707a1 1 0 01-1.414 0l-6-6a1 1 0 010-1.414l6-6a1 1 0 011.414 1.414L5.414 9H17a1 1 0 110 2H5.414l4.293 4.293a1 1 0 010 1.414z" clip-rule="evenodd"></path>
  </symbol>
  <symbol fill="currentColor" xmlns="http://www.w3.org/2000/svg" viewBox="0 0 20 20" id="arrow-n-down">
    <path fill-rule="evenodd" d="M14.707 12.293a1 1 0 010 1.414l-4 4a1 1 0 01-1.414 0l-4-4a1 1 0 111.414-1.414L9 14.586V3a1 1 0 012 0v11.586l2.293-2.293a1 1 0 011.414 0z" clip-rule="evenodd"></path>
  </symbol>
  <symbol fill="currentColor" xmlns="http://www.w3.org/2000/svg" viewBox="0 0 20 20" id="arrow-n-left">
    <path fill-rule="evenodd" d="M7.707 14.707a1 1 0 01-1.414 0l-4-4a1 1 0 010-1.414l4-4a1 1 0 011.414 1.414L5.414 9H17a1 1 0 110 2H5.414l2.293 2.293a1 1 0 010 1.414z" clip-rule="evenodd"></path>
  </symbol>
  <symbol fill="currentColor" xmlns="http://www.w3.org/2000/svg" viewBox="0 0 20 20" id="briefcase">
    <path fill-rule="evenodd" d="M6 6V5a3 3 0 013-3h2a3 3 0 013 3v1h2a2 2 0 012 2v3.57A22.952 22.952 0 0110 13a22.95 22.95 0 01-8-1.43V8a2 2 0 012-2h2zm2-1a1 1 0 011-1h2a1 1 0 011 1v1H8V5zm1 5a1 1 0 011-1h.01a1 1 0 110 2H10a1 1 0 01-1-1z" clip-rule="evenodd"></path>
    <path d="M2 13.692V16a2 2 0 002 2h12a2 2 0 002-2v-2.308A24.974 24.974 0 0110 15c-2.796 0-5.487-.46-8-1.308z"></path>
  </symbol>
  <symbol fill="currentColor" xmlns="http://www.w3.org/2000/svg" viewBox="0 0 20 20" id="arrow-n-right">
    <path fill-rule="evenodd" d="M12.293 5.293a1 1 0 011.414 0l4 4a1 1 0 010 1.414l-4 4a1 1 0 01-1.414-1.414L14.586 11H3a1 1 0 110-2h11.586l-2.293-2.293a1 1 0 010-1.414z" clip-rule="evenodd"></path>
  </symbol>
  <symbol fill="currentColor" xmlns="http://www.w3.org/2000/svg" viewBox="0 0 20 20" id="arrow-right">
    <path fill-rule="evenodd" d="M10.293 3.293a1 1 0 011.414 0l6 6a1 1 0 010 1.414l-6 6a1 1 0 01-1.414-1.414L14.586 11H3a1 1 0 110-2h11.586l-4.293-4.293a1 1 0 010-1.414z" clip-rule="evenodd"></path>
  </symbol>
  <symbol fill="none" stroke="currentColor" xmlns="http://www.w3.org/2000/svg" viewBox="0 0 24 24" id="code-bracket">
    <path stroke-linecap="round" stroke-linejoin="round" stroke-width="2" d="M10 20l4-16m4 4l4 4-4 4M6 16l-4-4 4-4"></path>
  </symbol>
  <symbol fill="currentColor" xmlns="http://www.w3.org/2000/svg" viewBox="0 0 20 20" id="color-swatch">
    <path fill-rule="evenodd" d="M4 2a2 2 0 00-2 2v11a3 3 0 106 0V4a2 2 0 00-2-2H4zm1 14a1 1 0 100-2 1 1 0 000 2zm5-1.757l4.9-4.9a2 2 0 000-2.828L13.485 5.1a2 2 0 00-2.828 0L10 5.757v8.486zM16 18H9.071l6-6H16a2 2 0 012 2v2a2 2 0 01-2 2z" clip-rule="evenodd"></path>
  </symbol>
  <symbol fill="currentColor" xmlns="http://www.w3.org/2000/svg" viewBox="0 0 20 20" id="download">
    <path fill-rule="evenodd" d="M3 17a1 1 0 011-1h12a1 1 0 110 2H4a1 1 0 01-1-1zm3.293-7.707a1 1 0 011.414 0L9 10.586V3a1 1 0 112 0v7.586l1.293-1.293a1 1 0 111.414 1.414l-3 3a1 1 0 01-1.414 0l-3-3a1 1 0 010-1.414z" clip-rule="evenodd"></path>
  </symbol>
  <symbol fill="currentColor" xmlns="http://www.w3.org/2000/svg" viewBox="0 0 20 20" id="lightbulb">
    <path d="M11 3a1 1 0 10-2 0v1a1 1 0 102 0V3zM15.657 5.757a1 1 0 00-1.414-1.414l-.707.707a1 1 0 001.414 1.414l.707-.707zM18 10a1 1 0 01-1 1h-1a1 1 0 110-2h1a1 1 0 011 1zM5.05 6.464A1 1 0 106.464 5.05l-.707-.707a1 1 0 00-1.414 1.414l.707.707zM5 10a1 1 0 01-1 1H3a1 1 0 110-2h1a1 1 0 011 1zM8 16v-1h4v1a2 2 0 11-4 0zM12 14c.015-.34.208-.646.477-.859a4 4 0 10-4.954 0c.27.213.462.519.476.859h4.002z"></path>
  </symbol>
  <symbol xmlns="http://www.w3.org/2000/svg" viewBox="0 0 545.9 143.6" id="logo-shd">
    <path d="m0 143.32 18-19.22 110.41-118a18.56 18.56 0 0 1 8-5.31 8.6 8.6 0 0 1 9.1 2.13 8.53 8.53 0 0 1 2.41 9 17.64 17.64 0 0 1-5.59 8.65Q71.87 81.66 1.43 142.7c-.37.32-.78.6-1.17.9ZM44.43 88.21l-7.32 8.18C22.73 78.31 19.2 46.73 38.72 22.75A60.38 60.38 0 0 1 116 8.59l-7 8.2C85.56 7 64.86 10.11 47.73 29.26c-12.33 13.8-16.81 38.06-3.3 58.95ZM48.81 108.52c2.6-2.26 5.12-4.37 7.55-6.58.86-.78 1.45-.42 2.19.07a46.75 46.75 0 0 0 18.18 7.28c17.2 2.85 32.37-1.56 44.34-14.18 15-15.77 17.9-34.19 9.85-54.34a1.69 1.69 0 0 1 .58-2.4c2.5-1.92 4.92-3.95 7.38-5.95 10.74 18 11.61 49.38-10.67 71.33a60.41 60.41 0 0 1-79.4 4.77ZM190.05 89.49h22.38V67.87h8.27v51.62h-8.18V97h-22.41v22.52h-8.2V67.87h8.14ZM326.52 52.92h-6.87v-5.73c-.37 0-.55 0-.58.07-5.29 8.8-19.87 8.81-27.18 1.77-9-8.67-8.08-24.7 2-31.81 8-5.67 19.67-4.33 24.79 2.77.09.14.28.21.69.49V1.2h7.19Zm-20.08-32.38A13 13 0 0 0 293 33.79c0 7.8 5.63 13.5 13.36 13.5a13.19 13.19 0 0 0 13.35-13.17c.05-7.79-5.61-13.57-13.27-13.58ZM421.56 67.88v51.61h-6.9v-5.68c-.34 0-.53 0-.57.07-5.43 9.1-20.88 9.05-28.26.72-6.52-7.37-6.8-19.67-.65-27.33 6.64-8.27 21.52-10 29.09 0V67.88Zm-20.1 46.05A13.39 13.39 0 1 0 388 100.51a13.1 13.1 0 0 0 13.46 13.42ZM275.51 133.47h-7.25V81.58H275v5.73h.56c5-6.4 11.66-8.07 19.21-6.24s11.72 7.16 13.57 14.42c2.56 10.06-2.32 20.27-11.26 23.89-7.7 3.12-15.13 1.32-21.6-5.44Zm12.76-19.54a13.39 13.39 0 1 0-13.16-13.45 13 13 0 0 0 13.16 13.45ZM179.37 37.74a8.68 8.68 0 0 1 .91-.12h6.93a36.57 36.57 0 0 0 1.21 4.16 8.4 8.4 0 0 0 10.39 4.75 8.27 8.27 0 0 0 5.89-9.42 6.25 6.25 0 0 0-3.7-4.69c-2.61-1.25-5.34-2.23-8-3.36a59.94 59.94 0 0 1-6.18-2.72c-9.5-5.3-8.15-17.87-1.15-22.75C191.65-.56 198-1.15 204.55 2c5 2.42 7.18 6.75 7.57 12.27h-8c-.33-.95-.59-1.87-1-2.75-1.53-3.63-5-5.17-9.12-4.13a7.15 7.15 0 0 0-5.64 7.69 5.67 5.67 0 0 0 3.32 4.92c2.47 1.23 5 2.26 7.61 3.3 3.66 1.48 7.33 3 10.15 5.83 6.55 6.64 4.08 18.94-4.69 23a19.73 19.73 0 0 1-17.06 0 14.78 14.78 0 0 1-8.32-14.39ZM544.48 108.05c-3.57 9.81-14.58 14.94-24.76 11.81a20.25 20.25 0 0 1 10.43-39.06c10.29 2.22 17.19 11.92 15.49 22.07h-32.33c-.1 4.82 3.17 9.09 8.12 10.85a12.66 12.66 0 0 0 15.05-4.72 2.33 2.33 0 0 1 1.47-.94c2.12-.06 4.24-.01 6.53-.01Zm-31.07-11h25c-.43-5.76-5.93-10.38-12.28-10.42-6.82-.03-12.25 4.37-12.72 10.43ZM321.38 102.84c-.07 5 3.32 9.3 8.35 11a12.63 12.63 0 0 0 14.86-4.8 2.56 2.56 0 0 1 1.68-.91c2-.11 4 0 6 0-.68 6.87-11.33 13.47-20.27 12.57-11.42-1.15-19.27-11-18-22.62 1.19-11.19 11.44-19 23.07-17.5 10.57 1.32 18.12 11.27 16.71 22.26Zm0-5.74h25c.02-5.1-5.33-10.1-11.09-10.42-7.41-.43-13.06 3.75-13.87 10.42ZM371.43 54c-11.69 0-20.42-8.66-20.37-20.24s8.78-20.12 20.34-20.12A20 20 0 0 1 391.82 34c-.03 11.41-8.82 20-20.39 20Zm-13.07-19.88a13 13 0 0 0 13.31 13.13c7.37-.13 12.94-6 12.82-13.64a13.07 13.07 0 1 0-26.13.51ZM271 14.86h7.2v38h-6.73v-5.27a11.18 11.18 0 0 1-1.2 1.4c-1.88 1.4-3.63 3.16-5.73 4a16.63 16.63 0 0 1-12.31 0c-6.16-2.2-8.73-7.2-9-13.21-.37-8.16-.12-16.36-.13-24.54 0-.11.1-.22.19-.42h7.08V17c0 6.64-.06 13.28.11 19.91a14.9 14.9 0 0 0 1.32 5.57c1.66 3.66 5.46 5.26 10.34 4.71a9.18 9.18 0 0 0 8.36-7.17 23.14 23.14 0 0 0 .48-4.78c.05-6.06 0-12.12 0-18.17ZM263.15 81.68l-9.12 22.73c-3.68 9.2-7.38 18.4-11 27.62-.44 1.1-1 1.63-2.23 1.55-1.93-.12-3.87 0-6.11 0 .29-.79.48-1.42.74-2 1.6-3.8 3.28-7.56 4.76-11.4a4.9 4.9 0 0 0 0-3.25c-4.32-11.17-8.74-22.3-13.14-33.43l-.74-2c2.52 0 4.87-.09 7.2.08.47 0 1 1 1.27 1.66l9 23.84c.24.64.51 1.28.91 2.28 2.91-7.58 5.66-14.78 8.41-22 0-.12.09-.24.13-.36 2.39-6.19 2.77-6.43 9.92-5.32ZM490.27 119.48a2.79 2.79 0 0 1-.49.13c-2.19 0-4.87.75-6.44-.25s-1.95-3.7-2.73-5.7q-5.78-15-11.48-29.92c-.24-.64-.44-1.3-.76-2.28 2.43 0 4.6-.1 6.75.07.5 0 1.12.91 1.35 1.52 3.09 8.32 6.13 16.67 9.18 25l.9 2.39c1.23-3.32 2.3-6.22 3.36-9.13 2.21-6 4.45-12.07 6.59-18.14.46-1.3 1.05-1.86 2.48-1.76 1.84.13 3.69 0 5.86 0-4.95 12.95-9.77 25.59-14.57 38.07ZM230.23 53h-7.31V20.56h-6.83v-5.67h6.73V1.2h7.34v13.56h7.28v5.69h-7.21ZM431.5 81.55h6.72v4.57a13.31 13.31 0 0 1 11.29-5.67v7.07c-.59.09-1.16.2-1.73.26-5.73.61-8.86 3.82-9 9.63-.16 6.63-.08 13.27-.1 19.9v2.21h-7.18ZM368.37 119.56h-7.14v-38h6.68v4.63a13.22 13.22 0 0 1 11.35-5.79v7.08c-.66.1-1.29.21-1.92.27-5.32.54-8.53 3.65-8.74 9-.25 6.69-.17 13.39-.23 20.08ZM343.52 14.92v38h-7v-38ZM455.5 119.49V81.57h7.09v37.92ZM462.62 75.75h-7.11v-7.48h7.11ZM336.43 8.59V1.1h6.35c.29 0 .6.49.84.8.09.13 0 .38 0 .57.38 6.53-.15 7.04-7.19 6.12Z" fill="currentColor"></path>
  </symbol>
  <symbol xmlns="http://www.w3.org/2000/svg" viewBox="0 0 1049.8 204.1" id="logo-superkraft">
    <path d="M294.2 43.5a49.7 49.7 0 0 1 20.9 4.3 50.4 50.4 0 0 1 16.5 12 56 56 0 0 1 10.8 17.7 61.4 61.4 0 0 1 0 43.2 56 56 0 0 1-10.8 17.7 50.4 50.4 0 0 1-16.5 12 51.2 51.2 0 0 1-38.8 1q-8.8-3.3-13.7-8.4v61h-29.4V46.4h29.4v7.3a36.7 36.7 0 0 1 13.8-8 60.7 60.7 0 0 1 17.8-2.2zm-3.9 85a25 25 0 0 0 10.8-2.3 28.7 28.7 0 0 0 8.7-6.3 30.8 30.8 0 0 0 6-9.3 29.4 29.4 0 0 0 2.3-11.5 29.7 29.7 0 0 0-2.3-11.4 30.6 30.6 0 0 0-6-9.4 29 29 0 0 0-8.7-6.3 25.1 25.1 0 0 0-10.8-2.3 35 35 0 0 0-10.7 1.6 22.6 22.6 0 0 0-8.8 5 24 24 0 0 0-5.8 9.2 38.5 38.5 0 0 0-2.2 13.6A35.3 35.3 0 0 0 265 112a26.3 26.3 0 0 0 5.8 9.1 23.6 23.6 0 0 0 8.8 5.6 31.4 31.4 0 0 0 10.7 1.8zM185.3 46h29.4v105.7h-29.4v-8a46 46 0 0 1-11.6 5.8 42.7 42.7 0 0 1-14 2.2 58.5 58.5 0 0 1-13.1-1.6 36.4 36.4 0 0 1-24.5-19.4q-4.4-8.4-4.4-21.6V46h29.4v61.9a19.2 19.2 0 0 0 1.6 8.3 14.3 14.3 0 0 0 4.3 5.4 18.2 18.2 0 0 0 6.1 3 26.2 26.2 0 0 0 7 1 22.1 22.1 0 0 0 6.2-1 20 20 0 0 0 6.2-3 17.6 17.6 0 0 0 4.8-5.6 16.2 16.2 0 0 0 2-8.1zm282.6 53.6v2.2-5 2.6zm-108.5-.4v.2-.2zm108-7.5.5 5-.5-5zm-35.7 27.9a27.8 27.8 0 0 1-3.5 3.6 23.6 23.6 0 0 1-15.5 5.8 22.1 22.1 0 0 1-15-5.8 28.7 28.7 0 0 1-7.3-10h75.8a83.7 83.7 0 0 0 1.5-8.3l.1-1.2.1-2v-5l-.5-5a55 55 0 0 0-2-9l-.4-1.4-1-2.5a56 56 0 0 0-10.8-18 55.3 55.3 0 0 0-16.8-12.6 48.7 48.7 0 0 0-21.8-4.8 52 52 0 0 0-21.5 4.6 57.7 57.7 0 0 0-17.5 12 55.4 55.4 0 0 0-16.1 39v3.7l.4 3.5a59 59 0 0 0 3.4 13.7 56.4 56.4 0 0 0 10.8 17.9 55.3 55.3 0 0 0 16.9 12.5 48.8 48.8 0 0 0 21.7 4.8 52 52 0 0 0 21.5-4.4 58.5 58.5 0 0 0 17.6-12 52.3 52.3 0 0 0 5.1-6zm-32.5-44.2a23.6 23.6 0 0 1 15.4-5.7 22.1 22.1 0 0 1 15 5.7 30 30 0 0 1 9.2 15h-49a29 29 0 0 1 9.4-15zm144.7-31.7a38.2 38.2 0 0 0-11.1 1.4 35.1 35.1 0 0 0-8.8 4 31.7 31.7 0 0 0-6.6 5.6 48 48 0 0 0-4.9 6.5V46.5H483v105.7h29.4V96a21.5 21.5 0 0 1 2.6-10.3 26.2 26.2 0 0 1 6.8-8.2 32 32 0 0 1 10.1-5.4 40.5 40.5 0 0 1 12.7-1.9 30.6 30.6 0 0 1 4.3.3 47.6 47.6 0 0 1 9 1.8V45.5a62.8 62.8 0 0 0-14.2-1.8zm206.2 0a38.2 38.2 0 0 0-11 1.4 35.1 35.1 0 0 0-8.8 4 31.7 31.7 0 0 0-6.6 5.6 48 48 0 0 0-5 6.5V46.5h-29.3v105.7h29.4V96a21.5 21.5 0 0 1 2.5-10.3 26.2 26.2 0 0 1 6.8-8.2 32 32 0 0 1 10.2-5.4 40.5 40.5 0 0 1 12.7-1.9 30.6 30.6 0 0 1 4.2.3 47.6 47.6 0 0 1 9 1.8V45.5a62.8 62.8 0 0 0-14-1.8zM50.3 153.2c-17.7 0-35.3-8-50.3-23.1L19.3 111c11 11 23.4 16.2 35 14.8 8-1 15-5.4 18.4-11.3 2-3.3 3.2-8.4.9-13-3-5.7-11.3-9.5-23.4-10.7-30.4-3-41.6-18.8-45.7-28a41.1 41.1 0 0 1 5-41.1c9-12 23.3-19.4 39-20.5 19-1.3 38.3 7 54.3 23.2L83.5 43.6C70 30 58 27.9 50.3 28.4s-14.8 4.1-19 9.7A14 14 0 0 0 29.4 52c2.8 6.3 11.2 10.5 23.4 11.7 27.8 2.7 39.8 15.3 45 25.4a40.5 40.5 0 0 1-1.5 39 52.2 52.2 0 0 1-38.6 24.7 59.1 59.1 0 0 1-7.4.4zm580.2-62.4 41-43.7h-35.7l-34.1 36.3V0l-29.2 29.2v123h29.2v-30.8l10.4-11.2 27.7 42h35l-44.3-61.5zm257.9-44.4v105.8h-29v-15.8a38.8 38.8 0 0 1-17.9 15.6c-7 2.9-13 2.7-18 2.7a49.1 49.1 0 0 1-20.8-4.3 51.9 51.9 0 0 1-16.5-12 55 55 0 0 1-11-17.7 61.4 61.4 0 0 1 0-43.3 55 55 0 0 1 11-17.6 51.9 51.9 0 0 1 16.5-12 49 49 0 0 1 20.8-4.4 52.9 52.9 0 0 1 18.8 3.2 32.8 32.8 0 0 1 7 3.7s.8.5 1.5 1a51.5 51.5 0 0 1 8.5 8.8V46.4zm-33.1 53.1a38.1 38.1 0 0 0-2.3-14 25 25 0 0 0-6-9.1 22.6 22.6 0 0 0-8.7-5.2 35 35 0 0 0-10.7-1.5 25.1 25.1 0 0 0-10.8 2.3 30.3 30.3 0 0 0-8.8 6.3 27.9 27.9 0 0 0-6 9.4 31 31 0 0 0-2.2 11.4 30.7 30.7 0 0 0 2.2 11.5 28 28 0 0 0 6 9.3 29.9 29.9 0 0 0 8.8 6.3 25 25 0 0 0 10.8 2.3 28.2 28.2 0 0 0 19.5-7.1q8-7.2 8.2-21.9zm194.5-26.8V46.4h-28.5V22.8h-29.4v23.6H945v-4q0-7.4 3.7-11.4t11.8-4c.8 0 1.7 0 2.6.2s2 .1 3.1.3l7 1 2.4-25a63.5 63.5 0 0 0-9.8-2.6A58 58 0 0 0 956 0a48 48 0 0 0-15.4 2.5 35 35 0 0 0-12.9 7.6 37.4 37.4 0 0 0-9 13.2 49.5 49.5 0 0 0-3.2 19.1v4h-13.9v26.3h13.9v79.5H945V72.7h46.8v47.7q0 10.2 2.9 17.2a27.9 27.9 0 0 0 18.9 17 49 49 0 0 0 13 1.6 62 62 0 0 0 12-1.1 102.4 102.4 0 0 0 11.3-2.9v-24.5a32.5 32.5 0 0 1-12 2.3q-7.4 0-12-4t-4.5-11.6V72.6z"></path>
  </symbol>
  <symbol fill="none" xmlns="http://www.w3.org/2000/svg" viewBox="0 0 150 54" id="logo-wiseo">
    <path d="M29.93 34.65V17.1h2.18V34.1c0 1.43.49 2.62 1.45 3.57a4.74 4.74 0 0 0 3.46 1.44c1.35 0 2.5-.48 3.48-1.44.89-.89 1.37-1.97 1.43-3.23h-.02V17.1h2.19v17.35a6.85 6.85 0 0 1-2.07 4.77 6.78 6.78 0 0 1-5 2.09c-1.97 0-3.64-.7-5.01-2.1-.38-.37-.7-.76-.98-1.16-.27.4-.6.8-1 1.17a6.78 6.78 0 0 1-5 2.09c-1.96 0-3.63-.7-5-2.1a6.85 6.85 0 0 1-2.07-4.76V17.1h2.18v17.35h-.02a4.72 4.72 0 0 0 1.46 3.23 4.7 4.7 0 0 0 3.45 1.44c1.35 0 2.5-.48 3.48-1.44a4.8 4.8 0 0 0 1.4-3.03ZM53.87 19.34h-2.19V17.1h2.19v2.24Zm0 21.63h-2.19V20.9h2.19v20.07ZM68.3 28.59c-1.86-1-3.15-1.86-3.87-2.58a5.5 5.5 0 0 1-1.67-4.03c0-1.6.56-2.95 1.67-4.07a5.48 5.48 0 0 1 4.04-1.7c1.59 0 2.9.53 3.94 1.56 1 1.02 1.5 2.18 1.5 3.48v.12l-1.9.75a4.71 4.71 0 0 0-1.15-2.77c-.6-.61-1.4-.92-2.4-.92-.96 0-1.8.34-2.5 1.03a3.4 3.4 0 0 0-1.04 2.52c0 .97.35 1.8 1.05 2.5.4.4 1.26 1.02 2.57 1.85a20.3 20.3 0 0 1 4.43 3.01 6.85 6.85 0 0 1 2.06 4.99c0 1.97-.69 3.65-2.06 5.04a6.8 6.8 0 0 1-5.01 2.08 6.8 6.8 0 0 1-5-2.08 6.36 6.36 0 0 1-2.07-4.56l2.16-.56c0 1.43.48 2.62 1.45 3.58a4.74 4.74 0 0 0 3.46 1.43c1.34 0 2.5-.48 3.46-1.43a4.74 4.74 0 0 0 1.45-3.5 4.7 4.7 0 0 0-1.44-3.46 21.16 21.16 0 0 0-3.13-2.28ZM99.66 19.39a10.54 10.54 0 0 0-6.6-2.19c-3.04 0-5.63 1.08-7.79 3.22a10.6 10.6 0 0 0-3.23 7.8c0 2.5.73 4.7 2.19 6.6L99.66 19.4ZM85.71 36.43a10.51 10.51 0 0 0 7.34 2.82c3.05 0 5.65-1.08 7.8-3.23.28-.28.54-.56.78-.85l2.31.82c-.42.59-.9 1.14-1.43 1.68a12.88 12.88 0 0 1-9.46 3.91c-3.67 0-6.82-1.3-9.43-3.91a12.88 12.88 0 0 1-3.91-9.46c0-3.67 1.3-6.82 3.91-9.43 2.61-2.6 5.75-3.91 9.43-3.91a12.87 12.87 0 0 1 9.87 4.35l-1.65 1.65L85.7 36.43ZM130.36 21.36a10.57 10.57 0 0 1 2.35 6.8 10.6 10.6 0 0 1-3.24 7.8 10.66 10.66 0 0 1-7.8 3.21c-2.59 0-4.84-.78-6.79-2.33l-1.65 1.66c2.4 2 5.21 3 8.44 3 3.7 0 6.84-1.3 9.44-3.9 2.6-2.62 3.9-5.76 3.9-9.44 0-3.23-1-6.05-2.99-8.46l-1.66 1.66ZM110.73 28.24c0-3.05 1.07-5.65 3.23-7.8a10.63 10.63 0 0 1 7.8-3.24 10.6 10.6 0 0 1 7.57 3.02l1.64-1.65a12.81 12.81 0 0 0-9.2-3.7c-3.69 0-6.83 1.3-9.44 3.91a12.88 12.88 0 0 0-3.91 9.46c0 3.57 1.24 6.63 3.7 9.2l1.63-1.64c-2.01-2.1-3.02-4.62-3.02-7.56Z" fill="currentColor"></path>
    <path d="M147.51 51.15h-46.9l-2.5 2.49H150V1.76l-2.49 2.49v46.9ZM2.49 51.29V2.49h144.53l2.5-2.49H0v53.78h95.74l2.48-2.5H2.5Z" fill="currentColor"></path>
  </symbol>
  <symbol fill="currentColor" xmlns="http://www.w3.org/2000/svg" viewBox="0 0 2216.4 500.32" id="logo-mediabelgium">
    <path d="M608.49 215.87V16.13h101.02L731 87.85c1.16 3.29 2.51 7.68 4.06 13.2 1.56 5.51 3.1 11.32 4.64 17.41 1.56 6.09 2.91 11.57 4.07 16.41h2.02c.99-4.07 2.17-8.81 3.62-14.22 1.46-5.42 3.01-11.08 4.67-16.99 1.63-5.9 3.14-11.18 4.49-15.81l21.48-71.72h97.55v199.74h-66.49v-79.55c0-6.39.06-13.06.15-20.03.1-6.97.24-13.69.45-20.17.18-6.48.28-11.96.28-16.41h-2.33c-.96 4.06-2.17 8.89-3.64 14.51a817.75 817.75 0 0 1-4.48 16.55c-1.56 5.42-3.01 10.07-4.36 13.94l-28.45 91.16h-55.74l-28.75-91.16c-1.56-5.03-3.14-10.34-4.8-15.98-1.63-5.6-3.08-10.97-4.35-16.12-1.25-5.12-2.37-9.42-3.35-12.91h-2.31c.18 4.06.39 9.2.57 15.39.21 6.2.33 12.87.45 20.02.1 7.18.15 14.23.15 21.21v79.55h-62.11zM921.17 16.13v199.74h195.12V167.1H989.12v-29.04h107.41V91.61H989.12V64.89h125.12V16.13zM1218.19 167.11h30.78c7.33 0 13.86-1.07 19.59-3.21 5.7-2.13 10.5-5.17 14.36-9.13 3.86-3.97 6.76-8.71 8.71-14.23 1.95-5.51 2.9-11.75 2.9-18.74v-12.19c0-6.78-.95-12.91-2.9-18.44-1.95-5.51-4.85-10.25-8.71-14.21-3.86-3.97-8.66-6.98-14.36-9.02-5.73-2.04-12.25-3.04-19.59-3.04h-30.78v102.21zm-67.94 48.76V16.13h101.33c23.8 0 44.07 3.72 60.81 11.17 16.76 7.46 29.56 18.58 38.48 33.39 8.88 14.81 13.34 33.25 13.34 55.31 0 21.87-4.46 40.26-13.34 55.17-8.92 14.92-21.72 26.08-38.48 33.54-16.74 7.44-37.02 11.17-60.81 11.17h-101.33zM1398.78 16.12h67.95v199.74h-67.95zM1588.35 141.26h48.78l-11.61-32.8c-.78-1.94-1.66-4.36-2.62-7.26-.98-2.9-1.99-6.09-3.05-9.58-1.06-3.49-2.08-6.97-3.04-10.46-.98-3.47-1.94-6.58-2.9-9.29h-2.05c-.95 3.47-2.17 7.4-3.62 11.75a583.64 583.64 0 0 0-4.2 13.08c-1.38 4.35-2.72 8.27-4.07 11.75l-11.62 32.81zm-97.55 74.61 84.77-199.74h76.94l84.79 199.74h-72.58l-10.16-27.3h-83.91l-9.88 27.3h-69.97zM676.42 434.25h61.26c4.82 0 8.77-1.55 11.74-4.64 3.01-3.1 4.52-7.74 4.52-13.94 0-2.9-.67-5.56-2.02-7.99-1.38-2.41-3.29-4.31-5.81-5.65-2.54-1.37-5.34-2.04-8.42-2.04h-61.26v34.26zm0-75.48h56.62c3.47 0 6.39-.74 8.71-2.19 2.3-1.45 4.15-3.53 5.49-6.25 1.38-2.7 2.05-6.09 2.05-10.16 0-4.25-1.6-7.88-4.8-10.89-3.19-2.98-7.03-4.49-11.46-4.49h-56.62v33.98zM608.49 480.7V280.96H761.2c10.44 0 20.03 2.06 28.75 6.23 8.71 4.17 15.68 9.93 20.88 17.27 5.24 7.36 7.86 15.88 7.86 25.56 0 9.68-1.6 17.61-4.8 23.8-3.19 6.2-7.47 11.08-12.78 14.67a59.873 59.873 0 0 1-17.26 7.99v1.16c7.15 1.56 13.73 4.21 19.73 7.99 6.01 3.76 10.78 9.05 14.39 15.82 3.57 6.78 5.37 15.49 5.37 26.13 0 10.65-2.73 19.94-8.14 27.87-5.42 7.95-12.69 14.12-21.78 18.58-9.1 4.46-19.27 6.68-30.49 6.68H608.49zM857.01 280.95v199.76h195.12v-48.77H924.95V402.9h107.42v-46.47H924.95v-26.71h125.13v-48.77zM1086.09 280.95v199.76h184.07v-53.13h-116.12V280.95zM1387.73 484.19c-36.78 0-64.4-8.6-82.87-25.85-18.51-17.22-27.74-43.05-27.74-77.52 0-22.84 4.85-41.91 14.51-57.19 9.68-15.29 23.67-26.82 41.95-34.56 18.29-7.74 40.31-11.61 66.04-11.61 15.5 0 30.07 1.6 43.71 4.8 13.63 3.19 25.69 7.93 36.14 14.22 10.48 6.3 18.64 14.18 24.55 23.67 5.88 9.48 8.84 20.51 8.84 33.08h-65.61c0-4.25-1.17-8.07-3.47-11.46-2.33-3.37-5.58-6.25-9.72-8.56-4.18-2.31-8.98-4.07-14.39-5.23-5.42-1.17-11.13-1.74-17.13-1.74-9.29 0-17.43 1.06-24.37 3.19-6.97 2.13-12.78 5.28-17.43 9.44-4.66 4.17-8.13 9.19-10.47 15.08-2.3 5.91-3.47 12.74-3.47 20.48v12.77c0 10.46 1.97 19.25 5.97 26.43 3.96 7.15 9.9 12.58 17.83 16.26 7.93 3.67 17.92 5.52 29.92 5.52 8.32 0 16.02-.98 23.07-2.91 7.07-1.92 12.77-4.74 17.13-8.42 4.35-3.67 6.52-8.02 6.52-13.06v-1.17h-53.12v-40.64h118.73V480.7h-36.86l-6.37-20.91c-6.79 5.23-14.29 9.69-22.5 13.37-8.24 3.67-17.25 6.43-27.02 8.27-9.77 1.84-20.55 2.76-32.37 2.76M1553.5 280.96h67.95v199.76h-67.95zM1775.3 484.19c-24.19 0-44.52-3.49-60.97-10.46-16.47-6.97-28.89-17.27-37.31-30.92-8.42-13.65-12.63-30.43-12.63-50.37V280.95h67.95v109.47c0 13.54 3.65 24.37 11.01 32.5 7.36 8.14 17.92 12.2 31.65 12.2 13.96 0 24.58-4.06 31.94-12.2 7.36-8.13 11.04-18.96 11.04-32.5V280.95h67.92v111.49c0 19.94-4.15 36.72-12.46 50.37-8.32 13.65-20.72 23.95-37.18 30.92-16.46 6.98-36.77 10.46-60.96 10.46M1928.89 480.7V280.96h101.02l21.48 71.72c1.17 3.29 2.52 7.68 4.07 13.2 1.56 5.51 3.09 11.32 4.64 17.41 1.56 6.09 2.9 11.57 4.07 16.41h2.02c.99-4.07 2.17-8.81 3.62-14.22 1.46-5.42 3.01-11.08 4.67-16.99 1.63-5.9 3.14-11.18 4.49-15.81l21.48-71.72H2198V480.7h-66.49v-79.55c0-6.39.06-13.06.15-20.03.1-6.97.24-13.69.45-20.17.18-6.48.28-11.96.28-16.41h-2.33c-.96 4.07-2.18 8.89-3.64 14.51a817.75 817.75 0 0 1-4.48 16.55c-1.56 5.42-3.01 10.07-4.36 13.94l-28.45 91.16h-55.74l-28.75-91.16c-1.56-5.03-3.14-10.34-4.8-15.98-1.63-5.6-3.08-10.97-4.35-16.1-1.25-5.13-2.37-9.44-3.35-12.92h-2.31c.18 4.07.39 9.2.57 15.39.21 6.2.33 12.87.45 20.02.1 7.18.15 14.23.15 21.21v79.55h-62.11zM17.71 16.12H347.2v329.49H17.71z" class="st0"/><path d="M384.32 125.18v21.03h76.92v313.44H147.8v-76.91h-21.03v97.94h355.5v-355.5z"/>
  </symbol>


	
  <symbol fill="none" stroke="currentColor" xmlns="http://www.w3.org/2000/svg" viewBox="0 0 24 24" id="site-globe">
    <path stroke-linecap="round" stroke-linejoin="round" stroke-width="2" d="M21 12a9 9 0 01-9 9m9-9a9 9 0 00-9-9m9 9H3m9 9a9 9 0 01-9-9m9 9c1.657 0 3-4.03 3-9s-1.343-9-3-9m0 18c-1.657 0-3-4.03-3-9s1.343-9 3-9m-9 9a9 9 0 019-9"></path>
  </symbol>
  <symbol fill="currentColor" xmlns="http://www.w3.org/2000/svg" viewBox="0 0 20 20" id="plus-circle">
    <path fill-rule="evenodd" d="M10 18a8 8 0 100-16 8 8 0 000 16zm1-11a1 1 0 10-2 0v2H7a1 1 0 100 2h2v2a1 1 0 102 0v-2h2a1 1 0 100-2h-2V7z" clip-rule="evenodd"></path>
  </symbol>
  <symbol xmlns="http://www.w3.org/2000/svg" xml:space="preserve" viewBox="0 0 420 94" id="logo-stad-kortrijk">
    <path d="M18 3.6c7.9 0 14.4 6.5 14.4 14.4S25.9 32.4 18 32.4 3.6 25.9 3.6 18C3.609 10.104 10.104 3.609 18 3.6M18 0C8.125 0 0 8.125 0 18s8.125 18 18 18 18-8.125 18-18S27.875 0 18 0" transform="matrix(2.59271 0 0 2.59271 -.0014 -.0315)"></path>
    <path d="M0 0h12.6v3.589H0z" transform="matrix(2.59271 0 0 2.59271 30.3333 41.9705)"></path>
    <path d="m46.931 27.535-3.75-3.745-3.751 3.745-2.549-2.546 6.3-6.291 6.3 6.291-2.55 2.546Z" transform="matrix(2.59271 0 0 2.59271 -65.2626 -33.1172)"></path>
    <path d="M43.151 77.166c-3.455-.004-6.296-2.845-6.3-6.3h3.589c0 1.487 1.224 2.711 2.711 2.711 1.487 0 2.711-1.224 2.711-2.711h3.589c-.004 3.455-2.845 6.296-6.3 6.3" transform="matrix(2.59271 0 0 2.59271 -65.2108 -125.4308)"></path>
    <path d="M146.4 37.722c-.262-.252-.55-.475-.86-.665v-.078c.275-.164.529-.361.756-.587.272-.268.507-.571.7-.9l4.38-7.15h-5.24l-4.114 7.02h-1.3c.02-.1.042-.2.06-.3.111-.633.168-1.275.169-1.918v-4.8h-4.875v18.003h4.875v-6.028a7.7593 7.7593 0 0 0-.208-1.683v-.013h1.293l4.211 7.724h5.423l-4.484-7.62a3.7059 3.7059 0 0 0-.782-1" transform="matrix(2.59271 0 0 2.59271 -240.7946 -50.1824)"></path>
    <path d="M200.45 29.134a5.2927 5.2927 0 0 0-2.5-1.5 16.284 16.284 0 0 0-7.547 0 5.289 5.289 0 0 0-2.516 1.5 6.2343 6.2343 0 0 0-1.382 2.858 20.7785 20.7785 0 0 0-.417 4.567c-.029 1.529.111 3.056.417 4.554.205 1.06.681 2.05 1.382 2.871.68.727 1.553 1.247 2.516 1.5 2.481.592 5.066.592 7.547 0a5.2848 5.2848 0 0 0 2.5-1.5 6.2546 6.2546 0 0 0 1.382-2.871c.306-1.498.446-3.025.417-4.554.03-1.533-.11-3.065-.417-4.567a6.249 6.249 0 0 0-1.382-2.858m-3.611 10.9a2.6775 2.6775 0 0 1-.886 1.7 3.6318 3.6318 0 0 1-3.572 0 2.7211 2.7211 0 0 1-.9-1.7 17.7072 17.7072 0 0 1-.261-3.471c-.027-1.163.06-2.325.261-3.471.083-.657.403-1.262.9-1.7a3.6318 3.6318 0 0 1 3.572 0c.495.438.811 1.044.886 1.7.191 1.147.274 2.309.248 3.471.026 1.162-.057 2.324-.248 3.471" transform="matrix(2.59271 0 0 2.59271 -329.284 -48.1445)"></path>
    <path d="M258.144 38.623a3.032 3.032 0 0 0-1.043-.848 3.36 3.36 0 0 0-1.056-.313V37.3a4.3514 4.3514 0 0 0 2.138-.744c.516-.384.903-.917 1.108-1.527.225-.673.335-1.379.326-2.088a6.0693 6.0693 0 0 0-.743-3.275 4.0862 4.0862 0 0 0-2.333-1.657 14.1777 14.1777 0 0 0-4.119-.5c-1.133 0-2.102.004-2.907.013-.805.009-1.548.03-2.229.065-.678.035-1.399.096-2.164.183v18.016h4.8v-6.808c.654 0 1.409.011 2.268.023.401-.026.801.069 1.147.274.319.288.523.682.573 1.109l1.278 5.4h5.136l-1.486-5.559a3.6576 3.6576 0 0 0-.691-1.6m-3.666-4.025c-.132.315-.393.558-.717.665-.469.14-.958.202-1.447.183h-2.4v-4.373c.733-.005 1.533-.007 2.4-.007.489-.018.978.043 1.447.183.321.105.582.343.717.652.278.878.278 1.822 0 2.7" transform="matrix(2.59271 0 0 2.59271 -433.7522 -48.7279)"></path>
    <path d="M310.512 28.34H295.21v3.732h5.214v14.275h4.9V32.072h5.188V28.34Z" transform="matrix(2.59271 0 0 2.59271 -522.3842 -50.1798)"></path>
    <path d="M362.424 38.623a3.032 3.032 0 0 0-1.043-.848 3.36 3.36 0 0 0-1.056-.313V37.3a4.3514 4.3514 0 0 0 2.138-.744c.516-.384.903-.917 1.108-1.527.225-.673.335-1.379.326-2.088a6.0693 6.0693 0 0 0-.743-3.275 4.0862 4.0862 0 0 0-2.333-1.657 14.1777 14.1777 0 0 0-4.119-.5c-1.133 0-2.102.004-2.907.013-.805.009-1.548.03-2.229.065-.678.035-1.399.096-2.164.183v18.016h4.8v-6.808c.654 0 1.409.011 2.268.023.401-.026.801.069 1.147.274.319.288.523.682.573 1.109l1.278 5.4h5.132l-1.486-5.559a3.6576 3.6576 0 0 0-.691-1.6m-3.662-4.025c-.131.315-.393.558-.717.665-.469.14-.958.202-1.447.183h-2.4v-4.373c.733-.005 1.533-.007 2.4-.007.489-.018.978.043 1.447.183.321.105.582.343.717.652.278.878.278 1.822 0 2.7" transform="matrix(2.59271 0 0 2.59271 -618.2783 -48.7279)"></path>
    <path d="M0 0h4.849v18.006H0z" transform="matrix(2.59271 0 0 2.59271 332.5039 23.2977)"></path>
    <path d="M428.852 41.806c0 .783-.556 1.174-1.668 1.174h-1.225l-.522 3.105c.342.166.707.28 1.082.339.461.087.939.153 1.434.2.495.047.917.068 1.264.065 1.175.067 2.338-.28 3.285-.979a3.3831 3.3831 0 0 0 1.2-2.779V28.34h-4.849l-.001 13.466Z" transform="matrix(2.59271 0 0 2.59271 -752.8246 -50.1798)"></path>
    <path d="M471.363 46.347h5.423l-4.442-7.62a3.7059 3.7059 0 0 0-.782-1c-.262-.252-.55-.475-.86-.665v-.078c.275-.164.529-.361.756-.587.272-.268.507-.571.7-.9l4.38-7.15H471.3l-4.114 7.02h-1.3c.02-.1.042-.2.059-.3.111-.633.168-1.275.169-1.918v-4.8h-4.875v17.998h4.875v-6.028a7.7593 7.7593 0 0 0-.208-1.683v-.013h1.293l4.164 7.724Z" transform="matrix(2.59271 0 0 2.59271 -816.1724 -50.1824)"></path>
  </symbol>
  <symbol fill="currentColor" xmlns="http://www.w3.org/2000/svg" viewBox="0 0 20 20" id="trending-up">
    <path fill-rule="evenodd" d="M12 7a1 1 0 110-2h5a1 1 0 011 1v5a1 1 0 11-2 0V8.414l-4.293 4.293a1 1 0 01-1.414 0L8 10.414l-4.293 4.293a1 1 0 01-1.414-1.414l5-5a1 1 0 011.414 0L11 10.586 14.586 7H12z" clip-rule="evenodd"></path>
  </symbol>
  <symbol fill="currentColor" xmlns="http://www.w3.org/2000/svg" viewBox="0 0 20 20" id="terminal">
    <path fill-rule="evenodd" d="M2 5a2 2 0 012-2h12a2 2 0 012 2v10a2 2 0 01-2 2H4a2 2 0 01-2-2V5zm3.293 1.293a1 1 0 011.414 0l3 3a1 1 0 010 1.414l-3 3a1 1 0 01-1.414-1.414L7.586 10 5.293 7.707a1 1 0 010-1.414zM11 12a1 1 0 100 2h3a1 1 0 100-2h-3z" clip-rule="evenodd"></path>
  </symbol>
  <symbol fill="currentColor" xmlns="http://www.w3.org/2000/svg" viewBox="0 0 20 20" id="users">
    <path d="M13 6a3 3 0 11-6 0 3 3 0 016 0zM18 8a2 2 0 11-4 0 2 2 0 014 0zM14 15a4 4 0 00-8 0v3h8v-3zM6 8a2 2 0 11-4 0 2 2 0 014 0zM16 18v-3a5.972 5.972 0 00-.75-2.906A3.005 3.005 0 0119 15v3h-3zM4.75 12.094A5.973 5.973 0 004 15v3H1v-3a3 3 0 013.75-2.906z"></path>
  </symbol>
</svg>