<svg xmlns="http://www.w3.org/2000/svg" viewBox="0 0 505.65 378.78"><defs><style>.cls-3{fill:#231f20}</style></defs><g id="Layer_2" data-name="Layer 2"><g id="Layer_3" data-name="Layer 3"><path d="M287.61 17a96 96 0 0 0-92.34 122.41 94.43 94.43 0 0 0 6.68 17A96 96 0 1 0 287.61 17zm31.11 128.8a45.18 45.18 0 1 1 14.1-32.8 45.06 45.06 0 0 1-14.1 32.81z" stroke-width="8.5" fill="#fa2a62" stroke="#fa2a62" stroke-miterlimit="10"/><path d="M104.19 66.09a71.5 71.5 0 1 0 69 90.33 70.65 70.65 0 0 0 2.51-17v-1.84a71.58 71.58 0 0 0-71.51-71.49zm33.21 73.33a33.25 33.25 0 0 1-53.72 24.34 33.42 33.42 0 0 1-10.3-13.65 33.26 33.26 0 1 1 64.07-12.53c0 .62-.02 1.23-.05 1.84z" stroke-width="11.34" fill="#fa2a62" stroke="#fa2a62" stroke-miterlimit="10"/><path class="cls-3" d="M505.61 236.47a33.1 33.1 0 0 0-16.21-26.72 34.14 34.14 0 0 0-32.22-1.55l-74.38 35.38h-21.87v-32.32a71.2 71.2 0 0 0-.92-11.47A113 113 0 1 0 177.39 87.9 88.47 88.47 0 1 0 40.31 198.77a71.45 71.45 0 0 0-1.09 12.49V241H22.78A22.81 22.81 0 0 0 0 263.8v22.82a22.81 22.81 0 0 0 22.78 22.78h16.48a71.93 71.93 0 0 0 71.8 69.38h178a71.93 71.93 0 0 0 71.82-70.2h22l76.49 27.28a34.69 34.69 0 0 0 11.67 2 35.13 35.13 0 0 0 19.49-5.86 33.53 33.53 0 0 0 15.08-26.35v-67.37c.04-.6.03-1.21 0-1.81zM287.61 17A96 96 0 1 1 202 156.42 95.61 95.61 0 0 1 191.58 113a96.14 96.14 0 0 1 96.03-96zM46.5 179.77a71.49 71.49 0 1 1 129.19-42.19v1.84a70.65 70.65 0 0 1-2.51 17A71.5 71.5 0 0 1 46.5 179.77zM56.22 258h159.4a17.18 17.18 0 0 1 0 34.36H56.22zm287.7-14.15a20.13 20.13 0 0 0-16.63 19.8v24.79a20.12 20.12 0 0 0 16.61 19.8 54.89 54.89 0 0 1-54.81 53.5h-178a54.9 54.9 0 0 1-54.81-52.34h159.34a34.19 34.19 0 0 0 0-68.38H56.22v-29.09a88.46 88.46 0 0 0 131.7-45.66 112.94 112.94 0 0 0 156 44.77zm3.47 47.69a3.14 3.14 0 0 1-3.1-3.1v-24.76a3.14 3.14 0 0 1 3.1-3.09h30.26v31zm141.25 12.26v.94a16.62 16.62 0 0 1-7.53 13.07 17.81 17.81 0 0 1-16 2l-69.43-24.76v-38.76l68.83-32.73a17.18 17.18 0 0 1 16.2.8 15.91 15.91 0 0 1 7.93 13v.94z"/><path class="cls-3" d="M104.19 104.32a33.25 33.25 0 1 0 33.21 35.1v-1.84a33.3 33.3 0 0 0-33.21-33.26zm0 49.52a16.29 16.29 0 0 1-15.35-10.9 16.26 16.26 0 1 1 31.61-5.36c0 .62 0 1.24-.1 1.84a16.29 16.29 0 0 1-16.16 14.42zM287.61 67.84A45.18 45.18 0 1 0 332.82 113a45.26 45.26 0 0 0-45.21-45.16zm0 73.4a27.91 27.91 0 0 1-10-1.82 28.2 28.2 0 1 1 18.85.38 27.88 27.88 0 0 1-8.85 1.44z"/></g></g></svg>