<svg xmlns="http://www.w3.org/2000/svg" viewBox="0 0 513.2 553.96"><defs><style>.cls-1{fill:#fa2a62;stroke:#fa2a62;stroke-miterlimit:10;stroke-width:5.67px}</style></defs><g id="Layer_2" data-name="Layer 2"><g id="Layer_1-2" data-name="Layer 1"><path class="cls-1" d="M256.49 18.48l-123.26 146.9a26.7 26.7 0 0 1 2.82-30.2l91.18-108.66a26.73 26.73 0 0 1 29.26-8.04z"/><path class="cls-1" transform="rotate(-50 313.017 191.077)" d="M215.41 53.83h195.22v274.49H215.41z"/><path class="cls-1" d="M490 247l-91.2 108.66a26.71 26.71 0 0 1-29.25 8l123.26-146.9A26.7 26.7 0 0 1 490 247z"/><path d="M497.62 196.37l-77.18-64.76 7.63-9.09a22.3 22.3 0 0 0-2.75-31.37l-33.39-28a22.29 22.29 0 0 0-31.37 2.73L352.93 75l-77.18-64.79a43.74 43.74 0 0 0-61.55 5.38L123 124.25a43.75 43.75 0 0 0 5.39 61.56l77.18 64.76L5.2 489.38a22.31 22.31 0 0 0 2.74 31.38l33.39 28A22.29 22.29 0 0 0 72.7 546l200.39-238.79L350.27 372a43.74 43.74 0 0 0 61.55-5.38L503 257.92a43.74 43.74 0 0 0-5.38-61.55zm-124-119.56a5.33 5.33 0 0 1 7.41-.65l33.39 28a5.34 5.34 0 0 1 .65 7.41l-7.63 9.1L366 85.9zm-237.57 58.37l91.18-108.66a26.73 26.73 0 0 1 29.26-8L133.23 165.38a26.7 26.7 0 0 1 2.82-30.2zM59.67 535.09a5.33 5.33 0 0 1-7.41.66l-33.39-28a5.33 5.33 0 0 1-.64-7.41L218.62 261.5l41.44 34.78zm85.47-357.45L270.62 28.09 480.9 204.53 355.41 354.08zM490 247l-91.2 108.66a26.71 26.71 0 0 1-29.25 8l123.26-146.9A26.7 26.7 0 0 1 490 247z" fill="#231f20"/></g></g></svg>