<svg xmlns="http://www.w3.org/2000/svg" viewBox="0 0 403.68 468.29"><defs><style>.cls-2{fill:#fa2a62}</style></defs><g id="Layer_2" data-name="Layer 2"><g id="Layer_1-2" data-name="Layer 1"><path d="M389.39 26L369.6 9.35a40.08 40.08 0 0 0-56.4 4.93L34.61 346.3a21.25 21.25 0 0 0-1.38 1.82 27.09 27.09 0 0 0-3 5.53l-1.46 5.07L.34 457.43a8.5 8.5 0 0 0 11.9 10l92.21-45.09 4.74-2.32a26.87 26.87 0 0 0 4.92-3.93 20.7 20.7 0 0 0 1.55-1.68l278.6-332A40.07 40.07 0 0 0 389.39 26zm-27.82 69l-55.06-46.2 19.72-23.51a23.05 23.05 0 0 1 32.44-2.85L378.47 39a23.06 23.06 0 0 1 2.83 32.44zM76.67 417L22 443.74l16.85-58.51 4.54-15.77 48.06 40.32zm29.18-17.3l-55.06-46.22 15.35-18.3 55.07 46.21zm26.4-31.47L77.19 322 295.57 61.76 350.64 108z" fill="#231f20"/><path class="cls-2" d="M91.42 409.78l-14.75 7.21-54.7 26.75 16.85-58.51 4.54-15.77 48.06 40.32zM381.3 71.42l-19.73 23.51-55.06-46.2 19.72-23.51a23.05 23.05 0 0 1 32.44-2.85L378.47 39a23.06 23.06 0 0 1 2.83 32.42z"/></g></g></svg>