<svg xmlns="http://www.w3.org/2000/svg" viewBox="0 0 266.45 411.36"><defs><style>.cls-1{fill:#231f20}.cls-2{fill:#fa2a62}</style></defs><g id="Layer_2" data-name="Layer 2"><g id="Layer_3" data-name="Layer 3"><path class="cls-1" d="M40.15 403.17l-.03.01v-.01h.03z"/><path class="cls-1" d="M261.79 386.78c-1.84-2.39-5.27-2.93-7.29-3.25h-.16l-.33-.05c-.74-.14-1.44-.24-2.12-.34l-.44-.06a22.7 22.7 0 0 1-5.76-1.34l-1.42-.6c-4.27-1.79-8.68-3.64-12.87-5.74a90.31 90.31 0 0 1-10.83-6.4c-1.18-.83-2.37-1.79-3.51-2.72a43.46 43.46 0 0 0-5.94-4.31 6.16 6.16 0 0 0-3.17-.83l-22.75-45-.08-14.14a4.26 4.26 0 0 0-4.25-4.23h-4.18L162.56 245a3.08 3.08 0 0 0 .87-.62 3.28 3.28 0 0 0 1-2.32v-11a3.29 3.29 0 0 0-3.27-3.25h-2.7L145.84 39.32a4.28 4.28 0 0 0-4.25-4h-3.19V3.72A3.72 3.72 0 0 0 134.69 0h-3A3.72 3.72 0 0 0 128 3.72v31.62h-3.2a4.27 4.27 0 0 0-4.24 4L108 227.78h-2.76a3.27 3.27 0 0 0-3.26 3.27v11a3.27 3.27 0 0 0 1.82 2.95l-14.13 52.78H85.4a4.26 4.26 0 0 0-4.25 4.22v14l-22.74 45a6.18 6.18 0 0 0-3.07.83 44.12 44.12 0 0 0-6 4.32c-1.12.92-2.31 1.88-3.5 2.71a90.17 90.17 0 0 1-10.82 6.41c-4.2 2.1-8.62 3.95-13 5.78l-1.33.55a22 22 0 0 1-5.8 1.35l-.39.06c-.68.1-1.38.2-2 .32l-.36.06h-.19c-2.06.33-5.48.87-7.32 3.26-1.84 1.88-5.52 5.71-4.49 10.5.81 3.8 4.28 6.87 10.6 9.38A65.76 65.76 0 0 0 36 411.25c1 0 2 0 2.7.06 7.18.41 16.56-2 17.34-2.23l.23-.06c4-1.3 11.42-1.93 12.77-2h.12a110.79 110.79 0 0 0 16.22-2.33 4.12 4.12 0 0 0 .82-.33 7.92 7.92 0 0 0 4-6.62 14.36 14.36 0 0 0-.11-3.43c1.21-2.58 1.56-6.25 1.43-14.41a22.66 22.66 0 0 0-1-6.9 8 8 0 0 0-3.62-4.34c4.77-11.71 16.92-29.88 46.35-29.88s41.62 18.21 46.38 29.93A8 8 0 0 0 176 373a23 23 0 0 0-1 6.9c-.13 8.16.22 11.84 1.43 14.41a14.31 14.31 0 0 0-.12 3.43 7.9 7.9 0 0 0 3.91 6.59l.14.08a4.16 4.16 0 0 0 .74.28 110.51 110.51 0 0 0 16.22 2.31h.1c1.56.12 8.8.76 12.79 2l.24.06a71.65 71.65 0 0 0 15.65 2.27h1.69c.55 0 1.68-.09 2.69-.06a65.75 65.75 0 0 0 25.2-4.59c6.31-2.51 9.78-5.58 10.6-9.38 1.02-4.81-2.65-8.64-4.49-10.52zm-133-342.93h8.88l12.23 183.93h-33.39zm-16.28 201.44h41.33l14 52.49h-15.42L146.65 255a4.27 4.27 0 0 0-4.05-3.68l-9.31-.37-9.54.37a4.26 4.26 0 0 0-4 3.68l-5.78 42.8h-15.5zm31.33 52.49h-21.33l5.15-38.12 5.52-.22 5.52.22zM83.45 398.87a117.79 117.79 0 0 1-14.82 2.07c-1.54.12-9.45.78-14.14 2.28a68.29 68.29 0 0 1-13.74 2.06H38.9c-.65 0-1.45-.07-2.29-.07H34.1A59.9 59.9 0 0 1 13 401c-5.55-2.19-6.71-4.08-6.91-5-.09-.43-.25-1.17 1.2-3.05 6.42 4.74 16.94 7.33 31.31 7.72h3.9c11.75 0 25.73-1.32 41.56-3.92a3 3 0 0 1-.61 2.12zM84.8 391c-43.94 7.4-63.56 3.75-72.29-1.38l.48-.08.39-.06h.16c.77-.14 1.52-.25 2.28-.35h.09a27.89 27.89 0 0 0 7.25-1.75l1.42-.6c4.36-1.82 8.87-3.71 13.25-5.91a96.22 96.22 0 0 0 11.56-6.85c1.36-.94 2.71-2 3.87-3a41.84 41.84 0 0 1 5-3.7l.12-.06a.15.15 0 0 1 .09 0c.31 0 .82.72.87.79a28.77 28.77 0 0 0 1.66 2.24 34.19 34.19 0 0 0 5.14 5.42 2.3 2.3 0 0 0 .33.19 4.56 4.56 0 0 0 3.81.12l.52-.22a32.18 32.18 0 0 1 7.43-2l.68-.1a18.3 18.3 0 0 1 4.11 0 1.39 1.39 0 0 1 .34.07l.12.05a1.89 1.89 0 0 1 1.19 1.18 11.39 11.39 0 0 1 .48 2.12 26.78 26.78 0 0 1 .2 2.9c.15 5.88-.02 9.13-.55 10.98zm95 2.57l.68.11zm-46.62-63.3c-25.88 0-40.19 12.64-47.64 23.24a62.06 62.06 0 0 0-7.4 14.21 38.47 38.47 0 0 0-9.25 2.38 49.76 49.76 0 0 1-3.46-4L88 321.35h90.33L201 366.16a49.61 49.61 0 0 1-3.41 3.9 37.12 37.12 0 0 0-9.35-2.39 60.84 60.84 0 0 0-7.41-14.2c-7.45-10.6-21.75-23.24-47.66-23.24zM181.66 391c-.53-1.81-.7-5.06-.6-11a26.41 26.41 0 0 1 .2-2.89 11.32 11.32 0 0 1 .48-2.13 2 2 0 0 1 1.18-1.19 2 2 0 0 1 .46-.11 19.26 19.26 0 0 1 4.71.12 31.38 31.38 0 0 1 7.54 2.05l.53.22a4.64 4.64 0 0 0 3.79-.13 2.44 2.44 0 0 0 .4-.24 33.78 33.78 0 0 0 5-5.28c.74-.93 1.36-1.76 1.8-2.4.06-.1.67-1 .95-.8a40.54 40.54 0 0 1 5.15 3.77c1.22 1 2.52 2.05 3.86 3a96.86 96.86 0 0 0 11.57 6.84c4.37 2.19 8.87 4.08 13.23 5.91l1.44.6a28 28 0 0 0 7.22 1.75h.15c.72.09 1.47.2 2.19.33l.28.05h.32l.49.09c-8.73 5.13-28.36 8.79-72.3 1.38zm78.7 5.05c-.2.93-1.37 2.82-6.92 5a59.15 59.15 0 0 1-22.76 4.18h-4.58a68.32 68.32 0 0 1-14.1-1.99c-4.75-1.52-12.66-2.18-14.19-2.3a118.09 118.09 0 0 1-14.81-2.07 3 3 0 0 1-.66-2.05c15.83 2.6 29.8 3.92 41.55 3.92 16.41 0 28.26-2.62 35.27-7.78a4.57 4.57 0 0 1 1.25 2.61 2.44 2.44 0 0 1-.05.43z"/><path class="cls-2" d="M40.15 403.17l-.03.01v-.01h.03zM40.12 403.17zm0 0zm0 0zm0 0zm0 0zm0 0zm0 0zm0 0zm0 0zm0 0zm0 0zm0 0zm0 0zm0 0zm0 0zm0 0zm0 0z"/><path class="cls-2" d="M40.15 403.17l-.03.01v-.01h.03zM40.12 403.17z"/><path class="cls-2" d="M42.56 400.74h-3.9c-14.37-.39-24.89-3-31.31-7.72-1.5 1.82-1.35 2.56-1.25 2.98.2.93 1.36 2.82 6.91 5a59.9 59.9 0 0 0 21.07 4.19h2.51c.84 0 1.64 0 2.29.07h1.85a68.29 68.29 0 0 0 13.74-2.06c4.69-1.5 12.6-2.16 14.14-2.28a117.79 117.79 0 0 0 14.82-2.07 3 3 0 0 0 .67-2.05c-15.81 2.62-29.79 3.94-41.54 3.94zm-2.44 2.44z"/><path class="cls-2" d="M40.15 403.17l-.03.01v-.01h.03zM84.8 391c-43.94 7.4-63.56 3.75-72.29-1.38l.48-.08.39-.06h.16c.77-.14 1.52-.25 2.28-.35h.09a27.89 27.89 0 0 0 7.25-1.75l1.42-.6c4.36-1.82 8.87-3.71 13.25-5.91a96.22 96.22 0 0 0 11.56-6.85c1.36-.94 2.71-2 3.87-3a41.84 41.84 0 0 1 5-3.7l.12-.06a.15.15 0 0 1 .09 0c.31 0 .82.72.87.79a28.77 28.77 0 0 0 1.66 2.24 34.19 34.19 0 0 0 5.14 5.42 2.3 2.3 0 0 0 .33.19 4.56 4.56 0 0 0 3.81.12l.52-.22a32.18 32.18 0 0 1 7.43-2l.68-.1a18.3 18.3 0 0 1 4.11 0 1.39 1.39 0 0 1 .34.07l.12.05a1.89 1.89 0 0 1 1.19 1.18 11.39 11.39 0 0 1 .48 2.12 26.78 26.78 0 0 1 .2 2.9c.15 5.88-.02 9.13-.55 10.98zM254 389.58c-8.73 5.13-28.36 8.79-72.3 1.38-.53-1.81-.7-5.06-.6-11a26.41 26.41 0 0 1 .2-2.89 11.32 11.32 0 0 1 .48-2.13 2 2 0 0 1 1.18-1.19 2 2 0 0 1 .46-.11 19.26 19.26 0 0 1 4.71.12 31.38 31.38 0 0 1 7.54 2.05l.53.22a4.64 4.64 0 0 0 3.79-.13 2.44 2.44 0 0 0 .4-.24 33.78 33.78 0 0 0 5-5.28c.74-.93 1.36-1.76 1.8-2.4.06-.1.67-1 .95-.8a40.54 40.54 0 0 1 5.15 3.77c1.22 1 2.52 2.05 3.86 3a96.86 96.86 0 0 0 11.57 6.84c4.37 2.19 8.87 4.08 13.23 5.91l1.44.6a28 28 0 0 0 7.22 1.75h.15c.72.09 1.47.2 2.19.33l.28.05h.32zM226.31 403.17z"/><path class="cls-2" d="M259.16 393c-7 5.16-18.86 7.78-35.27 7.78-11.75 0-25.72-1.32-41.55-3.92a3 3 0 0 0 .66 2.05 118.09 118.09 0 0 0 14.84 2.07c1.53.12 9.44.78 14.19 2.3a68.32 68.32 0 0 0 14.07 2.05h4.58a59.15 59.15 0 0 0 22.76-4.33c5.55-2.19 6.72-4.08 6.92-5a2.44 2.44 0 0 0 .05-.44 4.57 4.57 0 0 0-1.25-2.56zm-32.82 10.21z"/><path class="cls-2" d="M226.34 403.17v.01l-.03-.01h.03z"/><path class="cls-2" d="M226.34 403.17v.01l-.03-.01h.03z"/><path class="cls-1" d="M226.34 403.17v.01l-.03-.01h.03z"/><path class="cls-1" d="M226.34 403.17v.01l-.03-.01h.03zM179.79 393.52l.68.1zM179.79 393.52l.68.1z"/></g></g></svg>