<svg xmlns="http://www.w3.org/2000/svg" viewBox="0 0 387.51 380.35"><defs><style>.cls-1{fill:#010101}.cls-2{fill:#fa2a62}</style></defs><g id="Layer_2" data-name="Layer 2"><g id="Layer_1-2" data-name="Layer 1"><path class="cls-1" d="M345.23 134a7.65 7.65 0 0 1-1.08-.52l1.12.79zm0 0a7.65 7.65 0 0 1-1.08-.52l1.12.79zM183.79 222.44a7.08 7.08 0 0 1-6.9-5.53c-6.54-28.93 13.45-46.66 24.92-52a7.09 7.09 0 0 1 6 12.84c-1 .48-22.71 11.19-17.1 36a7.11 7.11 0 0 1-6.92 8.65z"/><path class="cls-2" d="M340.39 99.85a9.93 9.93 0 0 0-2.85 8.77l1.36 7.86 3.47 20.29 2.76 16-39.7-20.77a9.87 9.87 0 0 0-9.21 0l-39.69 20.86 7.58-44.19a9.93 9.93 0 0 0-2.85-8.77l-32.11-31.34 32.38-4.7 12-1.74a10 10 0 0 0 7.47-5.43l.37-.75 19.47-39.45 19.84 40.2a10 10 0 0 0 7.46 5.43l44.37 6.44-18.87 18.38-12.44 12.12z"/><path class="cls-2" d="M345.27 134.22l-1.12-.79a7.65 7.65 0 0 0 1.08.52z"/><path class="cls-1" d="M345.23 134a7.65 7.65 0 0 1-1.08-.52l1.12.79z"/><path class="cls-1" d="M387.1 62.68a8.35 8.35 0 0 0-6.74-5.68l-49.78-7.23-22.27-45.11a8.34 8.34 0 0 0-15 0l-21.64 43.92c-11.89-14.34-25.22-22.17-39.78-23.36C208.83 23.36 190 39 182.19 46.71 156 34.55 134 32.5 116.79 40.62c-14.21 6.72-21.31 18.7-24.54 26.27-8-1.51-21.83-2.42-34.81 4.78-12.58 7-21.24 19.67-25.77 37.77C14 118.29 3.66 129.69.79 143.37c-3.13 14.9 3.78 28.06 8.14 34.54-10 18.71-8 40.94 5.53 57.91 13.29 16.61 34 23.47 54 18.37 10.75 25.83 33.33 41.66 65.76 45.94a156.15 156.15 0 0 0 46.59-1.36C218 317.44 245.7 352.9 256 367.48a30.24 30.24 0 0 0 24.74 12.87 30.83 30.83 0 0 0 7.28-.88c15-3.66 29-12.8 29.64-13.19a7.09 7.09 0 0 0 2.66-8.66l-24.72-59.19c29.79-8.12 42.07-28.35 47.1-44.61a90.58 90.58 0 0 0 3.56-32.06C369.5 205 381.12 187 380.84 168.3c-.35-22.67-18.31-38.76-25.92-44.56a83.52 83.52 0 0 0-2.55-20.74L385 71.24a8.36 8.36 0 0 0 2.1-8.56zm-33 101.42a8.34 8.34 0 0 0 3.32-8.16l-2.18-12.71c5.6 6.2 11.21 15 11.37 25.29.23 14.55-10.49 29.35-31.86 44a7.1 7.1 0 0 0-3 6.93c.35 2.33 8 57.29-47.22 66.94a7.08 7.08 0 0 0-5.32 9.71l25.62 61.31a87.26 87.26 0 0 1-20.19 8.31 16.18 16.18 0 0 1-17.11-6.41c-11.62-16.41-34-44.16-64.36-63.94 11.55-3.19 25.57-9.66 35.28-22.79 19.09-25.82 49.69-20.49 51-20.25a7.09 7.09 0 1 0 2.68-13.92c-1.64-.32-40.55-7.38-65 25.75-14.57 19.71-43.86 20.12-44.31 20.12h-.99a6.85 6.85 0 0 0-1.56.18 142.35 142.35 0 0 1-44.52 1.54c-28.48-3.86-47.08-17.4-55.33-40.29A109.2 109.2 0 0 0 89 218.43a6.65 6.65 0 0 0 .75-2c.1-.45 10.28-45.09 32.06-42.07a7.09 7.09 0 0 0 1.94-14c-18.39-2.54-30.5 11.5-37.94 25.8-6.49-15.13-18.47-20.93-19-21.19a7.09 7.09 0 1 0-6.06 12.82c.09 0 8.67 4.36 12.78 15.85 4.35 12.13 2.34 27.63-5.94 46.1C49 245.82 33.78 237.27 25.52 227c-8.54-10.67-13.59-28.25-2.16-45.6a7.11 7.11 0 0 0-.59-8.57c-.11-.13-11-12.89-8.09-26.6 2.1-9.81 10.88-18.36 26.1-25.41a7.09 7.09 0 0 0 3.95-5c3.36-15.68 9.92-26.36 19.48-31.71C78 76.39 94.25 82 94.39 82a7.08 7.08 0 0 0 5.78-.44A7.16 7.16 0 0 0 103.7 77c0-.16 4.1-16.51 19.3-23.59 14.07-6.57 33.46-3.77 57.63 8.32a7.1 7.1 0 0 0 8.6-1.79c.19-.23 19.13-22.4 41.58-20.55q13 1.09 24.81 12.66L221.3 57a8.35 8.35 0 0 0-4.63 14.24l36 35.11-8.5 49.59a8.35 8.35 0 0 0 12.11 8.8l44.53-23.41 44.53 23.41a8.33 8.33 0 0 0 8.79-.64zm-10-30.67a7.65 7.65 0 0 0 1.08.52v.27zm1.18-46.85l-10.43 10.21-.68.67a8.35 8.35 0 0 0-2.4 7.39l1.14 6.62 2.93 17.1 2.32 13.52-33.45-17.58a8.32 8.32 0 0 0-7.76 0l-33.45 17.58 6.39-37.24a8.38 8.38 0 0 0-2.4-7.39l-27.06-26.37 27.28-4 10.11-1.47a8.39 8.39 0 0 0 6.29-4.57l.31-.63 16.41-33.25 16.72 33.88a8.36 8.36 0 0 0 6.29 4.57l37.39 5.43z"/></g></g></svg>