<svg xmlns="http://www.w3.org/2000/svg" viewBox="0 0 560.26 617.03"><defs><style>.cls-1,.cls-3{fill:#231f20}.cls-2{fill:#fa2a62}.cls-2,.cls-3{stroke:#fa2a62;stroke-linejoin:round;stroke-width:5.67px}</style></defs><g id="Layer_2" data-name="Layer 2"><g id="kwast"><path class="cls-1" d="M50.78 568.79a24 24 0 1 0-3-33.83 24 24 0 0 0 3 33.83zm21.76-25.94a9.84 9.84 0 1 1-13.88 1.21 9.85 9.85 0 0 1 13.88-1.21z"/><path class="cls-2" d="M411.37 296.8l108.45-129.25a3.35 3.35 0 0 1 4.61-.41L542.1 182a3.31 3.31 0 0 1 .4 4.61L434 315.9c-.43-.44-.89-.86-1.37-1.27z"/><path class="cls-3" d="M398.44 286l108.45-129.3a2.6 2.6 0 0 0 .42-.67c-.17.19-.35.38-.52.59L398.34 285.87z"/><path class="cls-2" d="M375.76 266.92l108.46-129.24a2.75 2.75 0 0 1 .59-.54 3.3 3.3 0 0 1 4 .13l17.66 14.82a3.32 3.32 0 0 1 .82 3.94 2.6 2.6 0 0 1-.42.67L398.44 286z"/><path class="cls-3" d="M362.83 256.07l108.45-129.24a2.88 2.88 0 0 0 .43-.68c-.18.19-.35.39-.53.59L362.73 256zm48.64 40.82l108.45-129.25.49-.62a3.29 3.29 0 0 0-.59.53L411.37 296.8z"/><path class="cls-2" d="M340.16 237.05L448.61 107.8a2.67 2.67 0 0 1 .59-.53 3.32 3.32 0 0 1 4 .12l17.67 14.82a3.32 3.32 0 0 1 .82 3.94 2.88 2.88 0 0 1-.43.68L362.83 256.07z"/><path class="cls-3" d="M375.86 267l108.45-129.24c.18-.21.34-.41.5-.62a2.75 2.75 0 0 0-.59.54L375.76 266.92zm-48.63-40.8L435.68 97a3 3 0 0 0 .42-.67c-.17.19-.35.38-.52.59L327.13 226.11z"/><path class="cls-2" d="M304.55 207.17L413 77.92a3.35 3.35 0 0 1 .6-.53 3.32 3.32 0 0 1 4 .12l17.66 14.83a3.31 3.31 0 0 1 .82 3.94 3 3 0 0 1-.42.67L327.23 226.2z"/><path class="cls-3" d="M291.62 196.32L400.07 67.07a2.83 2.83 0 0 0 .43-.67c-.18.19-.35.38-.53.59L291.52 196.24zm48.64 40.81l108.45-129.25c.17-.2.33-.41.49-.61a2.67 2.67 0 0 0-.59.53L340.16 237.05z"/><path class="cls-2" d="M269 177.29L377.4 48.05a3 3 0 0 1 .59-.54 3.3 3.3 0 0 1 4 .13l17.67 14.82a3.32 3.32 0 0 1 .82 3.94 2.83 2.83 0 0 1-.43.67L291.62 196.32z"/><path class="cls-3" d="M304.65 207.25L413.1 78c.18-.21.34-.41.5-.62a3.35 3.35 0 0 0-.6.53L304.55 207.17zM256 166.44L364.47 37.2a3.2 3.2 0 0 0 .42-.68l-.52.59-108.45 129.25z"/><path class="cls-2" d="M233.28 147.49L341.79 18.17a3.33 3.33 0 0 1 4.62-.41l17.66 14.82a3.32 3.32 0 0 1 .82 3.94 3.2 3.2 0 0 1-.42.68L256 166.44l-21.25-17.83c-.47-.4-.96-.78-1.47-1.12z"/><path class="cls-3" d="M269.05 177.38L377.5 48.13l.49-.62a3 3 0 0 0-.59.54L269 177.29z"/><path class="cls-1" d="M115.79 394.75l-102.41 122a57.34 57.34 0 0 0 7.06 80.7l7.34 6.16a57.33 57.33 0 0 0 80.69-7.06l102.41-122a136.61 136.61 0 0 0 147.3-41.83l197.35-235.2a20.32 20.32 0 0 0-2.5-28.58l-17.67-14.82a20.19 20.19 0 0 0-11.36-4.67 20.09 20.09 0 0 0-6.57-10.38l-17.66-14.83a20.22 20.22 0 0 0-11.37-4.67 20.19 20.19 0 0 0-6.57-10.38l-17.68-14.82a20.19 20.19 0 0 0-11.37-4.67 20.15 20.15 0 0 0-6.57-10.39l-17.67-14.82a20.19 20.19 0 0 0-11.36-4.67 20.17 20.17 0 0 0-6.58-10.38l-17.66-14.83a20.19 20.19 0 0 0-11.37-4.67A20.13 20.13 0 0 0 375 19.56L357.33 4.74a20.29 20.29 0 0 0-28.57 2.5L131.41 242.43a136.62 136.62 0 0 0-15.62 152.32zM95.45 585.66a40.32 40.32 0 0 1-56.74 5l-7.34-6.16a40.33 40.33 0 0 1-5-56.74l98.86-117.81a136.33 136.33 0 0 0 23 24.7L166 449.52a136.06 136.06 0 0 0 28.31 18.33zm424.37-418.11a3.35 3.35 0 0 1 4.61-.41L542.1 182a3.31 3.31 0 0 1 .4 4.61L434 315.9c-.43-.44-.89-.86-1.37-1.27l-21.26-17.83zm-35.6-29.87a2.75 2.75 0 0 1 .59-.54 3.3 3.3 0 0 1 4 .13l17.66 14.82a3.32 3.32 0 0 1 .82 3.94 2.6 2.6 0 0 1-.42.67L398.44 286l-22.68-19zm-35.61-29.88a2.67 2.67 0 0 1 .59-.53 3.32 3.32 0 0 1 4 .12l17.67 14.82a3.32 3.32 0 0 1 .82 3.94 2.88 2.88 0 0 1-.43.68L362.83 256.07l-22.67-19zM413 77.92a3.35 3.35 0 0 1 .6-.53 3.32 3.32 0 0 1 4 .12l17.66 14.83a3.31 3.31 0 0 1 .82 3.94 3 3 0 0 1-.42.67L327.23 226.2l-22.68-19zm-35.6-29.87a3 3 0 0 1 .59-.54 3.3 3.3 0 0 1 4 .13l17.67 14.82a3.32 3.32 0 0 1 .82 3.94 2.83 2.83 0 0 1-.43.67L291.62 196.32l-22.67-19zm-35.61-29.88a3.33 3.33 0 0 1 4.62-.41l17.66 14.82a3.32 3.32 0 0 1 .82 3.94 3.2 3.2 0 0 1-.42.68L256 166.44l-21.25-17.83c-.49-.4-1-.78-1.49-1.12zM221.22 161.86a1.88 1.88 0 0 1 2.61-.22l197.86 166a1.89 1.89 0 0 1 .23 2.62l-27.64 32.94-200.7-168.4zm-38.58 46l200.71 168.39-38.2 45.52a119.56 119.56 0 0 1-122.36 38.58 115.55 115.55 0 0 1-17.15-6 118.92 118.92 0 0 1-28.71-17.85l-17.78-14.92a118.71 118.71 0 0 1-22.56-25.17 115.16 115.16 0 0 1-8.89-15.86 119.54 119.54 0 0 1 16.74-127.19z"/></g></g></svg>