<svg xmlns="http://www.w3.org/2000/svg" viewBox="0 0 171.77 472.17"><g data-name="Layer 2"><path fill="#fa2a62" stroke="#fa2a62" stroke-miterlimit="10" stroke-width="5.67" d="M50.65 14.17h70.48v27.8H50.65z"/><path d="M171.57 116.29a17.44 17.44 0 0 0-.66-2.9 5 5 0 0 0-.31-.61l-4.08-6.92-32.22-54.69a16.51 16.51 0 0 0-1-1.54 13.53 13.53 0 0 0 2-7.16V13.68A13.69 13.69 0 0 0 121.62 0H50.15a13.69 13.69 0 0 0-13.68 13.68v28.79a13.54 13.54 0 0 0 2 7.16 14.83 14.83 0 0 0-1 1.54L5.28 105.79l-4.11 7a5.71 5.71 0 0 0-.31.6 17.44 17.44 0 0 0-.66 2.9A19.14 19.14 0 0 0 0 119v298.76a19.26 19.26 0 0 0 3.27 10.75 3.24 3.24 0 0 0 .21.35L14.05 445a60 60 0 0 0 50.34 27.2h43a60 60 0 0 0 50.34-27.2l10.54-16.08c.14-.21.27-.42.39-.64a19.08 19.08 0 0 0 3.09-10.45V119a19.14 19.14 0 0 0-.18-2.71zM50.65 14.17h70.48V42H50.65zm-1.19 44.07a3.29 3.29 0 0 1 2.81-1.61h67.23a3.27 3.27 0 0 1 2.81 1.61l24.47 41.5H25zM146 437.05l-.1.15a45.9 45.9 0 0 1-38.52 20.8h-43a45.87 45.87 0 0 1-38.48-20.8l-.1-.15-7-10.64H153zm11.47-24.81H14.33V119a5 5 0 0 1 5-5h133.15a5 5 0 0 1 5 5z" fill="#231f20"/></g></svg>