<?xml version="1.0" standalone="no"?>
<!DOCTYPE svg PUBLIC "-//W3C//DTD SVG 20010904//EN"
 "http://www.w3.org/TR/2001/REC-SVG-20010904/DTD/svg10.dtd">
<svg version="1.0" xmlns="http://www.w3.org/2000/svg"
 width="1024.000000pt" height="1024.000000pt" viewBox="0 0 1024.000000 1024.000000"
 preserveAspectRatio="xMidYMid meet">
<metadata>
Created by potrace 1.11, written by Peter Selinger 2001-2013
</metadata>
<g transform="translate(0.000000,1024.000000) scale(0.100000,-0.100000)"
fill="#000000" stroke="none">
<path d="M3010 9688 c-47 -5 -147 -9 -223 -8 -763 4 -1344 -202 -1777 -630
-540 -534 -848 -1399 -911 -2555 -13 -247 -7 -885 11 -1080 49 -546 144 -995
291 -1378 200 -518 507 -924 898 -1186 341 -229 749 -357 1246 -390 237 -17
1073 -8 1221 12 631 86 1171 298 1686 661 l87 61 1 1603 0 1602 -993 0 c-547
0 -1170 -3 -1385 -7 l-392 -6 0 -554 0 -553 493 -2 492 -3 3 -675 c1 -371 0
-685 -3 -696 -9 -39 -313 -161 -494 -199 -55 -12 -75 -12 -143 1 -113 21 -201
50 -293 96 -115 58 -191 115 -286 216 -321 342 -478 957 -496 1947 -11 623 33
1158 127 1541 108 444 303 731 596 875 106 53 144 58 222 26 78 -31 192 -103
260 -163 156 -137 292 -416 353 -721 12 -62 27 -113 32 -113 6 0 140 16 297
35 157 19 440 53 630 75 190 22 368 45 395 51 28 5 162 23 299 40 138 16 251
31 253 33 8 7 -29 191 -68 350 -122 484 -334 870 -640 1161 -289 276 -677 452
-1129 514 -218 30 -485 38 -660 19z"/>
<path d="M7198 7810 c-530 -50 -931 -371 -1180 -944 -207 -476 -303 -1141
-270 -1863 14 -310 33 -482 77 -708 169 -855 598 -1376 1219 -1477 100 -16
335 -16 437 1 70 11 105 12 176 2 229 -29 431 -5 628 75 61 24 115 44 119 44
14 0 -1 -494 -18 -605 -51 -319 -157 -524 -320 -620 l-46 -27 -55 28 c-145 73
-268 281 -305 515 l-12 76 -455 7 c-251 3 -658 3 -905 0 l-450 -7 7 -91 c15
-204 76 -477 141 -635 50 -121 85 -186 152 -287 244 -365 635 -571 1191 -629
161 -17 1007 -20 1191 -4 183 16 394 56 525 100 149 51 346 150 445 225 157
118 323 303 424 471 140 235 241 552 291 923 31 227 35 556 35 2906 l0 2361
-437 6 c-240 4 -642 7 -894 7 l-459 0 -57 30 c-88 46 -252 98 -350 111 -96 13
-305 7 -388 -11 -39 -8 -66 -7 -120 4 -94 19 -232 26 -337 16z m874 -1087
c163 -125 260 -371 314 -794 21 -168 30 -841 15 -1079 -26 -393 -88 -644 -202
-815 -55 -81 -152 -175 -182 -175 -10 0 -49 29 -86 64 -187 181 -276 474 -311
1021 -27 425 0 949 65 1255 22 103 83 268 128 345 40 68 175 215 198 215 7 0
34 -17 61 -37z"/>
</g>
</svg>
