<svg xmlns="http://www.w3.org/2000/svg" viewBox="0 0 380.84 366.05"><defs><style>.cls-1{fill:#0e55a3}</style></defs><g id="Layer_2" data-name="Layer 2"><g id="brain_prikkels" data-name="brain prikkels"><path class="cls-1" d="M380.84 154c-.35-22.67-18.31-38.76-25.92-44.56-.14-21.25-6.66-37.56-19.41-48.54-18.44-15.9-44.33-15.46-55.05-14.45-14-22.1-30.32-34-48.57-35.53C216.51 9.68 203 16.22 193.4 23l3.54-20.89a1.82 1.82 0 0 0-3.26-1.36L173.27 28.6C151 19.91 132 19.14 116.79 26.32 102.58 33 95.48 45 92.25 52.59c-8-1.51-21.83-2.42-34.81 4.78C44.86 64.34 36.2 77 31.67 95.14 14 104 3.66 115.39.79 129.07c-3.13 14.9 3.78 28.06 8.14 34.54-10 18.71-8 40.94 5.53 57.91 13.29 16.61 34 23.47 54 18.37 10.75 25.83 33.33 41.66 65.76 45.94a156.15 156.15 0 0 0 46.59-1.36C218 303.14 245.7 338.6 256 353.18a30.24 30.24 0 0 0 24.74 12.87 30.83 30.83 0 0 0 7.28-.88c15-3.66 29-12.8 29.64-13.19a7.09 7.09 0 0 0 2.66-8.66l-24.72-59.19c29.79-8.12 42.07-28.35 47.1-44.61a90.58 90.58 0 0 0 3.56-32.06c23.24-16.79 34.86-34.77 34.58-53.46zm-46 44.2a7.1 7.1 0 0 0-3 6.93c.35 2.33 8 57.29-47.22 66.94a7.08 7.08 0 0 0-5.32 9.71l25.62 61.31a87.26 87.26 0 0 1-20.19 8.31 16.18 16.18 0 0 1-17.15-6.4c-11.62-16.41-34-44.16-64.36-63.94 11.55-3.19 25.57-9.66 35.28-22.79 19.08-25.82 49.69-20.49 51-20.25a7.09 7.09 0 1 0 2.68-13.92c-1.64-.31-40.55-7.38-65 25.75-14.65 19.7-43.94 20.15-44.39 20.15h-.97a6.85 6.85 0 0 0-1.56.18 142 142 0 0 1-44.49 1.59c-28.48-3.86-47.08-17.4-55.33-40.29A109.2 109.2 0 0 0 89 204.13a6.65 6.65 0 0 0 .75-2c.1-.45 10.26-45.08 32.06-42.07a7.09 7.09 0 0 0 1.94-14c-18.39-2.53-30.5 11.5-37.94 25.8-6.49-15.13-18.47-20.93-19-21.19a7.09 7.09 0 1 0-6.06 12.82c.09 0 8.67 4.36 12.78 15.85 4.35 12.13 2.34 27.63-5.94 46.1-18.55 6.11-33.82-2.44-42.08-12.75C17 202 11.93 184.41 23.36 167.06a7.11 7.11 0 0 0-.59-8.57c-.11-.13-11-12.89-8.09-26.6 2.1-9.81 10.88-18.36 26.1-25.41a7.09 7.09 0 0 0 3.95-5c3.36-15.68 9.92-26.36 19.48-31.71 13.81-7.73 30-2.15 30.18-2.11a7.08 7.08 0 0 0 5.78-.44 7.16 7.16 0 0 0 3.53-4.61c0-.16 4.1-16.51 19.3-23.59 10.8-5 24.74-4.57 41.57 1.39l-24.33 33.2a2.23 2.23 0 0 0 2 3.54L170.36 75l-13.06 59.24a1.31 1.31 0 0 0 2.35 1l50.47-70.13a3.55 3.55 0 0 0-2.88-5.63l-19.87-.88 2.29-13.54c2.94-3.27 20.57-21.76 41.15-20.06 14.44 1.21 27.85 12.17 39.88 32.6A7.13 7.13 0 0 0 278 61c.3-.05 30.15-5 48.28 10.65C334 78.34 338.67 88 340.2 100.54 329.07 95 311 88 290.8 88a7.09 7.09 0 0 0 0 14.18c14.15 0 27.33 4.15 37 8.31a106.64 106.64 0 0 1 15.77 8.3l.19.13a4.66 4.66 0 0 0 .47.3c2.5 1.71 22.12 15.62 22.42 35 .24 14.55-10.48 29.35-31.85 43.98z"/><path class="cls-1" d="M183.79 208.14a7.07 7.07 0 0 1-6.9-5.53c-6.54-28.93 13.45-46.65 24.92-52a7.09 7.09 0 0 1 6 12.84c-1 .47-22.71 11.19-17.1 36a7.07 7.07 0 0 1-6.92 8.65zM278.23 118l-6.65 39 13.81.89a2.47 2.47 0 0 1 2 3.91l-35.08 48.75a.92.92 0 0 1-1.64-.73l9.08-40.28-19.57.63a1.54 1.54 0 0 1-1.37-2.45L276 117.08a1.26 1.26 0 0 1 2.23.92z"/></g></g></svg>