<svg xmlns="http://www.w3.org/2000/svg" viewBox="0 0 207.45 379.66"><defs><style>.cls-1{fill:#fff}</style></defs><g id="Layer_2" data-name="Layer 2"><g id="nose"><path class="cls-1" d="M67 262.68a1 1 0 0 1-.11.29l.19.21c-.08-.18-.08-.34-.08-.5zm-13 .4v.08a.05.05 0 0 1-.08-.08z"/><path class="cls-1" d="M185.43 139.65a72.23 72.23 0 0 0-19.89-9.16l-.68-11.58c0-53-9.49-89-28.13-107.24C125.36.55 114.1-.1 110.91 0h-.72C107-.06 95.76.55 84.38 11.67 65.75 29.87 56.29 66 56.27 118.91l-.68 11.58a72.61 72.61 0 0 0-19.89 9.17c-11.7 7.87-24.91 22.67-21.46 48.49 1.88 14 9.41 26.2 20.66 33.41a40 40 0 0 0 18.37 6.28v21.72l-30.81 34.22a4.78 4.78 0 0 0 3.56 8h10.4l-23.58 27.58a4.8 4.8 0 0 0 3.65 7.91H26L1.15 356.38a4.79 4.79 0 0 0 3.64 7.9H45.5v10.59a4.81 4.81 0 0 0 4.79 4.79H70.66a4.8 4.8 0 0 0 4.79-4.79v-10.59h40.71a4.79 4.79 0 0 0 3.65-7.9l-24.89-29.12h9.54a4.79 4.79 0 0 0 3.64-7.9l-23.58-27.59h10.4a4.79 4.79 0 0 0 3.56-8l-31-34.45v-22c2.29-.32 4.62-.75 7-1.25 5 5.56 15.88 14.17 35.89 14.17h.42c18.68 0 29.43-7.51 34.82-13 .38-.4.73-.77 1.06-1.14h.16c14.83 3.1 27.42 3.17 39.41-4.51 11.25-7.21 18.78-19.39 20.65-33.41 3.45-25.87-9.76-40.66-21.46-48.53zm-114.34 128l13.07 14.51h-10a4.79 4.79 0 0 0-3.64 7.9l23.58 27.59h-9.57a4.79 4.79 0 0 0-3.65 7.9l24.89 29.11H70.66a4.79 4.79 0 0 0-4.79 4.8v10.58H55.15v-10.55a4.78 4.78 0 0 0-4.79-4.79H15.18l24.88-29.11a4.8 4.8 0 0 0-3.64-7.91h-9.54l23.58-27.59a4.79 4.79 0 0 0-3.64-7.9h-10l13.08-14.53a11.22 11.22 0 0 0 21.23 0zm-10.73-.47a7.1 7.1 0 0 0 6.49-4.18 1 1 0 0 0 .11-.29c0 .16.06.33.08.5a6.11 6.11 0 0 1 .06.86 6.63 6.63 0 1 1-13.25 0 6.4 6.4 0 0 1 .06-.88v-.08a.05.05 0 0 0 0 .05 7.08 7.08 0 0 0 6.45 4.05zm132.48-80.95c-1.32 9.88-6.51 18.4-14.25 23.36-6.84 4.38-14.46 5.3-26.88 3a64.45 64.45 0 0 0 .91-9.38h11.74a7.09 7.09 0 0 0 0-14.18h-19a7.09 7.09 0 0 0-7.05 7.76c.31 3.3.46 13.72-2.58 20.26-3.11 3.33-10.52 9-24.95 9h-.42c-11.46 0-18.5-3.57-22.47-6.7a7.47 7.47 0 0 0-.64-1.08c-4.27-5.94-4.2-18.53-3.84-22.46a7.09 7.09 0 0 0-7-7.76h-19a7.09 7.09 0 1 0 0 14.18H69.1a64.52 64.52 0 0 0 1.07 10.23c-12.86 2.52-20.66 1.65-27.62-2.81-7.74-5-12.94-13.48-14.26-23.36-4.77-35.62 33.65-42.88 35.27-43.16a7.09 7.09 0 0 0 5.87-6.57l1-17v-.42c0-61.17 13-86.68 23.85-97.31 7.6-7.43 14.31-7.65 15.58-7.63h1.38c1.26 0 8 .19 15.58 7.62 10.88 10.63 23.85 36.15 23.86 97.32v.41l1 17a7.11 7.11 0 0 0 5.85 6.57c1.66.27 40.07 7.52 35.31 43.14z"/><path class="cls-1" d="M146.83 226.06a7.12 7.12 0 0 1-1.22 1.11c.38-.4.73-.77 1.06-1.14z"/></g></g></svg>