<svg xmlns="http://www.w3.org/2000/svg" viewBox="0 0 420.22 314.74"><defs><style>.cls-1{fill:#0e55a3}</style></defs><g id="Layer_2" data-name="Layer 2"><g id="final"><path class="cls-1" d="M324.28 59.63L311.52 43a19.13 19.13 0 0 0-26.75-3.56L284 40a19.19 19.19 0 0 0-3.2 3.1l-18.6-5.72a19.11 19.11 0 0 0-19-16.82h-18.9l-.71-13.84A7.07 7.07 0 0 0 216.15 0L96 6.16a7.09 7.09 0 0 0-6.72 7.44L93.14 89a7.12 7.12 0 0 0 2.33 4.9 7 7 0 0 0 4.62 1.82c0 29.82-5.37 65.24-14.73 95.54-4 13-7.79 24.38-11.13 34.45-1.67 5.05-3.2 9.67-4.54 13.83a35 35 0 0 1-19.29 21.61 30.57 30.57 0 0 1-12 2.52 54.82 54.82 0 0 1-6.36-.58c-7.77-1-18.41-2.33-25.39 5.93a27.34 27.34 0 0 0-6.5 20.45A25.22 25.22 0 0 0 10 306.92a39.15 39.15 0 0 0 23.7 7.82h61.52a41.4 41.4 0 0 0 35.31-19.89l.16-.27a265.8 265.8 0 0 1 36-47.57c13.91-14.46 18.37-17.15 19.41-17.63 1.26-.58 4.44-1.61 7.82-2.7 13-4.18 34.7-11.18 50.78-23.83a44.49 44.49 0 0 0 2.71-67.35c-20.33-19-22.4-29.51-25-42.79l-.65-3.29a7.07 7.07 0 0 0 5.68-7.31l-1.14-22.37h16.92a19.07 19.07 0 0 0 15.86-8.49l17.46 5.37a18.92 18.92 0 0 0 3.87 10.14l12.76 16.68a19.08 19.08 0 0 0 15.18 7.48 18.4 18.4 0 0 0 2.87-.22l4 8.5 10.31-11.34-2-4.18a19.1 19.1 0 0 0 .75-24.05zM17.42 278.17c1-1.23 2.91-1.65 5.45-1.65a61.43 61.43 0 0 1 7.34.63 65.89 65.89 0 0 0 8.14.69h.72c-1.31 1.09-4.34 2.61-11.26 3.19-5.76.48-9.8.69-12.61.75a14 14 0 0 1 2.22-3.61zm220.33-132.33a30.39 30.39 0 0 1 9.59 23.54A30 30 0 0 1 236 191.71c-14.07 11.08-34.28 17.59-46.36 21.48a99.44 99.44 0 0 0-9.41 3.32c-3.19 1.47-8.76 5.15-23.69 20.68a279.58 279.58 0 0 0-38 50.09l-.15.26a27.17 27.17 0 0 1-23.17 13H33.73a24.94 24.94 0 0 1-15.09-4.9 11.11 11.11 0 0 1-3.89-5.38c3.3 0 7.74-.29 13.76-.79 9.81-.81 16.14-3.66 18.84-8.46a10.55 10.55 0 0 0 1.34-4.43 45 45 0 0 0 7.31-2.4 49.11 49.11 0 0 0 27.21-30.31c1.33-4.12 2.85-8.7 4.51-13.71C91 220 94.85 208.54 98.9 195.44c9.82-31.76 15.38-69 15.35-100.43l93.2-4.78c.39 1.77.73 3.51 1.07 5.22 2.87 14.55 5.57 28.25 29.23 50.39zM225.58 45.56L225 34.74h16.65a7.07 7.07 0 0 0 .45 10.82zm83.53 24.12a7.06 7.06 0 0 0-4 5.82 3.83 3.83 0 0 1-.65-.68l-10-13.09a7.07 7.07 0 0 0 6.54-9.24l12 15.75a5 5 0 0 1 .55.91 7.11 7.11 0 0 0-4.44.53zM407.37 230.59a7.09 7.09 0 0 1-7.06 7.11 7.08 7.08 0 0 1-7.08-7.07c-.08-25.32-22-36.48-22.19-36.59a7.09 7.09 0 0 1 6.3-12.7c1.19.66 29.93 15.26 30.03 49.25z"/><path d="M407.37 230.59a7.09 7.09 0 0 1-7.06 7.11 7.08 7.08 0 0 1-7.08-7.07c-.08-25.32-22-36.48-22.19-36.59a7.09 7.09 0 0 1 6.3-12.7c1.19.66 29.93 15.26 30.03 49.25z" fill="#fff"/><path class="cls-1" d="M355.73 159.52l-3.54-20.11a19.1 19.1 0 0 0-17.87-15.75l-3.66-10.47-11.45 10.2 1.54 4.41a19.09 19.09 0 0 0-7.14 18.41l3.09 17.58a76 76 0 1 0 39-4.27zm-28.16-15.77a5.33 5.33 0 0 1-.06-1.26 7.07 7.07 0 0 0 9.95-2.48 4.59 4.59 0 0 1 .77 1.86l3 16.84a74.85 74.85 0 0 0-10.78 1.2zm72.74 93.95a7.08 7.08 0 0 1-7.08-7.07c-.08-25.32-22-36.48-22.19-36.59a7.09 7.09 0 0 1 6.3-12.7c1.22.61 30 15.26 30.06 49.25a7.09 7.09 0 0 1-7.09 7.11zM314.3 112.51a3 3 0 0 1-.88-.14l-9-2.91a2.84 2.84 0 0 1 1.75-5.4l9 2.92a2.83 2.83 0 0 1-.87 5.53zM332.69 105.85a2.83 2.83 0 0 1-2.23-4.58l5.8-7.43a2.84 2.84 0 0 1 4.47 3.49l-5.81 7.43a2.8 2.8 0 0 1-2.23 1.09z"/></g></g></svg>