<svg xmlns="http://www.w3.org/2000/svg" viewBox="0 0 352.17 333.18"><defs><style>.cls-1{fill:#fff}</style></defs><g id="Layer_2" data-name="Layer 2"><g id="Layer_9" data-name="Layer 9"><path class="cls-1" d="M352.16 63.74a.15.15 0 0 0 0-.07 3.57 3.57 0 0 0 0-.47 1.92 1.92 0 0 1 .05.41 7.1 7.1 0 0 0-3.33-6.51c-.22-.14-23-14.29-49.43-28.25-21.33-11.26-39-19.26-52.87-23.92-.88-.3-1.74-.59-2.59-.85Q231.2 0 223.09 0a65.26 65.26 0 0 0-47 19.12.06.06 0 0 1-.09 0A65.25 65.25 0 0 0 129.09 0C96 0 12.73 51.23 3.35 57.07A7.1 7.1 0 0 0 0 63.58a1.83 1.83 0 0 1 .05-.4 2.38 2.38 0 0 0 0 .46.13.13 0 0 0 0 .06 1 1 0 0 0 0 .17 6.13 6.13 0 0 0 0 .86.88.88 0 0 0 0 .17 5.07 5.07 0 0 0 .09.54.08.08 0 0 0 0 .07 4.77 4.77 0 0 0 .13.51.66.66 0 0 0 .06.2 4.09 4.09 0 0 0 .18.49.18.18 0 0 0 0 .1 2.92 2.92 0 0 0 .17.36 2.26 2.26 0 0 0 .17.35 1.74 1.74 0 0 0 .11.18 3.87 3.87 0 0 0 .21.34 3.15 3.15 0 0 0 .22.29l.16.21.08.1c48.39 57.07 112.16 72.4 148.25 76.35a.09.09 0 0 1 .06.07v62.78a.07.07 0 0 1-.12 0l-13.6-14.64a7 7 0 0 0-3.31-2 38 38 0 0 0-46.51 25.53l-.08.27a7.09 7.09 0 0 0 .81 5.93l69 107a7.11 7.11 0 0 0 6 3.25h107a7.08 7.08 0 0 0 6.43-4.12l13-28.05a193.76 193.76 0 0 0 17.71-80.62v-81.3a7.08 7.08 0 0 0-2.84-5.67 34 34 0 0 0-34.47-3.6h-.09a7.15 7.15 0 0 0-1.34-2.33v-.1c33.43-13.37 61.3-33.06 83-58.68l.08-.1.16-.21a3.15 3.15 0 0 0 .22-.29 3.87 3.87 0 0 0 .21-.34 1.74 1.74 0 0 0 .11-.18 2.26 2.26 0 0 0 .17-.35 2.92 2.92 0 0 0 .17-.36.18.18 0 0 0 0-.1 4.09 4.09 0 0 0 .18-.49.66.66 0 0 0 .06-.2 4.77 4.77 0 0 0 .13-.51.08.08 0 0 0 0-.07 5.07 5.07 0 0 0 .09-.54.88.88 0 0 0 0-.17 6.13 6.13 0 0 0 0-.86.92.92 0 0 0 .05-.2zM129.09 14.18c26.47 0 39.51 17.56 40.95 19.61l.11.17a3.28 3.28 0 0 0 .27.38 1.56 1.56 0 0 0 .16.2 3.31 3.31 0 0 0 .25.3 6.14 6.14 0 0 0 .51.51 3.31 3.31 0 0 0 .3.25 1.56 1.56 0 0 0 .2.16 3.28 3.28 0 0 0 .38.27 6.76 6.76 0 0 0 1.34.68 5.57 5.57 0 0 0 .79.25 6.91 6.91 0 0 0 .79.16h1.9a6.91 6.91 0 0 0 .79-.16 5.57 5.57 0 0 0 .79-.25A7.33 7.33 0 0 0 180 36a3.28 3.28 0 0 0 .38-.27 1.56 1.56 0 0 0 .2-.16 3.31 3.31 0 0 0 .3-.25 6.14 6.14 0 0 0 .51-.51 3.31 3.31 0 0 0 .25-.3 1.56 1.56 0 0 0 .16-.2 3.28 3.28 0 0 0 .2-.31l.11-.17A49.5 49.5 0 0 1 209.3 15.9a.08.08 0 0 1 .08.11L203 26.39a7.09 7.09 0 0 0 12.1 7.4l11-18a7.5 7.5 0 0 0 .63-1.31.06.06 0 0 1 .07 0 50.55 50.55 0 0 1 5.61 1 .07.07 0 0 1 0 .1l-5.51 10.07a7.08 7.08 0 1 0 12.38 6.88l7-12.67a.06.06 0 0 1 .08 0c1.92.71 3.9 1.48 5.91 2.29a.07.07 0 0 1 0 .1l-3.5 6.51a7.09 7.09 0 0 0 2.88 9.6 7 7 0 0 0 3.35.85 7.08 7.08 0 0 0 6.25-3.73l4.09-7.58a.05.05 0 0 1 .08 0c19.24 8.82 40.39 20.37 56.73 29.84a.07.07 0 0 1 0 .13l-81.76 2.9c-13.87.5-27.72.84-41.2 1a.07.07 0 0 1-.06-.07v-7.58a7.14 7.14 0 0 0-2.77-5.64l-.59-.46a34.38 34.38 0 0 0-43.23.6 7.08 7.08 0 0 0-2.54 5.47v7.52a.07.07 0 0 1-.07.07c-12.53-.18-25.36-.51-38.19-1L30 57.81a.07.07 0 0 1 0-.13c31-17.98 79.37-43.5 99.09-43.5zM23.91 71.89a.06.06 0 0 1 .05-.11l87.28 3.1c13 .47 26 .79 38.69 1a.07.07 0 0 1 .07.07v54.77a.07.07 0 0 1-.08.07c-31.29-3.67-83.24-16.35-126.01-58.9zm245.27 123.9V149a5.29 5.29 0 0 1 2.14-4.25A19.71 19.71 0 0 1 292 143a.08.08 0 0 1 0 .06v77.36a179.43 179.43 0 0 1-16.4 74.68l-11 23.89a.07.07 0 0 1-.06 0H166l-65-100.75v-.06a23.81 23.81 0 0 1 26.36-13.69l24.53 26.4a7.08 7.08 0 0 0 12.28-4.82V57.78a.07.07 0 0 1 0-.06 20.29 20.29 0 0 1 20.75 0 .08.08 0 0 1 0 .06v102a7.3 7.3 0 0 0 6.21 7.34 7.11 7.11 0 0 0 8-7v-32.37a2.79 2.79 0 0 1 1.45-2.46A19.74 19.74 0 0 1 219 125a.08.08 0 0 1 0 .06v59.76a7.3 7.3 0 0 0 6.21 7.34 7.11 7.11 0 0 0 8-7v-45a2.84 2.84 0 0 1 1.15-2.29A19.71 19.71 0 0 1 255 136a.08.08 0 0 1 0 .06v60.06a7.1 7.1 0 0 0 8 7 7.31 7.31 0 0 0 6.18-7.33zm-21.88-76.21l-.41.15a33.91 33.91 0 0 0-13.71 2.52v-1.16a7.08 7.08 0 0 0-2.84-5.67 34 34 0 0 0-31.08-5s-.08 0-.08-.06V76a.07.07 0 0 1 .06-.07c13.65-.18 27.66-.53 41.7-1l87.15-3.09a.06.06 0 0 1 .05.11c-21.71 21.21-48.83 37.22-80.84 47.63z"/><path class="cls-1" d="M.07 63.18a2.38 2.38 0 0 0 0 .46H0v-.05a1.83 1.83 0 0 1 .07-.41zM352.16 63.58v.05a3.57 3.57 0 0 0 0-.47 1.92 1.92 0 0 1 0 .42z"/><path class="cls-1" d="M.07 63.18a2.38 2.38 0 0 0 0 .46.13.13 0 0 0 0 .06.17.17 0 0 1 0-.1v-.05a1.83 1.83 0 0 1 0-.37zM352.16 63.58v.05a.21.21 0 0 1 0 .11.15.15 0 0 0 0-.07 3.57 3.57 0 0 0 0-.47 1.92 1.92 0 0 1 0 .38zM246.52 4.9c-.88-.3-1.74-.59-2.59-.85a7 7 0 0 1 2.59.85z"/></g></g></svg>