<svg xmlns="http://www.w3.org/2000/svg" viewBox="0 0 195.96 188.17"><path d="M98 14.17a4.36 4.36 0 0 1 4 2.47l22.47 45.53a4.45 4.45 0 0 0 3.33 2.42l50.2 7.3a4.42 4.42 0 0 1 2.45 7.53l-36.36 35.45a4.37 4.37 0 0 0-1.27 3.91l8.58 50A4.43 4.43 0 0 1 147 174a4.37 4.37 0 0 1-2.06-.52L100 149.85a4.35 4.35 0 0 0-2-.51 4.42 4.42 0 0 0-2.06.51L51 173.48a4.37 4.37 0 0 1-2.06.52 4.43 4.43 0 0 1-4.35-5.18l8.58-50a4.4 4.4 0 0 0-1.27-3.91L15.52 79.42A4.42 4.42 0 0 1 18 71.89l50.25-7.3a4.45 4.45 0 0 0 3.33-2.42L94 16.64a4.35 4.35 0 0 1 4-2.47M98 0a18.47 18.47 0 0 0-16.69 10.36L61.11 51.3l-45.18 6.56a18.59 18.59 0 0 0-10.3 31.71l32.69 31.87-7.72 45a18.57 18.57 0 0 0 27 19.59L98 164.78 138.38 186a18.59 18.59 0 0 0 27-19.6l-7.72-45 32.69-31.87A18.59 18.59 0 0 0 180 57.86l-45.15-6.56-20.2-40.94A18.47 18.47 0 0 0 98 0z" fill="#1d74da" data-name="Layer 2"/></svg>