<svg xmlns="http://www.w3.org/2000/svg" viewBox="0 0 394 198"><defs><style>.cls-1{fill:none;stroke:#0e55a3;stroke-width:9px;}</style></defs><title>Asset 1</title><g id="Layer_2" data-name="Layer 2"><g id="Layer_1-2" data-name="Layer 1"><rect class="cls-1" x="4.5" y="146.5" width="96" height="47" rx="8"/><rect class="cls-1" x="100.5" y="146.5" width="96" height="47" rx="8"/><rect class="cls-1" x="196.5" y="146.5" width="96" height="47" rx="8"/><rect class="cls-1" x="54.5" y="99.5" width="96" height="47" rx="8"/><rect class="cls-1" x="149.5" y="99.5" width="96" height="47" rx="8"/><rect class="cls-1" x="120.5" y="51.5" width="96" height="47" rx="8"/><rect class="cls-1" x="101.5" y="146.5" width="96" height="47" rx="8"/><rect class="cls-1" x="197.5" y="146.5" width="96" height="47" rx="8"/><rect class="cls-1" x="293.5" y="146.5" width="96" height="47" rx="8"/><rect class="cls-1" x="151.5" y="99.5" width="96" height="47" rx="8"/><rect class="cls-1" x="246.5" y="99.5" width="96" height="47" rx="8"/><rect class="cls-1" x="217.5" y="51.5" width="96" height="47" rx="8"/><rect class="cls-1" x="178.5" y="4.5" width="96" height="47" rx="8"/></g></g></svg>