<svg xmlns="http://www.w3.org/2000/svg" viewBox="0 0 300.25 464.22"><defs><style>.cls-1{fill:#0e55a3}</style></defs><g id="Layer_2" data-name="Layer 2"><g id="final"><path class="cls-1" d="M151 154.17A77.08 77.08 0 0 1 96.49 22.61 76.58 76.58 0 0 1 151 0a77.09 77.09 0 0 1 0 154.17zm0-140A62.92 62.92 0 0 0 151 140a62.92 62.92 0 0 0 0-125.83z"/><path class="cls-1" d="M300.24 311.92L300.18 196c0-11.85-5.75-22-16.6-29.46a55.47 55.47 0 0 0-15.73-7.38L206 144.86a16 16 0 0 0-18 8.8c-4.82 10.39-16.24 27.83-38.44 27.84-9.45 0-26.86-3.57-37.47-27.48A16 16 0 0 0 94 145l-61.53 14.25h-.18a55.73 55.73 0 0 0-15.72 7.4C5.73 174.13 0 184.32 0 196.17l.07 115.92c-.31 14 6.85 41.16 35.94 46.3q.74.14 1.5.24a2 2 0 0 1 .94.4 1.67 1.67 0 0 1 .64 1.31v83.81c0 8.07 6.15 20.07 23.08 20.07l176-.09c16.94 0 23.08-12 23.08-20.1l-.05-85.27c.61-.11 1.24-.2 1.59-.25 30.39-4.51 37.78-32.38 37.45-46.59zM97.16 158.76a1.74 1.74 0 0 1 2 1c4.8 10.79 19.3 35.9 50.43 35.9 31.18 0 46.26-25.22 51.29-36.05a1.71 1.71 0 0 1 1.94-1l61.53 14.23C266 173.36 286 179.21 286 196v48.39L46.24 170.6zm-53.6 187a16.44 16.44 0 0 0-4-1.12c-25.5-3.74-25.34-31.12-25.32-32.26v-24.51l232.86 70.47v39.6zm201.87 102.03C244.15 449 242 450 238.22 450l-176 .09c-7.45 0-8.78-3.75-8.9-6l-.05-81.21 193.86 49.75v31.35a5.62 5.62 0 0 1-1.7 3.81zm15.34-103.3a26.26 26.26 0 0 0-5.86 1.41L14.22 273.05v-38.83l271.15 85.19c-1.67 8.72-7.05 22.48-24.6 25.08zM14.19 219.36v-23.2c0-8.28 4.84-13.9 10-17.53L286 259.25v45.53z"/><path class="cls-1" d="M38.45 359l-2-.52a2.64 2.64 0 0 1-.4-.12q.74.14 1.5.24a2 2 0 0 1 .9.4zM45.1 222a14.84 14.84 0 1 1 0-29.67 14.83 14.83 0 0 1 14.83 14.82A14.86 14.86 0 0 1 45.1 222zm0-24a9.17 9.17 0 0 0 0 18.33 9.17 9.17 0 0 0 9.16-9.17A9.17 9.17 0 0 0 45.1 198z"/></g></g></svg>